M48
; DRILL file {KiCad 6.0.2+dfsg-1} date gio 25 mag 2023, 22:22:30
; FORMAT={-:-/ absolute / metric / decimal}
; #@! TF.CreationDate,2023-05-25T22:22:30+02:00
; #@! TF.GenerationSoftware,Kicad,Pcbnew,6.0.2+dfsg-1
; #@! TF.FileFunction,Plated,1,2,PTH
FMAT,2
METRIC
; #@! TA.AperFunction,Plated,PTH,ViaDrill
T1C0.400
; #@! TA.AperFunction,Plated,PTH,ComponentDrill
T2C1.800
; #@! TA.AperFunction,Plated,PTH,ComponentDrill
T3C6.200
%
G90
G05
T1
X123.675Y-106.879
X123.675Y-109.344
X123.675Y-111.808
X123.675Y-114.272
X123.675Y-116.737
X125.825Y-105.647
X125.875Y-108.112
X125.875Y-110.578
X125.875Y-113.043
X125.875Y-115.508
X125.875Y-117.974
X128.125Y-99.475
X128.125Y-101.939
X128.125Y-104.404
X128.125Y-106.868
X128.125Y-109.332
X128.125Y-111.796
X128.125Y-114.261
X128.125Y-116.725
X128.125Y-119.189
X128.125Y-121.654
X128.125Y-124.118
X128.125Y-126.582
X130.375Y-98.239
X130.375Y-100.704
X130.375Y-103.17
X130.375Y-105.635
X130.375Y-108.101
X130.375Y-110.566
X130.375Y-113.031
X130.375Y-115.497
X130.375Y-117.962
X130.375Y-120.428
X130.375Y-122.893
X130.375Y-125.358
X130.375Y-127.824
X132.625Y-121.654
X132.625Y-124.118
X132.625Y-126.582
X132.675Y-99.475
X132.675Y-101.939
X132.675Y-104.404
X132.675Y-106.868
X132.675Y-109.332
X132.675Y-111.796
X132.675Y-114.261
X132.675Y-116.725
X132.675Y-119.189
X134.825Y-105.635
X134.875Y-98.239
X134.875Y-100.704
X134.875Y-103.17
X134.875Y-108.101
X134.875Y-110.566
X134.875Y-113.031
X134.875Y-115.497
X134.875Y-117.962
X134.875Y-120.428
X134.875Y-122.893
X134.875Y-125.358
X134.875Y-127.824
X137.15Y-124.118
X137.175Y-99.475
X137.175Y-101.939
X137.175Y-104.404
X137.175Y-106.868
X137.175Y-109.332
X137.175Y-111.796
X137.175Y-114.261
X137.175Y-116.725
X137.175Y-119.189
X137.175Y-121.654
X137.175Y-126.582
X162.55Y-99.479
X162.55Y-101.943
X162.55Y-104.407
X162.55Y-106.871
X162.55Y-109.336
X162.55Y-111.8
X162.55Y-114.264
X162.55Y-116.729
X162.55Y-119.193
X162.55Y-121.657
X162.55Y-126.586
X162.575Y-124.121
X164.85Y-98.243
X164.85Y-100.708
X164.85Y-103.173
X164.85Y-108.104
X164.85Y-110.57
X164.85Y-113.035
X164.85Y-115.5
X164.85Y-117.966
X164.85Y-120.431
X164.85Y-122.897
X164.85Y-125.362
X164.85Y-127.827
X164.9Y-105.639
X167.05Y-99.479
X167.05Y-101.943
X167.05Y-104.407
X167.05Y-106.871
X167.05Y-109.336
X167.05Y-111.8
X167.05Y-114.264
X167.05Y-116.729
X167.05Y-119.193
X167.1Y-121.657
X167.1Y-124.121
X167.1Y-126.586
X169.35Y-98.243
X169.35Y-100.708
X169.35Y-103.173
X169.35Y-105.639
X169.35Y-108.104
X169.35Y-110.57
X169.35Y-113.035
X169.35Y-115.5
X169.35Y-117.966
X169.35Y-120.431
X169.35Y-122.897
X169.35Y-125.362
X169.35Y-127.827
X171.6Y-99.479
X171.6Y-101.943
X171.6Y-104.407
X171.6Y-106.871
X171.6Y-109.336
X171.6Y-111.8
X171.6Y-114.264
X171.6Y-116.729
X171.6Y-119.193
X171.6Y-121.657
X171.6Y-124.121
X171.6Y-126.586
X173.85Y-108.116
X173.85Y-110.581
X173.85Y-113.047
X173.85Y-115.512
X173.85Y-117.977
X173.9Y-105.65
X176.05Y-106.883
X176.05Y-109.347
X176.05Y-111.812
X176.05Y-114.276
X176.05Y-116.74
T3
X129.35Y-86.0
X170.35Y-86.0
T2
X124.1Y-101.8G85X123.6Y-101.8
G05
X124.1Y-121.8G85X123.6Y-121.8
G05
X176.1Y-101.8G85X175.6Y-101.8
G05
X176.1Y-121.8G85X175.6Y-121.8
G05
T0
M30
