%TF.GenerationSoftware,KiCad,Pcbnew,6.0.2+dfsg-1*%
%TF.CreationDate,2023-05-25T22:22:24+02:00*%
%TF.ProjectId,dclink,64636c69-6e6b-42e6-9b69-6361645f7063,V0*%
%TF.SameCoordinates,Original*%
%TF.FileFunction,Copper,L2,Bot*%
%TF.FilePolarity,Positive*%
%FSLAX46Y46*%
G04 Gerber Fmt 4.6, Leading zero omitted, Abs format (unit mm)*
G04 Created by KiCad (PCBNEW 6.0.2+dfsg-1) date 2023-05-25 22:22:24*
%MOMM*%
%LPD*%
G01*
G04 APERTURE LIST*
%TA.AperFunction,ComponentPad*%
%ADD10C,12.200000*%
%TD*%
%TA.AperFunction,ComponentPad*%
%ADD11O,4.500000X4.000000*%
%TD*%
%TA.AperFunction,ViaPad*%
%ADD12C,0.800000*%
%TD*%
G04 APERTURE END LIST*
D10*
%TO.P, ,1*%
%TO.N,GND*%
X129350000Y-86000000D03*
%TO.P, ,2*%
%TO.N,VDC*%
X170350000Y-86000000D03*
%TD*%
D11*
%TO.P, ,1,GND*%
%TO.N,VDC*%
X175850000Y-121800000D03*
%TO.P, ,2,GND*%
%TO.N,GND*%
X123850000Y-121800000D03*
%TO.P, ,3,SUP*%
%TO.N,VDC*%
X175850000Y-101800000D03*
%TO.P, ,4,GND*%
%TO.N,GND*%
X123850000Y-101800000D03*
%TD*%
D12*
%TO.N,GND*%
X137175000Y-116724995D03*
X137175000Y-114260710D03*
X134875000Y-125358310D03*
X130375000Y-113031390D03*
X137175000Y-106867855D03*
X130375000Y-103169854D03*
X134875000Y-117962158D03*
X130375000Y-100704470D03*
X134875000Y-122892926D03*
X134875000Y-110566006D03*
X125875000Y-110577542D03*
X128125000Y-119189280D03*
X130375000Y-105635238D03*
X123675000Y-114272246D03*
X130375000Y-125358310D03*
X128125000Y-106867855D03*
X134875000Y-100704470D03*
X137175000Y-109332140D03*
X137175000Y-111796425D03*
X130375000Y-122892926D03*
X132625000Y-121653565D03*
X134875000Y-120427542D03*
X123675000Y-116736531D03*
X128125000Y-104403570D03*
X130375000Y-127823694D03*
X130375000Y-120427542D03*
X134875000Y-127823694D03*
X137175000Y-101939285D03*
X128125000Y-101939285D03*
X132675000Y-109332140D03*
X137175000Y-104403570D03*
X128125000Y-109332140D03*
X128125000Y-114260710D03*
X128125000Y-121653565D03*
X132675000Y-119189280D03*
X130375000Y-115496774D03*
X128125000Y-116724995D03*
X132675000Y-106867855D03*
X132675000Y-101939285D03*
X134875000Y-108100622D03*
X123675000Y-109343676D03*
X132675000Y-99475000D03*
X125875000Y-108112158D03*
X132675000Y-104403570D03*
X137175000Y-99475000D03*
X134875000Y-113031390D03*
X134875000Y-115496774D03*
X123675000Y-111807961D03*
X125875000Y-113042926D03*
X125825000Y-105646774D03*
X134825000Y-105635238D03*
X132675000Y-116724995D03*
X137175000Y-126582135D03*
X130375000Y-117962158D03*
X130375000Y-110566006D03*
X125875000Y-115508310D03*
X132675000Y-114260710D03*
X128125000Y-99475000D03*
X132625000Y-124117850D03*
X128125000Y-124117850D03*
X137175000Y-121653565D03*
X132675000Y-111796425D03*
X125875000Y-117973694D03*
X132625000Y-126582135D03*
X137175000Y-119189280D03*
X134875000Y-98239086D03*
X137150000Y-124117850D03*
X134875000Y-103169854D03*
X130375000Y-108100622D03*
X123675000Y-106879391D03*
X130375000Y-98239086D03*
X128125000Y-126582135D03*
X128125000Y-111796425D03*
%TO.N,VDC*%
X162550000Y-101942865D03*
X164900000Y-105638818D03*
X176050000Y-114275826D03*
X171600000Y-106871435D03*
X164850000Y-103173434D03*
X162550000Y-126585715D03*
X162550000Y-114264290D03*
X169350000Y-110569586D03*
X171600000Y-116728575D03*
X167050000Y-109335720D03*
X169350000Y-117965738D03*
X173850000Y-115511890D03*
X169350000Y-120431122D03*
X169350000Y-122896506D03*
X173850000Y-110581122D03*
X164850000Y-110569586D03*
X162550000Y-109335720D03*
X162550000Y-99478580D03*
X171600000Y-101942865D03*
X167050000Y-101942865D03*
X171600000Y-104407150D03*
X167050000Y-111800005D03*
X176050000Y-109347256D03*
X176050000Y-106882971D03*
X167100000Y-121657145D03*
X162550000Y-106871435D03*
X162575000Y-124121430D03*
X162550000Y-116728575D03*
X171600000Y-114264290D03*
X171600000Y-99478580D03*
X167050000Y-114264290D03*
X169350000Y-105638818D03*
X164850000Y-117965738D03*
X173900000Y-105650354D03*
X171600000Y-126585715D03*
X164850000Y-98242666D03*
X167050000Y-106871435D03*
X167050000Y-119192860D03*
X167050000Y-116728575D03*
X167050000Y-104407150D03*
X164850000Y-127827274D03*
X169350000Y-108104202D03*
X164850000Y-125361890D03*
X162550000Y-104407150D03*
X164850000Y-113034970D03*
X164850000Y-100708050D03*
X162550000Y-111800005D03*
X162550000Y-121657145D03*
X164850000Y-108104202D03*
X167100000Y-124121430D03*
X171600000Y-119192860D03*
X169350000Y-98242666D03*
X169350000Y-115500354D03*
X171600000Y-111800005D03*
X164850000Y-120431122D03*
X167100000Y-126585715D03*
X169350000Y-103173434D03*
X169350000Y-113034970D03*
X171600000Y-109335720D03*
X173850000Y-117977274D03*
X167050000Y-99478580D03*
X169350000Y-100708050D03*
X173850000Y-113046506D03*
X173850000Y-108115738D03*
X164850000Y-115500354D03*
X169350000Y-125361890D03*
X176050000Y-116740111D03*
X176050000Y-111811541D03*
X169350000Y-127827274D03*
X162550000Y-119192860D03*
X164850000Y-122896506D03*
X171600000Y-121657145D03*
X171600000Y-124121430D03*
%TD*%
%TA.AperFunction,Conductor*%
%TO.N,VDC*%
G36*
X176587153Y-78756421D02*
G01*
X176600000Y-78758976D01*
X176612170Y-78756556D01*
X176624581Y-78756556D01*
X176624581Y-78756560D01*
X176635584Y-78755749D01*
X176846485Y-78766109D01*
X176960994Y-78771735D01*
X176973290Y-78772945D01*
X177324684Y-78825070D01*
X177336805Y-78827480D01*
X177439577Y-78853223D01*
X177681400Y-78913798D01*
X177693232Y-78917387D01*
X178027704Y-79037062D01*
X178039128Y-79041794D01*
X178360258Y-79193677D01*
X178371163Y-79199506D01*
X178675860Y-79382135D01*
X178686141Y-79389005D01*
X178971465Y-79600616D01*
X178981023Y-79608460D01*
X179244235Y-79847021D01*
X179252979Y-79855765D01*
X179491540Y-80118977D01*
X179499384Y-80128535D01*
X179710995Y-80413859D01*
X179717865Y-80424140D01*
X179900494Y-80728837D01*
X179906323Y-80739742D01*
X180058206Y-81060872D01*
X180062938Y-81072296D01*
X180182613Y-81406768D01*
X180186202Y-81418600D01*
X180261073Y-81717495D01*
X180272519Y-81763191D01*
X180274930Y-81775316D01*
X180324142Y-82107071D01*
X180327054Y-82126705D01*
X180328266Y-82139011D01*
X180344251Y-82464416D01*
X180343440Y-82475419D01*
X180343444Y-82475419D01*
X180343444Y-82487830D01*
X180341024Y-82500000D01*
X180343579Y-82512844D01*
X180346000Y-82537425D01*
X180346000Y-127062575D01*
X180343579Y-127087153D01*
X180341024Y-127100000D01*
X180343444Y-127112170D01*
X180343444Y-127124581D01*
X180343440Y-127124581D01*
X180344251Y-127135584D01*
X180328266Y-127460989D01*
X180327055Y-127473290D01*
X180274931Y-127824681D01*
X180272520Y-127836805D01*
X180246777Y-127939577D01*
X180186202Y-128181400D01*
X180182613Y-128193232D01*
X180062938Y-128527704D01*
X180058206Y-128539128D01*
X179906323Y-128860258D01*
X179900494Y-128871163D01*
X179717865Y-129175860D01*
X179710995Y-129186141D01*
X179499384Y-129471465D01*
X179491540Y-129481023D01*
X179252979Y-129744235D01*
X179244235Y-129752979D01*
X178981023Y-129991540D01*
X178971465Y-129999384D01*
X178686141Y-130210995D01*
X178675860Y-130217865D01*
X178371163Y-130400494D01*
X178360258Y-130406323D01*
X178039128Y-130558206D01*
X178027704Y-130562938D01*
X177693232Y-130682613D01*
X177681400Y-130686202D01*
X177439577Y-130746777D01*
X177336805Y-130772520D01*
X177324684Y-130774930D01*
X176973290Y-130827055D01*
X176960994Y-130828265D01*
X176846485Y-130833891D01*
X176635584Y-130844251D01*
X176624581Y-130843440D01*
X176624581Y-130843444D01*
X176612170Y-130843444D01*
X176600000Y-130841024D01*
X176587153Y-130843579D01*
X176562575Y-130846000D01*
X160734482Y-130846000D01*
X160666361Y-130825998D01*
X160619868Y-130772342D01*
X160608483Y-130720031D01*
X160599979Y-91972408D01*
X160606511Y-91932339D01*
X160695048Y-91668178D01*
X160695048Y-91668176D01*
X160695977Y-91665406D01*
X160786034Y-91282505D01*
X160793246Y-91230808D01*
X160839978Y-90895796D01*
X160840378Y-90892929D01*
X160858413Y-90502830D01*
X160858976Y-90500000D01*
X160856421Y-90487153D01*
X160854000Y-90462575D01*
X160854000Y-82537425D01*
X160856421Y-82512844D01*
X160858976Y-82500000D01*
X160856556Y-82487830D01*
X160856556Y-82475419D01*
X160856560Y-82475419D01*
X160855749Y-82464416D01*
X160871734Y-82139011D01*
X160872946Y-82126705D01*
X160875859Y-82107071D01*
X160925070Y-81775316D01*
X160927481Y-81763191D01*
X160938928Y-81717495D01*
X161013798Y-81418600D01*
X161017387Y-81406768D01*
X161137062Y-81072296D01*
X161141794Y-81060872D01*
X161293677Y-80739742D01*
X161299506Y-80728837D01*
X161482135Y-80424140D01*
X161489005Y-80413859D01*
X161700616Y-80128535D01*
X161708460Y-80118977D01*
X161947021Y-79855765D01*
X161955765Y-79847021D01*
X162218977Y-79608460D01*
X162228535Y-79600616D01*
X162513859Y-79389005D01*
X162524140Y-79382135D01*
X162828837Y-79199506D01*
X162839742Y-79193677D01*
X163160872Y-79041794D01*
X163172296Y-79037062D01*
X163506768Y-78917387D01*
X163518600Y-78913798D01*
X163760423Y-78853223D01*
X163863195Y-78827480D01*
X163875316Y-78825070D01*
X164226710Y-78772945D01*
X164239006Y-78771735D01*
X164353515Y-78766109D01*
X164564416Y-78755749D01*
X164575419Y-78756560D01*
X164575419Y-78756556D01*
X164587830Y-78756556D01*
X164600000Y-78758976D01*
X164612847Y-78756421D01*
X164637425Y-78754000D01*
X176562575Y-78754000D01*
X176587153Y-78756421D01*
G37*
%TD.AperFunction*%
%TD*%
%TA.AperFunction,Conductor*%
%TO.N,GND*%
G36*
X135087153Y-78756421D02*
G01*
X135100000Y-78758976D01*
X135112170Y-78756556D01*
X135124581Y-78756556D01*
X135124581Y-78756560D01*
X135135584Y-78755749D01*
X135346485Y-78766109D01*
X135460994Y-78771735D01*
X135473290Y-78772945D01*
X135824684Y-78825070D01*
X135836805Y-78827480D01*
X135939577Y-78853223D01*
X136181400Y-78913798D01*
X136193232Y-78917387D01*
X136527704Y-79037062D01*
X136539128Y-79041794D01*
X136860258Y-79193677D01*
X136871163Y-79199506D01*
X137175860Y-79382135D01*
X137186141Y-79389005D01*
X137471465Y-79600616D01*
X137481023Y-79608460D01*
X137744235Y-79847021D01*
X137752979Y-79855765D01*
X137991540Y-80118977D01*
X137999384Y-80128535D01*
X138210995Y-80413859D01*
X138217865Y-80424140D01*
X138400494Y-80728837D01*
X138406323Y-80739742D01*
X138558206Y-81060872D01*
X138562938Y-81072296D01*
X138682613Y-81406768D01*
X138686202Y-81418600D01*
X138761073Y-81717495D01*
X138772519Y-81763191D01*
X138774930Y-81775316D01*
X138824142Y-82107071D01*
X138827054Y-82126705D01*
X138828266Y-82139011D01*
X138844251Y-82464416D01*
X138843440Y-82475419D01*
X138843444Y-82475419D01*
X138843444Y-82487830D01*
X138841024Y-82500000D01*
X138843579Y-82512844D01*
X138846000Y-82537425D01*
X138846000Y-90462575D01*
X138843579Y-90487153D01*
X138841024Y-90500000D01*
X138841587Y-90502830D01*
X138859622Y-90892929D01*
X138860022Y-90895796D01*
X138906755Y-91230808D01*
X138913966Y-91282505D01*
X139004023Y-91665406D01*
X139004950Y-91668171D01*
X139124505Y-92024877D01*
X139131037Y-92065019D01*
X139100302Y-130720100D01*
X139080246Y-130788205D01*
X139026553Y-130834655D01*
X138974302Y-130846000D01*
X123137425Y-130846000D01*
X123112847Y-130843579D01*
X123100000Y-130841024D01*
X123087830Y-130843444D01*
X123075419Y-130843444D01*
X123075419Y-130843440D01*
X123064416Y-130844251D01*
X122853515Y-130833891D01*
X122739006Y-130828265D01*
X122726710Y-130827055D01*
X122375316Y-130774930D01*
X122363195Y-130772520D01*
X122260423Y-130746777D01*
X122018600Y-130686202D01*
X122006768Y-130682613D01*
X121672296Y-130562938D01*
X121660872Y-130558206D01*
X121339742Y-130406323D01*
X121328837Y-130400494D01*
X121024140Y-130217865D01*
X121013859Y-130210995D01*
X120728535Y-129999384D01*
X120718977Y-129991540D01*
X120455765Y-129752979D01*
X120447021Y-129744235D01*
X120208460Y-129481023D01*
X120200616Y-129471465D01*
X119989005Y-129186141D01*
X119982135Y-129175860D01*
X119799506Y-128871163D01*
X119793677Y-128860258D01*
X119641794Y-128539128D01*
X119637062Y-128527704D01*
X119517387Y-128193232D01*
X119513798Y-128181400D01*
X119453223Y-127939577D01*
X119427480Y-127836805D01*
X119425069Y-127824681D01*
X119372945Y-127473290D01*
X119371734Y-127460989D01*
X119355749Y-127135584D01*
X119356560Y-127124581D01*
X119356556Y-127124581D01*
X119356556Y-127112170D01*
X119358976Y-127100000D01*
X119356421Y-127087153D01*
X119354000Y-127062575D01*
X119354000Y-82537425D01*
X119356421Y-82512844D01*
X119358976Y-82500000D01*
X119356556Y-82487830D01*
X119356556Y-82475419D01*
X119356560Y-82475419D01*
X119355749Y-82464416D01*
X119371734Y-82139011D01*
X119372946Y-82126705D01*
X119375859Y-82107071D01*
X119425070Y-81775316D01*
X119427481Y-81763191D01*
X119438928Y-81717495D01*
X119513798Y-81418600D01*
X119517387Y-81406768D01*
X119637062Y-81072296D01*
X119641794Y-81060872D01*
X119793677Y-80739742D01*
X119799506Y-80728837D01*
X119982135Y-80424140D01*
X119989005Y-80413859D01*
X120200616Y-80128535D01*
X120208460Y-80118977D01*
X120447021Y-79855765D01*
X120455765Y-79847021D01*
X120718977Y-79608460D01*
X120728535Y-79600616D01*
X121013859Y-79389005D01*
X121024140Y-79382135D01*
X121328837Y-79199506D01*
X121339742Y-79193677D01*
X121660872Y-79041794D01*
X121672296Y-79037062D01*
X122006768Y-78917387D01*
X122018600Y-78913798D01*
X122260423Y-78853223D01*
X122363195Y-78827480D01*
X122375316Y-78825070D01*
X122726710Y-78772945D01*
X122739006Y-78771735D01*
X122853515Y-78766109D01*
X123064416Y-78755749D01*
X123075419Y-78756560D01*
X123075419Y-78756556D01*
X123087830Y-78756556D01*
X123100000Y-78758976D01*
X123112847Y-78756421D01*
X123137425Y-78754000D01*
X135062575Y-78754000D01*
X135087153Y-78756421D01*
G37*
%TD.AperFunction*%
%TD*%
M02*
