%TF.GenerationSoftware,KiCad,Pcbnew,6.0.2+dfsg-1*%
%TF.CreationDate,2023-05-15T17:13:40+02:00*%
%TF.ProjectId,dclink,64636c69-6e6b-42e6-9b69-6361645f7063,V0*%
%TF.SameCoordinates,Original*%
%TF.FileFunction,Legend,Bot*%
%TF.FilePolarity,Positive*%
%FSLAX46Y46*%
G04 Gerber Fmt 4.6, Leading zero omitted, Abs format (unit mm)*
G04 Created by KiCad (PCBNEW 6.0.2+dfsg-1) date 2023-05-15 17:13:40*
%MOMM*%
%LPD*%
G01*
G04 APERTURE LIST*
%ADD10C,0.120000*%
%ADD11C,0.300000*%
G04 APERTURE END LIST*
D10*
X153545238Y-120518095D02*
X153507142Y-120480000D01*
X153430952Y-120441904D01*
X153240476Y-120441904D01*
X153164285Y-120480000D01*
X153126190Y-120518095D01*
X153088095Y-120594285D01*
X153088095Y-120670476D01*
X153126190Y-120784761D01*
X153583333Y-121241904D01*
X153088095Y-121241904D01*
X152326190Y-121241904D02*
X152783333Y-121241904D01*
X152554761Y-121241904D02*
X152554761Y-120441904D01*
X152630952Y-120556190D01*
X152707142Y-120632380D01*
X152783333Y-120670476D01*
X151945238Y-121203809D02*
X151945238Y-121241904D01*
X151983333Y-121318095D01*
X152021428Y-121356190D01*
X151221428Y-120441904D02*
X151602380Y-120441904D01*
X151640476Y-120822857D01*
X151602380Y-120784761D01*
X151526190Y-120746666D01*
X151335714Y-120746666D01*
X151259523Y-120784761D01*
X151221428Y-120822857D01*
X151183333Y-120899047D01*
X151183333Y-121089523D01*
X151221428Y-121165714D01*
X151259523Y-121203809D01*
X151335714Y-121241904D01*
X151526190Y-121241904D01*
X151602380Y-121203809D01*
X151640476Y-121165714D01*
X150688095Y-120441904D02*
X150611904Y-120441904D01*
X150535714Y-120480000D01*
X150497619Y-120518095D01*
X150459523Y-120594285D01*
X150421428Y-120746666D01*
X150421428Y-120937142D01*
X150459523Y-121089523D01*
X150497619Y-121165714D01*
X150535714Y-121203809D01*
X150611904Y-121241904D01*
X150688095Y-121241904D01*
X150764285Y-121203809D01*
X150802380Y-121165714D01*
X150840476Y-121089523D01*
X150878571Y-120937142D01*
X150878571Y-120746666D01*
X150840476Y-120594285D01*
X150802380Y-120518095D01*
X150764285Y-120480000D01*
X150688095Y-120441904D01*
X149926190Y-120441904D02*
X149850000Y-120441904D01*
X149773809Y-120480000D01*
X149735714Y-120518095D01*
X149697619Y-120594285D01*
X149659523Y-120746666D01*
X149659523Y-120937142D01*
X149697619Y-121089523D01*
X149735714Y-121165714D01*
X149773809Y-121203809D01*
X149850000Y-121241904D01*
X149926190Y-121241904D01*
X150002380Y-121203809D01*
X150040476Y-121165714D01*
X150078571Y-121089523D01*
X150116666Y-120937142D01*
X150116666Y-120746666D01*
X150078571Y-120594285D01*
X150040476Y-120518095D01*
X150002380Y-120480000D01*
X149926190Y-120441904D01*
X149164285Y-120441904D02*
X149088095Y-120441904D01*
X149011904Y-120480000D01*
X148973809Y-120518095D01*
X148935714Y-120594285D01*
X148897619Y-120746666D01*
X148897619Y-120937142D01*
X148935714Y-121089523D01*
X148973809Y-121165714D01*
X149011904Y-121203809D01*
X149088095Y-121241904D01*
X149164285Y-121241904D01*
X149240476Y-121203809D01*
X149278571Y-121165714D01*
X149316666Y-121089523D01*
X149354761Y-120937142D01*
X149354761Y-120746666D01*
X149316666Y-120594285D01*
X149278571Y-120518095D01*
X149240476Y-120480000D01*
X149164285Y-120441904D01*
X147945238Y-121241904D02*
X147945238Y-120708571D01*
X147945238Y-120784761D02*
X147907142Y-120746666D01*
X147830952Y-120708571D01*
X147716666Y-120708571D01*
X147640476Y-120746666D01*
X147602380Y-120822857D01*
X147602380Y-121241904D01*
X147602380Y-120822857D02*
X147564285Y-120746666D01*
X147488095Y-120708571D01*
X147373809Y-120708571D01*
X147297619Y-120746666D01*
X147259523Y-120822857D01*
X147259523Y-121241904D01*
X146878571Y-121241904D02*
X146878571Y-120708571D01*
X146878571Y-120784761D02*
X146840476Y-120746666D01*
X146764285Y-120708571D01*
X146650000Y-120708571D01*
X146573809Y-120746666D01*
X146535714Y-120822857D01*
X146535714Y-121241904D01*
X146535714Y-120822857D02*
X146497619Y-120746666D01*
X146421428Y-120708571D01*
X146307142Y-120708571D01*
X146230952Y-120746666D01*
X146192857Y-120822857D01*
X146192857Y-121241904D01*
X160600000Y-122350000D02*
X160600000Y-121213580D01*
X139100000Y-122350000D02*
X139100000Y-121213580D01*
X160600000Y-121800000D02*
X139100000Y-121800000D01*
X160600000Y-121800000D02*
X139100000Y-121800000D01*
X160600000Y-121800000D02*
X159473496Y-121213579D01*
X160600000Y-121800000D02*
X159473496Y-122386421D01*
X139100000Y-121800000D02*
X140226504Y-122386421D01*
X139100000Y-121800000D02*
X140226504Y-121213579D01*
D11*
%TO.C, *%
G36*
X137860000Y-115180000D02*
G01*
X137620000Y-115180000D01*
X137620000Y-113880000D01*
X137860000Y-113880000D01*
X137860000Y-115180000D01*
G37*
G36*
X127806364Y-108203049D02*
G01*
X128049658Y-108203191D01*
X128311657Y-108203448D01*
X128589883Y-108203821D01*
X128881859Y-108204310D01*
X129185108Y-108204917D01*
X131536716Y-108210000D01*
X131083358Y-108498514D01*
X131082291Y-108499194D01*
X130962053Y-108575763D01*
X130853195Y-108645182D01*
X130760193Y-108704587D01*
X130687522Y-108751118D01*
X130639656Y-108781913D01*
X130621072Y-108794110D01*
X130620376Y-108794777D01*
X130619116Y-108798324D01*
X130619576Y-108806156D01*
X130622526Y-108820680D01*
X130628736Y-108844306D01*
X130638974Y-108879442D01*
X130654011Y-108928495D01*
X130674617Y-108993873D01*
X130701560Y-109077984D01*
X130735611Y-109183238D01*
X130777539Y-109312041D01*
X130828114Y-109466802D01*
X130888106Y-109649929D01*
X130958284Y-109863830D01*
X131039417Y-110110913D01*
X131132276Y-110393587D01*
X131540839Y-111637174D01*
X131609100Y-111659702D01*
X131648796Y-111675790D01*
X131708023Y-111715466D01*
X131760500Y-111775183D01*
X131809384Y-111859822D01*
X131857831Y-111974264D01*
X131908999Y-112123390D01*
X131924521Y-112172315D01*
X131954340Y-112267716D01*
X131978283Y-112346248D01*
X131994215Y-112400845D01*
X132000000Y-112424441D01*
X131997562Y-112425229D01*
X131964646Y-112427420D01*
X131895431Y-112429509D01*
X131792659Y-112431472D01*
X131659070Y-112433288D01*
X131497406Y-112434935D01*
X131310408Y-112436389D01*
X131100816Y-112437629D01*
X130871372Y-112438633D01*
X130624816Y-112439377D01*
X130363889Y-112439840D01*
X130091333Y-112440000D01*
X128182665Y-112440000D01*
X128052656Y-112035000D01*
X128021395Y-111937535D01*
X127980007Y-111807724D01*
X127948919Y-111708253D01*
X127926897Y-111634348D01*
X127912707Y-111581235D01*
X127905117Y-111544140D01*
X127902893Y-111518289D01*
X127904802Y-111498908D01*
X127909612Y-111481224D01*
X127913345Y-111470659D01*
X127930555Y-111441121D01*
X127959075Y-111418636D01*
X128003681Y-111402289D01*
X128069148Y-111391166D01*
X128160255Y-111384353D01*
X128281778Y-111380935D01*
X128438494Y-111380000D01*
X128838973Y-111380000D01*
X128867526Y-111435215D01*
X128875997Y-111448788D01*
X128919565Y-111494953D01*
X128975763Y-111535215D01*
X128987297Y-111541589D01*
X129010333Y-111552777D01*
X129036175Y-111561551D01*
X129069472Y-111568204D01*
X129114874Y-111573029D01*
X129177029Y-111576320D01*
X129260587Y-111578370D01*
X129370197Y-111579470D01*
X129510508Y-111579916D01*
X129686170Y-111580000D01*
X130316894Y-111580000D01*
X130036556Y-110740000D01*
X129743278Y-110740294D01*
X129615224Y-110741341D01*
X129513443Y-110745571D01*
X129441337Y-110754809D01*
X129393608Y-110770888D01*
X129364958Y-110795640D01*
X129350089Y-110830899D01*
X129343703Y-110878496D01*
X129337405Y-110966057D01*
X128943703Y-110952244D01*
X128937777Y-110952034D01*
X128811242Y-110946648D01*
X128694074Y-110940053D01*
X128593927Y-110932801D01*
X128518457Y-110925443D01*
X128475319Y-110918530D01*
X128454161Y-110912625D01*
X128410844Y-110897033D01*
X128374410Y-110875339D01*
X128342195Y-110842954D01*
X128311538Y-110795287D01*
X128279772Y-110727748D01*
X128244236Y-110635747D01*
X128202266Y-110514694D01*
X128151197Y-110360000D01*
X128004255Y-109910000D01*
X128882128Y-109904791D01*
X129011044Y-109903867D01*
X129185497Y-109902077D01*
X129344200Y-109899824D01*
X129483111Y-109897198D01*
X129598188Y-109894293D01*
X129685389Y-109891199D01*
X129740674Y-109888009D01*
X129760000Y-109884815D01*
X129758976Y-109879542D01*
X129748423Y-109842922D01*
X129728258Y-109778427D01*
X129700737Y-109693192D01*
X129668118Y-109594352D01*
X129654884Y-109554068D01*
X129625040Y-109458313D01*
X129602245Y-109377976D01*
X129588534Y-109320509D01*
X129585941Y-109293365D01*
X129595686Y-109281937D01*
X129634169Y-109251180D01*
X129694169Y-109209477D01*
X129767824Y-109162487D01*
X129818369Y-109131116D01*
X129881119Y-109090908D01*
X129924074Y-109061756D01*
X129940000Y-109048450D01*
X129933436Y-109047401D01*
X129892847Y-109045682D01*
X129818740Y-109044116D01*
X129715218Y-109042742D01*
X129586388Y-109041604D01*
X129436353Y-109040740D01*
X129269219Y-109040191D01*
X129089091Y-109040000D01*
X128238182Y-109040000D01*
X128186857Y-109091325D01*
X128169976Y-109109420D01*
X128146013Y-109152681D01*
X128147753Y-109203763D01*
X128159976Y-109264875D01*
X127764988Y-109250932D01*
X127758603Y-109250705D01*
X127631580Y-109245266D01*
X127513675Y-109238607D01*
X127412605Y-109231285D01*
X127336088Y-109223855D01*
X127291840Y-109216873D01*
X127283424Y-109214652D01*
X127236405Y-109198911D01*
X127196640Y-109176562D01*
X127161497Y-109143062D01*
X127128343Y-109093870D01*
X127094546Y-109024442D01*
X127057473Y-108930234D01*
X127014491Y-108806704D01*
X126962970Y-108649310D01*
X126939816Y-108577139D01*
X126902459Y-108459180D01*
X126870921Y-108357653D01*
X126846847Y-108277957D01*
X126831886Y-108225490D01*
X126827682Y-108205651D01*
X126835141Y-108205217D01*
X126878134Y-108204574D01*
X126957173Y-108204041D01*
X127069782Y-108203619D01*
X127213483Y-108203308D01*
X127385799Y-108203108D01*
X127584251Y-108203022D01*
X127806364Y-108203049D01*
G37*
G36*
X146940000Y-114080000D02*
G01*
X146540000Y-114080000D01*
X146540000Y-114616980D01*
X146539520Y-114759629D01*
X146538171Y-114888986D01*
X146536081Y-114999710D01*
X146533381Y-115086459D01*
X146530200Y-115143891D01*
X146526667Y-115166666D01*
X146513556Y-115171733D01*
X146468910Y-115177681D01*
X146406667Y-115180000D01*
X146300000Y-115180000D01*
X146300000Y-114080000D01*
X145880000Y-114080000D01*
X145880000Y-113880000D01*
X146940000Y-113880000D01*
X146940000Y-114080000D01*
G37*
G36*
X161299410Y-107086178D02*
G01*
X161326589Y-107097988D01*
X161341329Y-107122218D01*
X161349713Y-107160633D01*
X161357824Y-107215000D01*
X161368543Y-107284833D01*
X161379732Y-107362935D01*
X161387025Y-107420000D01*
X161388372Y-107434930D01*
X161386961Y-107538916D01*
X161371788Y-107658167D01*
X161345813Y-107774883D01*
X161311994Y-107871265D01*
X161302612Y-107890859D01*
X161219321Y-108020892D01*
X161109768Y-108137110D01*
X160983485Y-108230806D01*
X160850000Y-108293275D01*
X160798549Y-108304686D01*
X160701467Y-108313139D01*
X160580000Y-108313181D01*
X160492542Y-108308667D01*
X160403699Y-108297508D01*
X160321487Y-108276808D01*
X160227356Y-108242869D01*
X160194814Y-108229096D01*
X160118316Y-108191971D01*
X160031856Y-108145481D01*
X159943031Y-108094223D01*
X159859435Y-108042793D01*
X159788665Y-107995788D01*
X159738317Y-107957803D01*
X159715985Y-107933436D01*
X159723313Y-107922772D01*
X159758490Y-107894880D01*
X159816353Y-107855847D01*
X159889972Y-107810565D01*
X160069943Y-107704259D01*
X160145809Y-107742963D01*
X160260547Y-107786978D01*
X160382857Y-107807653D01*
X160500697Y-107803902D01*
X160604758Y-107776047D01*
X160685734Y-107724405D01*
X160726254Y-107673070D01*
X160769132Y-107573331D01*
X160793303Y-107447901D01*
X160797051Y-107303269D01*
X160790000Y-107150881D01*
X161020000Y-107116931D01*
X161082403Y-107107607D01*
X161183400Y-107092754D01*
X161253708Y-107085022D01*
X161299410Y-107086178D01*
G37*
G36*
X137596437Y-108204441D02*
G01*
X137645192Y-108204738D01*
X137870331Y-108206176D01*
X138059765Y-108207602D01*
X138217083Y-108209170D01*
X138345875Y-108211033D01*
X138449731Y-108213342D01*
X138532239Y-108216253D01*
X138596990Y-108219916D01*
X138647572Y-108224486D01*
X138687574Y-108230115D01*
X138720587Y-108236957D01*
X138750199Y-108245164D01*
X138780000Y-108254889D01*
X138828281Y-108272468D01*
X139006460Y-108358006D01*
X139175008Y-108469913D01*
X139326336Y-108601803D01*
X139452854Y-108747294D01*
X139546971Y-108900000D01*
X139553044Y-108913461D01*
X139576282Y-108972409D01*
X139609945Y-109064411D01*
X139652802Y-109185847D01*
X139703621Y-109333101D01*
X139761170Y-109502554D01*
X139824215Y-109690588D01*
X139891526Y-109893585D01*
X139961870Y-110107928D01*
X140034014Y-110330000D01*
X140447717Y-111610000D01*
X140448859Y-111810000D01*
X140448932Y-111849264D01*
X140446861Y-111936256D01*
X140440107Y-111998413D01*
X140426976Y-112046851D01*
X140405773Y-112092689D01*
X140357281Y-112169902D01*
X140258863Y-112273240D01*
X140132657Y-112352071D01*
X139974987Y-112409097D01*
X139968013Y-112410835D01*
X139937212Y-112416318D01*
X139893857Y-112421048D01*
X139835203Y-112425077D01*
X139758504Y-112428463D01*
X139661018Y-112431257D01*
X139539999Y-112433516D01*
X139392703Y-112435294D01*
X139216385Y-112436645D01*
X139008301Y-112437624D01*
X138765707Y-112438285D01*
X138485857Y-112438683D01*
X137101714Y-112440000D01*
X136981845Y-112065000D01*
X136946939Y-111955771D01*
X136837238Y-111612075D01*
X136739707Y-111305814D01*
X136654201Y-111036519D01*
X136580573Y-110803724D01*
X136518675Y-110606958D01*
X136468360Y-110445756D01*
X136429482Y-110319648D01*
X136401895Y-110228166D01*
X136385450Y-110170842D01*
X136380000Y-110147208D01*
X136380963Y-110144526D01*
X136391753Y-110138906D01*
X136416820Y-110134180D01*
X136459022Y-110130276D01*
X136521217Y-110127123D01*
X136606263Y-110124651D01*
X136717017Y-110122787D01*
X136856339Y-110121461D01*
X137027086Y-110120602D01*
X137232115Y-110120138D01*
X137474286Y-110120000D01*
X137644552Y-110120056D01*
X137858813Y-110120373D01*
X138037836Y-110121033D01*
X138184437Y-110122108D01*
X138301431Y-110123670D01*
X138391633Y-110125792D01*
X138457857Y-110128545D01*
X138502920Y-110132002D01*
X138529636Y-110136235D01*
X138540819Y-110141316D01*
X138539286Y-110147318D01*
X138535619Y-110150326D01*
X138501926Y-110173377D01*
X138440924Y-110212414D01*
X138358207Y-110263944D01*
X138259368Y-110324471D01*
X138150000Y-110390502D01*
X138118904Y-110409176D01*
X138012508Y-110473513D01*
X137918575Y-110530975D01*
X137842585Y-110578171D01*
X137790015Y-110611705D01*
X137766344Y-110628184D01*
X137758465Y-110643480D01*
X137759227Y-110679125D01*
X137772672Y-110739172D01*
X137799860Y-110830000D01*
X137805699Y-110848398D01*
X137835521Y-110942668D01*
X137872177Y-111058873D01*
X137911561Y-111183991D01*
X137949570Y-111305000D01*
X138042108Y-111600000D01*
X138556054Y-111599705D01*
X138663927Y-111599488D01*
X138814774Y-111598173D01*
X138932382Y-111595090D01*
X139020976Y-111589575D01*
X139084784Y-111580966D01*
X139128032Y-111568600D01*
X139154946Y-111551813D01*
X139169752Y-111529943D01*
X139176676Y-111502326D01*
X139174829Y-111488183D01*
X139162416Y-111437586D01*
X139139398Y-111354956D01*
X139106862Y-111243889D01*
X139065897Y-111107982D01*
X139017591Y-110950832D01*
X138963032Y-110776036D01*
X138903309Y-110587192D01*
X138839510Y-110387897D01*
X138795621Y-110251149D01*
X138734740Y-110059858D01*
X138678752Y-109882067D01*
X138628728Y-109721279D01*
X138585740Y-109581001D01*
X138550858Y-109464736D01*
X138525154Y-109375989D01*
X138509698Y-109318265D01*
X138505561Y-109295070D01*
X138517747Y-109282400D01*
X138559582Y-109252809D01*
X138623299Y-109213657D01*
X138700997Y-109170000D01*
X138886538Y-109070000D01*
X138030090Y-109064782D01*
X138012673Y-109064676D01*
X137796146Y-109063417D01*
X137616023Y-109062816D01*
X137468954Y-109063315D01*
X137351589Y-109065359D01*
X137260577Y-109069389D01*
X137192569Y-109075849D01*
X137144215Y-109085183D01*
X137112164Y-109097833D01*
X137093068Y-109114243D01*
X137083575Y-109134855D01*
X137080336Y-109160113D01*
X137080000Y-109190461D01*
X137080000Y-109260000D01*
X136703631Y-109260000D01*
X136604342Y-109259496D01*
X136454295Y-109255709D01*
X136336228Y-109247469D01*
X136245066Y-109233898D01*
X136175736Y-109214118D01*
X136123161Y-109187249D01*
X136082267Y-109152412D01*
X136072742Y-109139579D01*
X136045477Y-109089670D01*
X136011492Y-109016632D01*
X135974764Y-108930342D01*
X135939273Y-108840677D01*
X135908996Y-108757517D01*
X135887912Y-108690737D01*
X135880000Y-108650217D01*
X135880304Y-108648860D01*
X135900583Y-108627634D01*
X135948979Y-108589474D01*
X136020349Y-108538097D01*
X136109549Y-108477223D01*
X136211437Y-108410571D01*
X136542873Y-108198043D01*
X137596437Y-108204441D01*
G37*
G36*
X136164639Y-114348307D02*
G01*
X136170000Y-114816614D01*
X136459366Y-114348307D01*
X136748731Y-113880000D01*
X137000000Y-113880000D01*
X137000000Y-114516666D01*
X136999880Y-114602139D01*
X136999063Y-114751501D01*
X136997558Y-114885258D01*
X136995466Y-114998533D01*
X136992887Y-115086445D01*
X136989921Y-115144116D01*
X136986667Y-115166666D01*
X136977176Y-115170967D01*
X136935915Y-115177448D01*
X136876667Y-115180000D01*
X136780000Y-115180000D01*
X136780000Y-114706666D01*
X136779725Y-114616708D01*
X136778376Y-114494619D01*
X136776056Y-114391403D01*
X136772938Y-114312341D01*
X136769196Y-114262714D01*
X136765000Y-114247806D01*
X136751329Y-114267312D01*
X136719412Y-114316423D01*
X136672247Y-114390462D01*
X136612747Y-114484829D01*
X136543825Y-114594921D01*
X136468397Y-114716139D01*
X136186793Y-115170000D01*
X136063397Y-115175954D01*
X135940000Y-115181908D01*
X135940000Y-113880000D01*
X136159277Y-113880000D01*
X136164639Y-114348307D01*
G37*
G36*
X148500000Y-115180000D02*
G01*
X148280724Y-115180000D01*
X148275362Y-114711692D01*
X148270000Y-114243385D01*
X147980124Y-114712520D01*
X147690247Y-115181655D01*
X147570124Y-115175827D01*
X147450000Y-115170000D01*
X147450000Y-113890000D01*
X147670000Y-113890000D01*
X147680000Y-114345310D01*
X147690000Y-114800621D01*
X147971472Y-114345310D01*
X148252943Y-113890000D01*
X148376472Y-113884045D01*
X148500000Y-113878091D01*
X148500000Y-115180000D01*
G37*
G36*
X139066305Y-113871554D02*
G01*
X139143015Y-113877627D01*
X139200464Y-113889722D01*
X139249337Y-113909336D01*
X139261366Y-113915542D01*
X139368339Y-113991761D01*
X139463625Y-114095891D01*
X139537041Y-114217040D01*
X139551666Y-114249446D01*
X139571631Y-114304174D01*
X139583164Y-114360697D01*
X139588395Y-114431733D01*
X139589453Y-114530000D01*
X139589446Y-114532459D01*
X139587274Y-114635272D01*
X139580331Y-114710514D01*
X139566803Y-114770260D01*
X139544875Y-114826590D01*
X139539795Y-114837566D01*
X139464601Y-114966377D01*
X139372302Y-115064330D01*
X139256071Y-115138806D01*
X139220886Y-115155811D01*
X139149569Y-115183463D01*
X139080130Y-115196321D01*
X138991806Y-115199122D01*
X138915362Y-115195468D01*
X138834442Y-115185458D01*
X138774960Y-115171464D01*
X138663136Y-115114148D01*
X138561719Y-115022533D01*
X138486370Y-114906704D01*
X138442585Y-114773247D01*
X138425165Y-114680000D01*
X138651704Y-114680000D01*
X138676478Y-114772625D01*
X138721227Y-114876317D01*
X138788440Y-114952112D01*
X138871688Y-114999561D01*
X138964588Y-115018372D01*
X139060754Y-115008253D01*
X139153801Y-114968912D01*
X139237345Y-114900055D01*
X139305000Y-114801392D01*
X139320463Y-114769493D01*
X139345015Y-114703649D01*
X139356901Y-114634453D01*
X139360000Y-114543734D01*
X139356325Y-114441239D01*
X139338666Y-114331903D01*
X139303671Y-114242727D01*
X139248338Y-114163478D01*
X139173718Y-114097860D01*
X139071268Y-114052832D01*
X138959469Y-114042991D01*
X138846408Y-114070212D01*
X138845547Y-114070572D01*
X138778748Y-114107024D01*
X138730518Y-114157589D01*
X138688670Y-114235000D01*
X138671333Y-114269191D01*
X138649143Y-114290121D01*
X138611891Y-114298484D01*
X138547115Y-114300000D01*
X138434767Y-114300000D01*
X138446886Y-114225316D01*
X138454325Y-114192895D01*
X138499481Y-114096545D01*
X138573585Y-114005699D01*
X138669014Y-113930473D01*
X138672863Y-113928097D01*
X138719683Y-113901105D01*
X138761363Y-113884078D01*
X138809187Y-113874737D01*
X138874437Y-113870804D01*
X138968396Y-113870000D01*
X139066305Y-113871554D01*
G37*
G36*
X145093580Y-111660859D02*
G01*
X145108503Y-111666121D01*
X145168320Y-111693837D01*
X145217845Y-111732011D01*
X145260893Y-111786357D01*
X145301283Y-111862586D01*
X145342830Y-111966412D01*
X145389352Y-112103548D01*
X145404987Y-112151945D01*
X145436396Y-112249068D01*
X145462674Y-112330188D01*
X145481438Y-112387950D01*
X145490303Y-112415000D01*
X145489283Y-112418605D01*
X145474323Y-112424342D01*
X145439928Y-112429027D01*
X145383161Y-112432749D01*
X145301084Y-112435595D01*
X145190759Y-112437655D01*
X145049250Y-112439017D01*
X144873618Y-112439769D01*
X144660926Y-112440000D01*
X143823107Y-112440000D01*
X143760208Y-112235000D01*
X143742732Y-112178052D01*
X143712524Y-112079641D01*
X143685458Y-111991503D01*
X143665829Y-111927621D01*
X143647881Y-111853724D01*
X143647436Y-111778303D01*
X143675132Y-111724661D01*
X143732380Y-111687716D01*
X143803336Y-111658069D01*
X143768253Y-111604034D01*
X143766636Y-111601543D01*
X143730119Y-111545083D01*
X143691585Y-111485247D01*
X143650000Y-111420495D01*
X143084046Y-111420247D01*
X142518092Y-111420000D01*
X142524046Y-111543804D01*
X142524800Y-111559162D01*
X142529475Y-111621026D01*
X142538996Y-111655419D01*
X142558586Y-111672888D01*
X142593471Y-111683979D01*
X142605489Y-111687340D01*
X142655524Y-111709193D01*
X142699264Y-111745214D01*
X142739815Y-111800354D01*
X142780285Y-111879561D01*
X142823780Y-111987788D01*
X142873407Y-112129982D01*
X142976977Y-112440000D01*
X141321272Y-112440000D01*
X141218873Y-112118385D01*
X141215071Y-112106426D01*
X141174377Y-111974696D01*
X141147112Y-111874888D01*
X141133145Y-111801718D01*
X141132341Y-111749902D01*
X141144568Y-111714153D01*
X141169693Y-111689188D01*
X141207583Y-111669721D01*
X141273742Y-111642078D01*
X141286871Y-111397899D01*
X141287339Y-111388379D01*
X141289618Y-111317808D01*
X141291762Y-111212258D01*
X141293736Y-111075917D01*
X141295502Y-110912972D01*
X141297027Y-110727608D01*
X141298275Y-110524014D01*
X141298636Y-110440000D01*
X142500000Y-110440000D01*
X142760000Y-110440000D01*
X142779222Y-110439974D01*
X142873423Y-110439039D01*
X142949904Y-110436963D01*
X143001239Y-110434017D01*
X143020000Y-110430474D01*
X143014607Y-110420490D01*
X142991091Y-110381660D01*
X142952217Y-110318967D01*
X142901600Y-110238112D01*
X142842853Y-110144798D01*
X142779587Y-110044725D01*
X142715417Y-109943595D01*
X142653956Y-109847112D01*
X142598817Y-109760975D01*
X142553613Y-109690887D01*
X142521958Y-109642550D01*
X142507464Y-109621666D01*
X142506788Y-109622606D01*
X142504626Y-109649718D01*
X142502761Y-109709413D01*
X142501298Y-109795958D01*
X142500342Y-109903620D01*
X142500000Y-110026666D01*
X142500000Y-110440000D01*
X141298636Y-110440000D01*
X141299210Y-110306376D01*
X141299797Y-110078881D01*
X141300000Y-109845716D01*
X141300024Y-109757881D01*
X141300505Y-109463698D01*
X141301619Y-109208465D01*
X141303379Y-108991361D01*
X141305797Y-108811568D01*
X141308886Y-108668264D01*
X141312660Y-108560630D01*
X141317132Y-108487846D01*
X141322315Y-108449092D01*
X141343518Y-108390215D01*
X141405664Y-108303154D01*
X141494263Y-108241607D01*
X141603219Y-108210748D01*
X141639337Y-108208684D01*
X141712755Y-108206812D01*
X141818653Y-108205271D01*
X141953171Y-108204082D01*
X142112450Y-108203263D01*
X142292632Y-108202835D01*
X142489857Y-108202816D01*
X142700266Y-108203227D01*
X142920000Y-108204086D01*
X144130000Y-108210000D01*
X143655410Y-108506045D01*
X143180819Y-108802090D01*
X143227849Y-108876045D01*
X143231216Y-108881317D01*
X143255654Y-108919384D01*
X143299480Y-108987521D01*
X143360948Y-109083018D01*
X143438313Y-109203167D01*
X143529829Y-109345256D01*
X143633753Y-109506578D01*
X143748338Y-109684423D01*
X143871840Y-109876081D01*
X144002512Y-110078843D01*
X144138611Y-110290000D01*
X144229157Y-110430474D01*
X145002342Y-111630000D01*
X145093580Y-111660859D01*
G37*
G36*
X158607172Y-116841843D02*
G01*
X158863018Y-116963538D01*
X159261633Y-117135037D01*
X159660197Y-117285336D01*
X160052153Y-117412199D01*
X160430940Y-117513387D01*
X160790000Y-117586662D01*
X160800933Y-117588505D01*
X160931601Y-117609903D01*
X161023924Y-117623520D01*
X161078749Y-117629271D01*
X161096922Y-117627074D01*
X161079290Y-117616846D01*
X161026701Y-117598504D01*
X160940000Y-117571965D01*
X160837683Y-117540765D01*
X160411275Y-117392338D01*
X159999922Y-117219955D01*
X159704838Y-117075628D01*
X159261315Y-116822678D01*
X158833201Y-116534117D01*
X158421940Y-116211287D01*
X158028977Y-115855527D01*
X157655757Y-115468179D01*
X157303725Y-115050581D01*
X156974325Y-114604074D01*
X156669002Y-114130000D01*
X156514823Y-113858642D01*
X156333786Y-113496994D01*
X156165706Y-113110705D01*
X156342816Y-113110705D01*
X156348873Y-113134479D01*
X156370876Y-113187401D01*
X156406020Y-113263879D01*
X156451497Y-113358320D01*
X156504501Y-113465132D01*
X156562224Y-113578724D01*
X156621861Y-113693501D01*
X156680604Y-113803872D01*
X156735646Y-113904245D01*
X156784182Y-113989027D01*
X156884383Y-114154784D01*
X157195822Y-114624282D01*
X157529498Y-115062909D01*
X157884514Y-115469976D01*
X158259973Y-115844799D01*
X158654976Y-116186690D01*
X159068626Y-116494962D01*
X159500026Y-116768929D01*
X159948277Y-117007905D01*
X160412482Y-117211202D01*
X160891744Y-117378135D01*
X161385164Y-117508017D01*
X161392710Y-117509691D01*
X161552819Y-117543771D01*
X161702597Y-117572319D01*
X161850429Y-117596476D01*
X162004701Y-117617382D01*
X162173797Y-117636181D01*
X162366102Y-117654012D01*
X162590000Y-117672018D01*
X162591125Y-117672104D01*
X162665378Y-117678476D01*
X162711326Y-117684987D01*
X162727131Y-117692825D01*
X162710957Y-117703182D01*
X162660965Y-117717248D01*
X162575316Y-117736212D01*
X162452174Y-117761264D01*
X162445565Y-117762579D01*
X162093903Y-117813697D01*
X161721455Y-117832563D01*
X161330569Y-117819515D01*
X160923594Y-117774895D01*
X160502875Y-117699042D01*
X160070762Y-117592297D01*
X159629602Y-117454998D01*
X159181742Y-117287488D01*
X159099842Y-117253318D01*
X158953303Y-117188879D01*
X158789997Y-117113962D01*
X158618869Y-117032889D01*
X158448861Y-116949980D01*
X158288917Y-116869556D01*
X158147983Y-116795940D01*
X158035000Y-116733451D01*
X158000578Y-116713718D01*
X157938727Y-116679186D01*
X157895966Y-116656616D01*
X157880000Y-116650150D01*
X157890336Y-116662462D01*
X157927516Y-116695714D01*
X157986420Y-116744834D01*
X158061424Y-116805348D01*
X158146907Y-116872783D01*
X158237245Y-116942664D01*
X158326817Y-117010518D01*
X158410000Y-117071872D01*
X158597915Y-117204502D01*
X159057515Y-117499056D01*
X159522765Y-117754821D01*
X159995679Y-117972585D01*
X160478269Y-118153136D01*
X160972546Y-118297261D01*
X161480523Y-118405750D01*
X162004212Y-118479390D01*
X162082878Y-118486070D01*
X162223530Y-118493263D01*
X162388911Y-118497694D01*
X162570083Y-118499426D01*
X162758110Y-118498521D01*
X162944052Y-118495039D01*
X163118973Y-118489043D01*
X163273935Y-118480594D01*
X163400000Y-118469754D01*
X163495342Y-118458664D01*
X164043042Y-118373025D01*
X164578322Y-118250986D01*
X165104218Y-118091649D01*
X165623765Y-117894112D01*
X166140000Y-117657476D01*
X166184973Y-117635012D01*
X166379222Y-117535265D01*
X166550343Y-117442060D01*
X166710036Y-117348854D01*
X166870000Y-117249100D01*
X166880870Y-117242156D01*
X166906314Y-117227357D01*
X166910801Y-117230889D01*
X166893036Y-117257092D01*
X166851723Y-117310304D01*
X166754675Y-117425545D01*
X166576376Y-117608230D01*
X166367247Y-117794107D01*
X166132168Y-117979405D01*
X165876015Y-118160355D01*
X165603667Y-118333188D01*
X165320000Y-118494132D01*
X165027355Y-118641026D01*
X164655724Y-118805342D01*
X164253876Y-118961541D01*
X163826929Y-119107652D01*
X163380000Y-119241702D01*
X163333620Y-119254845D01*
X163244989Y-119281561D01*
X163193092Y-119300356D01*
X163178369Y-119311372D01*
X163201259Y-119314752D01*
X163262201Y-119310637D01*
X163361635Y-119299170D01*
X163500000Y-119280492D01*
X163779244Y-119237877D01*
X164305202Y-119137749D01*
X164803150Y-119015073D01*
X165277194Y-118868648D01*
X165731441Y-118697274D01*
X166170000Y-118499749D01*
X166189445Y-118490224D01*
X166556351Y-118297673D01*
X166894855Y-118093497D01*
X167215782Y-117870714D01*
X167529953Y-117622342D01*
X167631969Y-117534857D01*
X167985700Y-117198245D01*
X168314452Y-116831414D01*
X168616708Y-116436306D01*
X168890946Y-116014863D01*
X169135650Y-115569028D01*
X169155069Y-115529794D01*
X169259981Y-115301094D01*
X169366473Y-115042705D01*
X169471506Y-114763015D01*
X169572042Y-114470409D01*
X169665043Y-114173275D01*
X169747471Y-113880000D01*
X169766853Y-113804056D01*
X169795500Y-113684695D01*
X169825068Y-113554703D01*
X169854097Y-113421156D01*
X169881125Y-113291130D01*
X169904691Y-113171700D01*
X169923333Y-113069944D01*
X169935590Y-112992938D01*
X169940001Y-112947757D01*
X169943589Y-112917974D01*
X169957349Y-112891638D01*
X169958948Y-112891208D01*
X169971817Y-112910571D01*
X169989210Y-112965081D01*
X170010303Y-113050886D01*
X170034271Y-113164134D01*
X170060293Y-113300970D01*
X170087542Y-113457543D01*
X170115197Y-113630000D01*
X170119806Y-113660124D01*
X170134268Y-113759345D01*
X170145527Y-113848373D01*
X170153989Y-113934376D01*
X170160061Y-114024526D01*
X170164151Y-114125993D01*
X170166667Y-114245947D01*
X170168016Y-114391559D01*
X170168604Y-114570000D01*
X170168649Y-114662433D01*
X170167736Y-114846490D01*
X170165195Y-115000361D01*
X170160753Y-115130848D01*
X170154137Y-115244750D01*
X170145074Y-115348867D01*
X170133292Y-115450000D01*
X170128156Y-115488638D01*
X170083688Y-115772890D01*
X170027428Y-116063128D01*
X169961624Y-116350153D01*
X169888528Y-116624771D01*
X169810391Y-116877786D01*
X169729464Y-117100000D01*
X169661402Y-117270000D01*
X169752528Y-117171047D01*
X169784814Y-117134803D01*
X169866589Y-117036109D01*
X169962284Y-116913352D01*
X170066946Y-116773228D01*
X170175622Y-116622436D01*
X170283358Y-116467673D01*
X170385200Y-116315636D01*
X170592664Y-115985791D01*
X170880035Y-115475610D01*
X171128615Y-114962712D01*
X171338161Y-114447708D01*
X171508432Y-113931214D01*
X171639187Y-113413842D01*
X171730184Y-112896204D01*
X171748372Y-112742716D01*
X171770829Y-112425355D01*
X171776773Y-112091517D01*
X171766441Y-111754244D01*
X171740069Y-111426575D01*
X171697895Y-111121552D01*
X171688653Y-111069570D01*
X171586373Y-110616609D01*
X171446453Y-110166569D01*
X171270949Y-109724169D01*
X171061918Y-109294127D01*
X170821416Y-108881165D01*
X170551497Y-108490000D01*
X170425972Y-108331874D01*
X170215418Y-108096526D01*
X169981503Y-107864564D01*
X169733269Y-107644317D01*
X169479754Y-107444117D01*
X169230000Y-107272293D01*
X169043522Y-107160733D01*
X168763794Y-107013768D01*
X168476134Y-106884426D01*
X168191288Y-106777424D01*
X167920000Y-106697477D01*
X167915668Y-106696400D01*
X167797582Y-106667534D01*
X167715194Y-106649625D01*
X167665556Y-106643654D01*
X167645714Y-106650599D01*
X167652718Y-106671441D01*
X167683618Y-106707159D01*
X167735461Y-106758732D01*
X167903074Y-106945486D01*
X168061532Y-107178352D01*
X168193835Y-107440458D01*
X168299628Y-107730969D01*
X168378558Y-108049051D01*
X168430268Y-108393871D01*
X168446149Y-108563190D01*
X168457385Y-108754411D01*
X168457654Y-108909157D01*
X168446930Y-109026440D01*
X168434299Y-109102880D01*
X168342150Y-109014963D01*
X168177395Y-108865080D01*
X167926747Y-108657939D01*
X167650100Y-108449624D01*
X167354779Y-108245152D01*
X167048106Y-108049541D01*
X166737405Y-107867807D01*
X166430000Y-107704968D01*
X166295673Y-107639686D01*
X166019102Y-107515962D01*
X165736898Y-107402785D01*
X165644853Y-107370000D01*
X166120000Y-107370000D01*
X166130000Y-107380000D01*
X166140000Y-107370000D01*
X166130000Y-107360000D01*
X166120000Y-107370000D01*
X165644853Y-107370000D01*
X165458412Y-107303593D01*
X165192995Y-107221824D01*
X164950000Y-107160916D01*
X164869048Y-107143289D01*
X164783445Y-107123644D01*
X164728635Y-107108771D01*
X164705931Y-107098110D01*
X164716647Y-107091099D01*
X164762098Y-107087176D01*
X164843598Y-107085782D01*
X164962461Y-107086354D01*
X165120000Y-107088332D01*
X165293621Y-107091911D01*
X165489400Y-107100062D01*
X165662040Y-107113318D01*
X165820982Y-107132896D01*
X165975663Y-107160013D01*
X166135523Y-107195886D01*
X166310000Y-107241732D01*
X166365058Y-107257404D01*
X166567332Y-107321400D01*
X166702118Y-107370000D01*
X166772611Y-107395418D01*
X166972443Y-107475919D01*
X167158375Y-107559365D01*
X167321954Y-107642217D01*
X167454729Y-107720937D01*
X167519457Y-107763583D01*
X167487430Y-107686791D01*
X167380691Y-107470866D01*
X167233339Y-107241664D01*
X167050093Y-107008307D01*
X166832652Y-106772632D01*
X166582715Y-106536477D01*
X166301982Y-106301680D01*
X165992154Y-106070078D01*
X165854307Y-105972426D01*
X165981764Y-105924760D01*
X166032400Y-105906295D01*
X166284160Y-105825867D01*
X166559710Y-105754228D01*
X166846005Y-105694501D01*
X167130000Y-105649810D01*
X167235642Y-105637183D01*
X167695865Y-105606835D01*
X168162061Y-105615551D01*
X168633283Y-105663093D01*
X169108581Y-105749223D01*
X169587008Y-105873704D01*
X170067616Y-106036297D01*
X170549458Y-106236764D01*
X171031584Y-106474867D01*
X171513048Y-106750368D01*
X171638111Y-106828989D01*
X171821467Y-106950526D01*
X172010296Y-107082011D01*
X172196528Y-107217536D01*
X172372094Y-107351195D01*
X172528925Y-107477078D01*
X172658951Y-107589280D01*
X172747901Y-107670000D01*
X172681272Y-107550000D01*
X172601941Y-107414344D01*
X172404964Y-107122489D01*
X172174411Y-106832273D01*
X171914459Y-106548105D01*
X171629288Y-106274394D01*
X171323076Y-106015549D01*
X171000000Y-105775980D01*
X170690406Y-105573382D01*
X170237334Y-105313305D01*
X169755341Y-105075392D01*
X169247482Y-104860461D01*
X168716811Y-104669330D01*
X168166384Y-104502819D01*
X167599255Y-104361745D01*
X167018480Y-104246927D01*
X166427111Y-104159184D01*
X165828206Y-104099333D01*
X165224817Y-104068194D01*
X164620000Y-104066585D01*
X164613397Y-104066733D01*
X164234493Y-104079893D01*
X163882096Y-104102488D01*
X163548617Y-104135929D01*
X163226465Y-104181629D01*
X162908052Y-104241000D01*
X162585788Y-104315455D01*
X162252085Y-104406405D01*
X161899352Y-104515262D01*
X161520000Y-104643440D01*
X161294729Y-104724958D01*
X161059548Y-104815241D01*
X160825388Y-104909953D01*
X160597549Y-105006730D01*
X160381329Y-105103204D01*
X160182028Y-105197011D01*
X160004945Y-105285783D01*
X159855379Y-105367156D01*
X159738630Y-105438763D01*
X159702032Y-105463522D01*
X159381289Y-105704842D01*
X159072570Y-105980558D01*
X158779788Y-106286301D01*
X158506855Y-106617703D01*
X158257685Y-106970392D01*
X158036189Y-107340000D01*
X158032428Y-107347064D01*
X158002407Y-107411705D01*
X157962236Y-107508440D01*
X157913777Y-107632129D01*
X157858895Y-107777637D01*
X157799451Y-107939826D01*
X157737310Y-108113559D01*
X157674333Y-108293698D01*
X157612385Y-108475106D01*
X157553329Y-108652646D01*
X157499026Y-108821180D01*
X157491270Y-108845715D01*
X157455133Y-108959039D01*
X157427488Y-109041357D01*
X157405351Y-109098711D01*
X157385736Y-109137140D01*
X157365659Y-109162687D01*
X157342134Y-109181390D01*
X157312176Y-109199293D01*
X157303244Y-109204451D01*
X157164495Y-109297262D01*
X157022950Y-109413080D01*
X156893096Y-109540123D01*
X156845739Y-109594400D01*
X156728686Y-109767374D01*
X156648159Y-109956614D01*
X156604165Y-110162073D01*
X156596711Y-110383708D01*
X156625802Y-110621472D01*
X156691447Y-110875322D01*
X156719423Y-110955820D01*
X156803080Y-111153420D01*
X156913447Y-111370921D01*
X157047927Y-111604161D01*
X157203921Y-111848975D01*
X157378830Y-112101202D01*
X157570056Y-112356678D01*
X157775000Y-112611239D01*
X157840000Y-112689113D01*
X157840000Y-112497661D01*
X157841475Y-112396224D01*
X157845859Y-112269806D01*
X157852588Y-112131793D01*
X157861093Y-111990783D01*
X157870805Y-111855372D01*
X157881155Y-111734157D01*
X157891573Y-111635734D01*
X157901492Y-111568700D01*
X157903751Y-111557603D01*
X157956943Y-111394164D01*
X158043342Y-111237884D01*
X158156853Y-111099947D01*
X158193878Y-111064366D01*
X158244532Y-111021712D01*
X158302282Y-110981461D01*
X158374521Y-110939015D01*
X158468639Y-110889773D01*
X158592029Y-110829135D01*
X158626673Y-110812454D01*
X158949266Y-110661986D01*
X159279605Y-110516158D01*
X159611700Y-110377274D01*
X159939561Y-110247641D01*
X160257201Y-110129565D01*
X160558629Y-110025352D01*
X160837858Y-109937308D01*
X161088897Y-109867739D01*
X161328025Y-109812987D01*
X161652812Y-109759960D01*
X161952809Y-109737907D01*
X162228320Y-109746825D01*
X162479650Y-109786712D01*
X162707104Y-109857566D01*
X162842896Y-109917214D01*
X163103192Y-110063091D01*
X163343964Y-110240588D01*
X163562389Y-110446142D01*
X163755648Y-110676188D01*
X163920919Y-110927162D01*
X164055381Y-111195498D01*
X164156214Y-111477632D01*
X164220595Y-111770000D01*
X164234785Y-111884024D01*
X164246412Y-112148364D01*
X164231823Y-112419564D01*
X164192070Y-112684443D01*
X164128200Y-112929822D01*
X164050037Y-113137233D01*
X163910991Y-113412882D01*
X163740487Y-113666958D01*
X163541097Y-113897216D01*
X163315393Y-114101410D01*
X163065945Y-114277296D01*
X162795327Y-114422628D01*
X162506109Y-114535160D01*
X162200863Y-114612648D01*
X162127402Y-114624300D01*
X161970431Y-114639089D01*
X161796769Y-114645308D01*
X161620357Y-114642959D01*
X161455137Y-114632044D01*
X161315049Y-114612562D01*
X161192740Y-114585985D01*
X160887546Y-114492384D01*
X160601242Y-114364146D01*
X160335632Y-114202467D01*
X160092518Y-114008543D01*
X159873704Y-113783570D01*
X159680993Y-113528743D01*
X159628971Y-113451401D01*
X159586965Y-113392381D01*
X159563323Y-113365758D01*
X159557606Y-113372370D01*
X159569372Y-113413055D01*
X159598182Y-113488652D01*
X159643596Y-113600000D01*
X159737720Y-113807889D01*
X159899761Y-114096613D01*
X160085216Y-114355164D01*
X160292984Y-114582523D01*
X160521966Y-114777668D01*
X160771060Y-114939580D01*
X161039166Y-115067236D01*
X161325185Y-115159618D01*
X161642098Y-115221283D01*
X161982535Y-115248950D01*
X162334634Y-115239345D01*
X162699280Y-115192441D01*
X163077357Y-115108213D01*
X163079071Y-115108668D01*
X163058567Y-115121325D01*
X163010022Y-115147451D01*
X162938734Y-115184234D01*
X162850000Y-115228862D01*
X162641544Y-115325115D01*
X162268884Y-115463803D01*
X161877767Y-115569569D01*
X161472634Y-115641085D01*
X161353213Y-115651839D01*
X161202932Y-115657641D01*
X161032663Y-115658663D01*
X160852278Y-115655209D01*
X160671648Y-115647584D01*
X160500644Y-115636091D01*
X160349140Y-115621034D01*
X160227006Y-115602718D01*
X160096599Y-115576131D01*
X159684629Y-115468605D01*
X159278307Y-115326011D01*
X158876111Y-115147554D01*
X158476519Y-114932436D01*
X158078009Y-114679860D01*
X157679058Y-114389031D01*
X157278145Y-114059150D01*
X157219214Y-114007106D01*
X157096665Y-113894632D01*
X156967386Y-113771273D01*
X156837520Y-113643230D01*
X156713209Y-113516702D01*
X156600597Y-113397889D01*
X156505826Y-113292990D01*
X156435038Y-113208206D01*
X156433857Y-113206696D01*
X156391232Y-113154906D01*
X156358663Y-113120270D01*
X156343118Y-113110215D01*
X156342816Y-113110705D01*
X156165706Y-113110705D01*
X156163471Y-113105569D01*
X156001638Y-112679501D01*
X156000242Y-112675577D01*
X155952424Y-112540553D01*
X155909395Y-112417910D01*
X155872897Y-112312702D01*
X155844671Y-112229983D01*
X155826458Y-112174810D01*
X155820000Y-112152236D01*
X155820195Y-112151918D01*
X155834578Y-112166512D01*
X155869607Y-112208678D01*
X155922221Y-112274551D01*
X155989364Y-112360264D01*
X156067976Y-112461952D01*
X156155000Y-112575747D01*
X156204497Y-112640625D01*
X156352651Y-112832140D01*
X156485200Y-112998475D01*
X156607386Y-113145684D01*
X156724450Y-113279824D01*
X156841636Y-113406952D01*
X156964186Y-113533123D01*
X157097342Y-113664395D01*
X157433822Y-113973881D01*
X157833015Y-114299900D01*
X158239214Y-114588324D01*
X158651722Y-114838767D01*
X159069838Y-115050846D01*
X159492866Y-115224176D01*
X159920106Y-115358373D01*
X160350859Y-115453054D01*
X160357678Y-115454212D01*
X160469247Y-115468676D01*
X160602411Y-115479236D01*
X160751018Y-115486033D01*
X160908916Y-115489202D01*
X161069956Y-115488883D01*
X161227983Y-115485214D01*
X161376848Y-115478333D01*
X161510399Y-115468378D01*
X161622484Y-115455488D01*
X161706951Y-115439800D01*
X161757649Y-115421453D01*
X161758584Y-115420798D01*
X161750847Y-115411347D01*
X161710700Y-115401565D01*
X161645141Y-115393210D01*
X161544117Y-115379835D01*
X161387355Y-115348512D01*
X161220447Y-115305468D01*
X161057954Y-115254559D01*
X160914437Y-115199644D01*
X160708729Y-115099847D01*
X160452711Y-114939320D01*
X160218198Y-114747270D01*
X160004623Y-114523006D01*
X159811420Y-114265838D01*
X159638023Y-113975075D01*
X159483865Y-113650026D01*
X159348380Y-113290000D01*
X159520000Y-113290000D01*
X159530000Y-113300000D01*
X159540000Y-113290000D01*
X159530000Y-113280000D01*
X159520000Y-113290000D01*
X159348380Y-113290000D01*
X159297749Y-113126398D01*
X159253660Y-112940330D01*
X159230003Y-112764833D01*
X159225262Y-112587625D01*
X159237918Y-112396425D01*
X159249583Y-112288384D01*
X159261977Y-112192427D01*
X159273405Y-112132903D01*
X159284858Y-112107908D01*
X159297327Y-112115542D01*
X159311802Y-112153904D01*
X159329274Y-112221090D01*
X159351894Y-112311508D01*
X159427950Y-112570682D01*
X159518322Y-112825017D01*
X159619421Y-113065723D01*
X159727660Y-113284009D01*
X159731240Y-113290000D01*
X159839451Y-113471085D01*
X159893195Y-113544270D01*
X159969239Y-113636539D01*
X160054962Y-113732424D01*
X160140090Y-113820000D01*
X160178444Y-113856699D01*
X160403197Y-114043801D01*
X160643972Y-114197261D01*
X160905807Y-114319921D01*
X161193737Y-114414624D01*
X161239225Y-114426637D01*
X161306769Y-114442571D01*
X161370271Y-114453742D01*
X161438537Y-114460968D01*
X161520376Y-114465064D01*
X161624595Y-114466848D01*
X161760000Y-114467137D01*
X161833103Y-114466942D01*
X161952374Y-114465652D01*
X162044978Y-114462470D01*
X162119772Y-114456569D01*
X162185615Y-114447120D01*
X162251365Y-114433297D01*
X162325880Y-114414272D01*
X162388239Y-114396724D01*
X162673067Y-114293228D01*
X162935682Y-114159170D01*
X163174747Y-113997346D01*
X163388928Y-113810553D01*
X163576887Y-113601588D01*
X163737290Y-113373248D01*
X163868801Y-113128329D01*
X163970084Y-112869630D01*
X164039803Y-112599946D01*
X164076623Y-112322075D01*
X164079208Y-112038813D01*
X164046223Y-111752958D01*
X163976331Y-111467306D01*
X163868198Y-111184655D01*
X163816064Y-111078635D01*
X163669677Y-110840215D01*
X163492869Y-110618532D01*
X163290569Y-110418155D01*
X163067705Y-110243652D01*
X162829206Y-110099592D01*
X162580000Y-109990544D01*
X162519280Y-109971568D01*
X162362498Y-109938969D01*
X162181101Y-109918992D01*
X161984311Y-109911807D01*
X161781352Y-109917583D01*
X161581447Y-109936491D01*
X161393819Y-109968700D01*
X161324237Y-109984331D01*
X161000527Y-110067477D01*
X160651125Y-110172862D01*
X160280892Y-110298684D01*
X159894690Y-110443146D01*
X159497379Y-110604445D01*
X159093820Y-110780783D01*
X158688874Y-110970359D01*
X158666887Y-110981020D01*
X158546783Y-111040235D01*
X158455822Y-111087616D01*
X158387652Y-111127079D01*
X158335920Y-111162543D01*
X158294273Y-111197928D01*
X158256359Y-111237152D01*
X158176348Y-111338653D01*
X158105346Y-111472544D01*
X158062902Y-111623458D01*
X158058495Y-111653749D01*
X158050728Y-111730630D01*
X158042327Y-111837269D01*
X158033631Y-111967390D01*
X158024980Y-112114714D01*
X158016715Y-112272964D01*
X158009175Y-112435865D01*
X158002701Y-112597139D01*
X157997632Y-112750509D01*
X157994309Y-112889697D01*
X157990000Y-113129395D01*
X157732848Y-112819697D01*
X157502215Y-112535962D01*
X157291229Y-112262587D01*
X157107486Y-112008091D01*
X156948936Y-111769378D01*
X156813527Y-111543357D01*
X156699210Y-111326935D01*
X156603933Y-111117017D01*
X156540114Y-110949876D01*
X156465149Y-110686942D01*
X156427399Y-110438251D01*
X156426905Y-110203438D01*
X156463709Y-109982136D01*
X156537852Y-109773980D01*
X156649375Y-109578604D01*
X156798320Y-109395641D01*
X156844063Y-109349428D01*
X156933442Y-109267021D01*
X157024605Y-109190972D01*
X157103612Y-109133259D01*
X157251887Y-109036519D01*
X157388444Y-108623259D01*
X157409457Y-108559739D01*
X157493096Y-108308757D01*
X157566679Y-108091593D01*
X157631588Y-107904665D01*
X157689201Y-107744388D01*
X157740900Y-107607181D01*
X157788063Y-107489459D01*
X157832071Y-107387639D01*
X157874303Y-107298138D01*
X157916140Y-107217374D01*
X157958961Y-107141763D01*
X157961738Y-107137057D01*
X158180458Y-106792330D01*
X158417949Y-106465261D01*
X158670714Y-106159564D01*
X158935254Y-105878953D01*
X159208072Y-105627139D01*
X159485671Y-105407838D01*
X159764553Y-105224762D01*
X159943028Y-105126306D01*
X160161162Y-105017801D01*
X160406929Y-104905121D01*
X160674498Y-104790485D01*
X160958038Y-104676111D01*
X161251719Y-104564220D01*
X161549708Y-104457030D01*
X161846174Y-104356761D01*
X162135286Y-104265632D01*
X162411214Y-104185863D01*
X162668125Y-104119673D01*
X162976176Y-104053613D01*
X163396921Y-103985605D01*
X163844191Y-103937310D01*
X164320909Y-103908426D01*
X164830000Y-103898656D01*
X165345805Y-103907095D01*
X165956964Y-103941919D01*
X166552072Y-104004710D01*
X167139021Y-104096536D01*
X167725700Y-104218468D01*
X168320000Y-104371573D01*
X168798431Y-104517851D01*
X169322092Y-104706700D01*
X169820356Y-104917972D01*
X170291905Y-105150790D01*
X170735419Y-105404276D01*
X171149578Y-105677549D01*
X171533063Y-105969733D01*
X171884553Y-106279949D01*
X172202730Y-106607317D01*
X172486274Y-106950960D01*
X172733865Y-107310000D01*
X172760633Y-107354473D01*
X172804200Y-107430148D01*
X172857782Y-107525542D01*
X172918708Y-107635679D01*
X172937483Y-107670000D01*
X172984304Y-107755587D01*
X173051901Y-107880290D01*
X173118827Y-108004816D01*
X173182410Y-108124189D01*
X173239979Y-108233436D01*
X173288863Y-108327582D01*
X173326390Y-108401654D01*
X173349889Y-108450678D01*
X173356688Y-108469679D01*
X173355778Y-108469478D01*
X173334936Y-108452807D01*
X173289682Y-108412494D01*
X173223708Y-108351949D01*
X173140704Y-108274584D01*
X173044359Y-108183808D01*
X172938364Y-108083033D01*
X172792985Y-107946173D01*
X172476684Y-107663245D01*
X172167537Y-107408816D01*
X171858419Y-107177708D01*
X171542207Y-106964744D01*
X171211776Y-106764746D01*
X170860000Y-106572536D01*
X170587219Y-106437717D01*
X170165210Y-106255494D01*
X169734511Y-106099512D01*
X169302094Y-105971984D01*
X168874933Y-105875122D01*
X168460000Y-105811138D01*
X168325190Y-105797836D01*
X168022770Y-105781674D01*
X167707456Y-105781415D01*
X167391832Y-105796597D01*
X167088486Y-105826762D01*
X166810000Y-105871449D01*
X166729477Y-105888493D01*
X166631567Y-105911124D01*
X166528991Y-105936297D01*
X166430486Y-105961751D01*
X166344793Y-105985224D01*
X166280650Y-106004456D01*
X166246797Y-106017185D01*
X166245574Y-106020942D01*
X166263208Y-106045717D01*
X166307818Y-106089474D01*
X166375691Y-106148729D01*
X166463111Y-106220000D01*
X166508075Y-106256526D01*
X166616906Y-106349749D01*
X166735830Y-106456758D01*
X166853273Y-106567019D01*
X166957657Y-106670000D01*
X167112253Y-106832513D01*
X167262970Y-107005446D01*
X167388880Y-107170111D01*
X167494631Y-107333792D01*
X167584872Y-107503770D01*
X167664249Y-107687328D01*
X167737411Y-107891749D01*
X167762359Y-107968209D01*
X167792709Y-108063629D01*
X167816171Y-108140339D01*
X167830800Y-108191936D01*
X167834654Y-108212013D01*
X167830828Y-108210768D01*
X167802046Y-108191953D01*
X167750058Y-108154260D01*
X167680549Y-108101868D01*
X167599206Y-108038956D01*
X167512344Y-107974140D01*
X167292742Y-107831392D01*
X167049797Y-107698390D01*
X166795039Y-107581157D01*
X166540000Y-107485716D01*
X166407838Y-107443080D01*
X166310641Y-107413792D01*
X166250582Y-107398999D01*
X166227451Y-107399066D01*
X166241038Y-107414360D01*
X166291132Y-107445245D01*
X166377523Y-107492088D01*
X166500000Y-107555253D01*
X166863370Y-107748899D01*
X167273649Y-107992389D01*
X167659709Y-108251009D01*
X168030000Y-108530141D01*
X168270000Y-108721487D01*
X168276384Y-108635957D01*
X168277860Y-108602264D01*
X168273160Y-108485034D01*
X168256738Y-108342422D01*
X168230376Y-108183325D01*
X168195852Y-108016638D01*
X168154947Y-107851258D01*
X168109441Y-107696080D01*
X168061113Y-107560000D01*
X168002349Y-107422805D01*
X167935260Y-107291467D01*
X167858812Y-107168784D01*
X167768897Y-107049801D01*
X167661411Y-106929562D01*
X167532246Y-106803113D01*
X167377297Y-106665497D01*
X167192457Y-106511761D01*
X167162072Y-106486710D01*
X167110712Y-106442243D01*
X167078861Y-106411530D01*
X167072457Y-106400095D01*
X167097528Y-106401078D01*
X167172907Y-106407817D01*
X167274367Y-106419821D01*
X167393059Y-106435773D01*
X167520132Y-106454354D01*
X167646737Y-106474247D01*
X167764024Y-106494132D01*
X167863144Y-106512692D01*
X167935248Y-106528609D01*
X168222268Y-106612030D01*
X168616701Y-106761347D01*
X168999715Y-106946769D01*
X169368690Y-107166376D01*
X169721007Y-107418249D01*
X170054048Y-107700468D01*
X170365192Y-108011112D01*
X170651821Y-108348263D01*
X170911316Y-108710000D01*
X171101758Y-109020025D01*
X171310835Y-109414175D01*
X171493837Y-109822486D01*
X171647923Y-110237899D01*
X171770252Y-110653354D01*
X171857981Y-111061791D01*
X171921365Y-111544785D01*
X171945842Y-112035989D01*
X171930997Y-112531565D01*
X171876972Y-113030882D01*
X171783906Y-113533311D01*
X171651942Y-114038221D01*
X171481220Y-114544984D01*
X171271880Y-115052969D01*
X171024064Y-115561546D01*
X170737912Y-116070086D01*
X170699683Y-116133328D01*
X170548709Y-116374324D01*
X170396889Y-116601425D01*
X170239220Y-116821188D01*
X170070698Y-117040169D01*
X169886322Y-117264925D01*
X169681087Y-117502012D01*
X169449991Y-117757987D01*
X169416290Y-117794642D01*
X169309255Y-117910023D01*
X169226405Y-117997067D01*
X169166010Y-118057127D01*
X169126337Y-118091555D01*
X169105657Y-118101703D01*
X169102238Y-118088925D01*
X169114349Y-118054573D01*
X169140259Y-118000000D01*
X169144289Y-117991938D01*
X169193613Y-117889885D01*
X169251801Y-117764550D01*
X169315621Y-117623371D01*
X169381841Y-117473784D01*
X169447228Y-117323225D01*
X169508550Y-117179131D01*
X169562574Y-117048938D01*
X169606068Y-116940082D01*
X169635799Y-116860000D01*
X169689830Y-116696167D01*
X169823050Y-116212178D01*
X169921538Y-115717239D01*
X169984479Y-115217221D01*
X170011062Y-114717997D01*
X170000473Y-114225438D01*
X169992934Y-114107904D01*
X169984950Y-113996849D01*
X169977377Y-113903914D01*
X169970811Y-113836370D01*
X169965845Y-113801492D01*
X169961301Y-113792545D01*
X169950185Y-113802648D01*
X169933258Y-113844141D01*
X169909549Y-113919573D01*
X169878086Y-114031492D01*
X169791485Y-114332332D01*
X169624538Y-114833314D01*
X169437753Y-115303490D01*
X169231821Y-115741183D01*
X169007434Y-116144716D01*
X168828964Y-116424199D01*
X168528729Y-116834702D01*
X168200306Y-117216964D01*
X167843897Y-117570863D01*
X167459703Y-117896280D01*
X167047927Y-118193096D01*
X166608771Y-118461190D01*
X166142437Y-118700444D01*
X165649127Y-118910737D01*
X165129043Y-119091949D01*
X164582388Y-119243961D01*
X164009364Y-119366653D01*
X163410172Y-119459906D01*
X163113033Y-119489079D01*
X162828375Y-119496009D01*
X162558391Y-119478118D01*
X162293775Y-119434317D01*
X162025225Y-119363517D01*
X161743436Y-119264626D01*
X161596872Y-119207661D01*
X162116942Y-119216350D01*
X162211164Y-119217779D01*
X162388072Y-119219106D01*
X162536443Y-119217395D01*
X162664068Y-119211843D01*
X162778742Y-119201652D01*
X162888256Y-119186018D01*
X163000405Y-119164141D01*
X163122980Y-119135220D01*
X163263775Y-119098453D01*
X163304831Y-119087350D01*
X163806785Y-118938526D01*
X164282585Y-118772833D01*
X164729231Y-118591483D01*
X165143725Y-118395684D01*
X165523069Y-118186648D01*
X165568810Y-118159199D01*
X165651530Y-118108661D01*
X165717140Y-118067362D01*
X165759849Y-118038982D01*
X165773870Y-118027203D01*
X165773762Y-118027125D01*
X165752784Y-118032115D01*
X165702352Y-118049320D01*
X165629859Y-118076098D01*
X165542695Y-118109808D01*
X165330117Y-118190419D01*
X164804013Y-118362736D01*
X164274917Y-118497967D01*
X163744984Y-118595837D01*
X163216371Y-118656068D01*
X162691233Y-118678384D01*
X162171724Y-118662508D01*
X161660000Y-118608164D01*
X161558542Y-118592703D01*
X161046377Y-118491948D01*
X160545283Y-118354656D01*
X160054285Y-118180365D01*
X159572407Y-117968613D01*
X159098675Y-117718937D01*
X158632114Y-117430874D01*
X158171747Y-117103962D01*
X157716601Y-116737738D01*
X157595859Y-116630000D01*
X157840000Y-116630000D01*
X157850000Y-116640000D01*
X157860000Y-116630000D01*
X157850000Y-116620000D01*
X157840000Y-116630000D01*
X157595859Y-116630000D01*
X157523015Y-116565001D01*
X157310556Y-116352369D01*
X157134015Y-116146338D01*
X156994332Y-115948027D01*
X156892450Y-115758554D01*
X156870738Y-115709460D01*
X156842676Y-115640673D01*
X156832721Y-115601929D01*
X156842824Y-115592961D01*
X156874934Y-115613500D01*
X156931000Y-115663282D01*
X157012972Y-115742037D01*
X157072602Y-115799616D01*
X157268211Y-115979874D01*
X157459895Y-116141537D01*
X157654733Y-116289490D01*
X157859802Y-116428614D01*
X158082180Y-116563792D01*
X158202208Y-116630000D01*
X158328944Y-116699908D01*
X158607172Y-116841843D01*
G37*
G36*
X151420000Y-115180000D02*
G01*
X151420000Y-114640000D01*
X151245000Y-114640111D01*
X151188925Y-114640652D01*
X151067966Y-114648044D01*
X150979102Y-114667222D01*
X150916988Y-114702131D01*
X150876273Y-114756719D01*
X150851611Y-114834932D01*
X150837653Y-114940716D01*
X150837342Y-114944332D01*
X150828123Y-115043997D01*
X150817829Y-115110658D01*
X150801991Y-115150951D01*
X150776139Y-115171514D01*
X150735803Y-115178984D01*
X150676513Y-115180000D01*
X150621678Y-115179291D01*
X150581058Y-115174955D01*
X150566475Y-115164382D01*
X150570106Y-115145000D01*
X150570960Y-115142753D01*
X150580828Y-115102926D01*
X150592622Y-115037697D01*
X150603974Y-114960000D01*
X150604434Y-114956459D01*
X150615295Y-114873504D01*
X150625244Y-114798551D01*
X150632179Y-114747435D01*
X150634907Y-114733655D01*
X150663477Y-114669509D01*
X150709848Y-114610860D01*
X150761384Y-114574609D01*
X150770759Y-114567311D01*
X150762686Y-114545664D01*
X150722584Y-114508396D01*
X150706204Y-114494151D01*
X150639376Y-114408382D01*
X150604663Y-114310511D01*
X150602675Y-114262360D01*
X150840000Y-114262360D01*
X150842477Y-114315942D01*
X150856882Y-114368494D01*
X150889091Y-114410909D01*
X150904846Y-114425809D01*
X150928356Y-114441778D01*
X150959426Y-114451809D01*
X151006166Y-114457275D01*
X151076684Y-114459547D01*
X151179091Y-114460000D01*
X151420000Y-114460000D01*
X151420000Y-114080000D01*
X151182698Y-114080000D01*
X151165778Y-114080011D01*
X151066951Y-114081006D01*
X150998579Y-114084454D01*
X150952312Y-114091549D01*
X150919801Y-114103483D01*
X150892698Y-114121451D01*
X150890808Y-114122948D01*
X150858677Y-114155893D01*
X150843693Y-114197143D01*
X150840000Y-114262360D01*
X150602675Y-114262360D01*
X150600431Y-114208004D01*
X150625045Y-114108323D01*
X150676872Y-114018933D01*
X150754275Y-113947297D01*
X150855622Y-113900880D01*
X150887164Y-113895510D01*
X150956928Y-113889401D01*
X151051993Y-113884532D01*
X151164102Y-113881302D01*
X151285000Y-113880111D01*
X151640000Y-113880000D01*
X151640000Y-115180000D01*
X151420000Y-115180000D01*
G37*
G36*
X134830382Y-113865462D02*
G01*
X134965458Y-113897391D01*
X135086508Y-113955294D01*
X135184832Y-114038558D01*
X135203266Y-114060489D01*
X135284754Y-114189222D01*
X135336021Y-114330377D01*
X135358272Y-114478113D01*
X135352713Y-114626590D01*
X135320552Y-114769966D01*
X135262994Y-114902401D01*
X135181245Y-115018054D01*
X135076512Y-115111084D01*
X134950000Y-115175650D01*
X134888017Y-115189419D01*
X134799614Y-115196836D01*
X134704258Y-115196509D01*
X134617366Y-115188540D01*
X134554358Y-115173030D01*
X134546686Y-115169643D01*
X134485431Y-115135191D01*
X134426500Y-115092514D01*
X134397801Y-115069321D01*
X134366511Y-115054091D01*
X134347965Y-115071525D01*
X134332385Y-115125000D01*
X134322874Y-115153802D01*
X134298754Y-115175047D01*
X134249619Y-115180000D01*
X134180000Y-115180000D01*
X134180000Y-114500000D01*
X134720000Y-114500000D01*
X134720000Y-114658382D01*
X134390000Y-114670000D01*
X134396136Y-114730000D01*
X134404548Y-114779261D01*
X134444303Y-114873434D01*
X134507816Y-114944241D01*
X134588854Y-114991398D01*
X134681188Y-115014620D01*
X134778586Y-115013625D01*
X134874817Y-114988129D01*
X134963650Y-114937847D01*
X135038854Y-114862497D01*
X135094198Y-114761793D01*
X135097804Y-114751871D01*
X135121378Y-114645539D01*
X135128459Y-114522339D01*
X135119080Y-114399885D01*
X135093276Y-114295794D01*
X135053797Y-114221183D01*
X134989482Y-114143526D01*
X134914706Y-114082952D01*
X134840404Y-114050088D01*
X134782849Y-114042130D01*
X134675140Y-114050367D01*
X134576350Y-114085554D01*
X134495888Y-114143651D01*
X134443164Y-114220619D01*
X134423929Y-114262913D01*
X134402012Y-114288406D01*
X134366824Y-114298148D01*
X134305000Y-114299796D01*
X134266304Y-114299433D01*
X134222903Y-114294891D01*
X134204085Y-114281877D01*
X134200000Y-114256314D01*
X134212573Y-114194279D01*
X134248057Y-114116807D01*
X134298564Y-114040749D01*
X134356163Y-113980132D01*
X134427984Y-113931659D01*
X134552946Y-113881983D01*
X134689978Y-113860122D01*
X134830382Y-113865462D01*
G37*
G36*
X153220000Y-114080000D02*
G01*
X152800000Y-114080000D01*
X152800000Y-115180000D01*
X152580000Y-115180000D01*
X152580000Y-114080000D01*
X152160000Y-114080000D01*
X152160000Y-113880000D01*
X153220000Y-113880000D01*
X153220000Y-114080000D01*
G37*
G36*
X165303423Y-104413192D02*
G01*
X165408244Y-104415896D01*
X165499830Y-104421741D01*
X165588663Y-104431502D01*
X165685226Y-104445954D01*
X165800000Y-104465870D01*
X166055489Y-104514576D01*
X166383333Y-104587003D01*
X166680409Y-104665669D01*
X166952014Y-104752155D01*
X167203445Y-104848040D01*
X167440000Y-104954903D01*
X167710000Y-105086907D01*
X167386916Y-105122562D01*
X167321332Y-105130106D01*
X166915813Y-105190837D01*
X166529716Y-105273170D01*
X166167245Y-105375938D01*
X165832605Y-105497973D01*
X165530000Y-105638109D01*
X165453701Y-105678778D01*
X165347960Y-105738132D01*
X165256323Y-105793072D01*
X165184186Y-105840185D01*
X165136946Y-105876060D01*
X165120000Y-105897286D01*
X165133729Y-105913881D01*
X165173980Y-105951523D01*
X165235875Y-106005716D01*
X165314515Y-106072176D01*
X165405000Y-106146614D01*
X165484788Y-106211581D01*
X165578722Y-106288427D01*
X165662131Y-106357042D01*
X165728157Y-106411781D01*
X165769946Y-106447002D01*
X165849891Y-106515845D01*
X165638679Y-106517465D01*
X165406881Y-106529027D01*
X165080338Y-106575851D01*
X164745725Y-106657473D01*
X164407470Y-106772757D01*
X164070000Y-106920563D01*
X163964035Y-106972889D01*
X163847369Y-107032926D01*
X163764442Y-107079319D01*
X163713445Y-107113180D01*
X163692567Y-107135619D01*
X163700000Y-107147749D01*
X163706741Y-107149972D01*
X163748162Y-107162853D01*
X163817316Y-107183903D01*
X163906454Y-107210772D01*
X164007829Y-107241110D01*
X164158002Y-107287492D01*
X164577786Y-107432839D01*
X165005268Y-107602438D01*
X165432500Y-107792446D01*
X165851536Y-107999015D01*
X166254429Y-108218299D01*
X166633233Y-108446452D01*
X166980000Y-108679628D01*
X167045685Y-108727013D01*
X167464005Y-109052468D01*
X167846010Y-109392797D01*
X168191501Y-109747697D01*
X168500277Y-110116863D01*
X168772140Y-110499994D01*
X169006889Y-110896785D01*
X169204325Y-111306934D01*
X169364248Y-111730137D01*
X169486459Y-112166092D01*
X169570757Y-112614494D01*
X169602997Y-112838988D01*
X169519546Y-113204494D01*
X169473099Y-113402346D01*
X169409091Y-113659750D01*
X169343335Y-113908644D01*
X169278577Y-114138707D01*
X169217562Y-114339620D01*
X169212298Y-114356077D01*
X169097331Y-114682815D01*
X168966641Y-114998877D01*
X168822909Y-115299375D01*
X168668813Y-115579422D01*
X168507033Y-115834132D01*
X168340249Y-116058617D01*
X168171141Y-116247990D01*
X168161303Y-116257822D01*
X167983139Y-116416173D01*
X167797720Y-116541673D01*
X167595191Y-116640061D01*
X167365699Y-116717076D01*
X167223217Y-116756560D01*
X167283038Y-116623280D01*
X167292687Y-116601579D01*
X167423062Y-116256692D01*
X167518690Y-115893761D01*
X167578768Y-115515788D01*
X167581727Y-115487632D01*
X167600224Y-115136359D01*
X167587694Y-114764966D01*
X167545009Y-114377066D01*
X167473047Y-113976271D01*
X167372679Y-113566193D01*
X167244783Y-113150446D01*
X167090231Y-112732642D01*
X166909899Y-112316394D01*
X166704661Y-111905314D01*
X166669544Y-111840027D01*
X166622197Y-111753762D01*
X166583677Y-111685708D01*
X166557249Y-111641597D01*
X166546176Y-111627157D01*
X166545787Y-111628181D01*
X166545572Y-111655467D01*
X166548524Y-111713610D01*
X166554185Y-111794955D01*
X166562092Y-111891843D01*
X166574025Y-112100704D01*
X166571046Y-112434480D01*
X166543929Y-112780964D01*
X166493953Y-113129649D01*
X166422400Y-113470031D01*
X166330550Y-113791605D01*
X166318617Y-113827367D01*
X166167694Y-114213194D01*
X165983669Y-114576866D01*
X165766979Y-114918001D01*
X165518062Y-115236215D01*
X165237354Y-115531124D01*
X164925294Y-115802346D01*
X164582318Y-116049498D01*
X164208863Y-116272195D01*
X163805367Y-116470056D01*
X163372267Y-116642695D01*
X162910000Y-116789732D01*
X162905006Y-116791135D01*
X162811148Y-116816978D01*
X162730288Y-116838290D01*
X162670908Y-116852898D01*
X162641488Y-116858624D01*
X162642711Y-116851740D01*
X162670697Y-116827231D01*
X162722128Y-116789070D01*
X162791488Y-116741562D01*
X162980606Y-116609327D01*
X163276913Y-116371260D01*
X163543830Y-116115911D01*
X163779615Y-115845567D01*
X163982528Y-115562517D01*
X164150824Y-115269047D01*
X164282764Y-114967445D01*
X164376603Y-114660000D01*
X164378210Y-114653260D01*
X164430606Y-114369006D01*
X164457307Y-114074064D01*
X164457686Y-113781656D01*
X164431120Y-113505006D01*
X164402956Y-113320013D01*
X164461478Y-113152207D01*
X164489215Y-113069266D01*
X164542102Y-112880446D01*
X164579229Y-112690701D01*
X164602766Y-112487367D01*
X164614887Y-112257780D01*
X164615538Y-112046813D01*
X164595440Y-111759998D01*
X164549082Y-111493075D01*
X164475082Y-111238818D01*
X164372055Y-110990000D01*
X164298932Y-110849337D01*
X164169414Y-110640268D01*
X164017779Y-110431703D01*
X163850524Y-110231267D01*
X163674145Y-110046586D01*
X163495138Y-109885286D01*
X163320000Y-109754994D01*
X163131767Y-109641247D01*
X162882272Y-109520603D01*
X162622354Y-109429393D01*
X162346508Y-109366104D01*
X162049226Y-109329225D01*
X161725000Y-109317246D01*
X161631231Y-109316980D01*
X161530988Y-109316042D01*
X161451404Y-109314549D01*
X161398926Y-109312631D01*
X161380000Y-109310413D01*
X161394098Y-109296414D01*
X161435527Y-109266730D01*
X161496549Y-109226628D01*
X161569349Y-109180999D01*
X161646114Y-109134733D01*
X161719029Y-109092722D01*
X161780281Y-109059858D01*
X161889607Y-109007942D01*
X162027529Y-108955381D01*
X162159908Y-108922828D01*
X162300704Y-108906158D01*
X162310081Y-108905559D01*
X162538645Y-108911776D01*
X162767706Y-108957885D01*
X162997051Y-109043791D01*
X163226469Y-109169395D01*
X163455749Y-109334601D01*
X163684678Y-109539313D01*
X163899356Y-109750000D01*
X163887976Y-109670000D01*
X163851340Y-109477289D01*
X163773902Y-109220355D01*
X163667625Y-108974936D01*
X163535819Y-108747359D01*
X163381793Y-108543956D01*
X163208857Y-108371055D01*
X163093993Y-108279405D01*
X162899098Y-108147781D01*
X162689126Y-108030413D01*
X162473560Y-107931942D01*
X162261884Y-107857012D01*
X162063580Y-107810267D01*
X161977160Y-107796004D01*
X161993580Y-107713002D01*
X161994517Y-107708002D01*
X162002354Y-107643494D01*
X162007897Y-107557951D01*
X162010000Y-107468473D01*
X162009301Y-107406691D01*
X162004271Y-107341705D01*
X161991188Y-107284990D01*
X161966374Y-107222071D01*
X161926150Y-107138473D01*
X161878877Y-107052610D01*
X161809250Y-106947499D01*
X161739969Y-106863291D01*
X161710327Y-106832161D01*
X161671055Y-106787784D01*
X161653700Y-106758510D01*
X161654127Y-106735505D01*
X161668203Y-106709936D01*
X161693111Y-106676869D01*
X161764232Y-106602426D01*
X161864741Y-106513118D01*
X161990938Y-106411758D01*
X162139120Y-106301159D01*
X162305587Y-106184134D01*
X162486637Y-106063497D01*
X162678568Y-105942059D01*
X162687932Y-105936287D01*
X162789339Y-105873603D01*
X162878123Y-105818434D01*
X162948919Y-105774137D01*
X162996362Y-105744067D01*
X163015088Y-105731579D01*
X163011121Y-105729421D01*
X162977272Y-105733698D01*
X162915933Y-105745563D01*
X162833803Y-105763448D01*
X162737582Y-105785784D01*
X162633971Y-105811002D01*
X162529669Y-105837535D01*
X162431375Y-105863813D01*
X162345790Y-105888269D01*
X162160141Y-105947896D01*
X161917290Y-106036680D01*
X161676500Y-106135727D01*
X161450295Y-106239825D01*
X161251202Y-106343762D01*
X161189012Y-106379238D01*
X161005406Y-106490783D01*
X160837498Y-106605138D01*
X160675491Y-106729697D01*
X160509590Y-106871851D01*
X160330000Y-107038993D01*
X160252074Y-107113032D01*
X160159774Y-107197095D01*
X160078258Y-107265116D01*
X159997750Y-107324656D01*
X159908473Y-107383281D01*
X159800653Y-107448553D01*
X159643544Y-107534461D01*
X159405696Y-107640840D01*
X159164816Y-107722408D01*
X158927645Y-107777353D01*
X158700923Y-107803865D01*
X158491391Y-107800136D01*
X158475876Y-107798577D01*
X158404662Y-107790332D01*
X158352585Y-107782527D01*
X158330003Y-107776668D01*
X158327247Y-107766376D01*
X158333868Y-107723830D01*
X158353108Y-107657477D01*
X158381930Y-107575269D01*
X158417298Y-107485158D01*
X158456174Y-107395096D01*
X158495522Y-107313034D01*
X158532306Y-107246925D01*
X158624890Y-107105154D01*
X158791579Y-106875844D01*
X158977744Y-106645860D01*
X159176527Y-106422766D01*
X159381070Y-106214131D01*
X159584514Y-106027518D01*
X159780000Y-105870495D01*
X159784060Y-105867507D01*
X159931032Y-105769289D01*
X160112011Y-105664217D01*
X160322158Y-105554262D01*
X160556633Y-105441396D01*
X160810598Y-105327589D01*
X161079214Y-105214811D01*
X161357640Y-105105034D01*
X161641037Y-105000228D01*
X161924567Y-104902365D01*
X162203390Y-104813414D01*
X162472667Y-104735346D01*
X162727558Y-104670133D01*
X163009653Y-104610537D01*
X163326898Y-104556422D01*
X163667115Y-104509595D01*
X164021918Y-104470968D01*
X164382924Y-104441452D01*
X164741746Y-104421959D01*
X165090000Y-104413399D01*
X165174884Y-104412854D01*
X165303423Y-104413192D01*
G37*
G36*
X129764288Y-114861298D02*
G01*
X129806336Y-114971832D01*
X129839468Y-115059092D01*
X129861897Y-115118380D01*
X129871837Y-115145000D01*
X129875035Y-115160045D01*
X129865063Y-115172875D01*
X129831086Y-115178654D01*
X129765126Y-115180000D01*
X129645973Y-115180000D01*
X129588253Y-115010000D01*
X129530534Y-114840000D01*
X129008245Y-114840000D01*
X128952882Y-115010000D01*
X128897520Y-115180000D01*
X128778760Y-115180000D01*
X128729739Y-115178428D01*
X128678677Y-115170953D01*
X128660000Y-115158533D01*
X128663673Y-115145306D01*
X128680074Y-115098039D01*
X128708093Y-115021235D01*
X128746051Y-114919387D01*
X128792270Y-114796991D01*
X128845070Y-114658542D01*
X128847434Y-114652397D01*
X129080000Y-114652397D01*
X129086920Y-114654416D01*
X129125374Y-114657290D01*
X129189994Y-114659265D01*
X129272140Y-114660000D01*
X129357056Y-114658953D01*
X129418388Y-114654901D01*
X129449302Y-114647145D01*
X129454814Y-114635000D01*
X129454155Y-114633227D01*
X129442659Y-114601032D01*
X129421231Y-114540183D01*
X129392681Y-114458679D01*
X129359819Y-114364522D01*
X129353282Y-114345829D01*
X129321768Y-114257683D01*
X129295357Y-114186970D01*
X129276653Y-114140498D01*
X129268259Y-114125075D01*
X129260897Y-114142324D01*
X129243036Y-114189595D01*
X129217809Y-114258410D01*
X129188220Y-114340350D01*
X129157273Y-114427002D01*
X129127973Y-114509949D01*
X129103325Y-114580774D01*
X129086332Y-114631062D01*
X129080000Y-114652397D01*
X128847434Y-114652397D01*
X128902772Y-114508533D01*
X129145544Y-113880000D01*
X129267772Y-113880148D01*
X129390000Y-113880297D01*
X129624697Y-114495148D01*
X129660586Y-114589196D01*
X129678051Y-114635000D01*
X129715109Y-114732187D01*
X129764288Y-114861298D01*
G37*
G36*
X135489075Y-108479659D02*
G01*
X135367878Y-108554031D01*
X135256284Y-108623561D01*
X135160349Y-108684409D01*
X135084726Y-108733591D01*
X135034069Y-108768120D01*
X135013033Y-108785013D01*
X135015361Y-108804447D01*
X135029180Y-108860106D01*
X135054123Y-108949482D01*
X135089488Y-109070322D01*
X135134576Y-109220375D01*
X135188685Y-109397389D01*
X135251115Y-109599112D01*
X135321165Y-109823292D01*
X135398133Y-110067677D01*
X135481320Y-110330015D01*
X135570025Y-110608055D01*
X135663546Y-110899543D01*
X135761183Y-111202230D01*
X135862235Y-111513862D01*
X135882349Y-111571712D01*
X135904961Y-111617489D01*
X135932122Y-111643571D01*
X135971761Y-111660580D01*
X136044624Y-111694797D01*
X136131446Y-111763577D01*
X136193885Y-111847382D01*
X136199677Y-111860086D01*
X136218916Y-111910266D01*
X136244716Y-111983735D01*
X136274267Y-112071769D01*
X136304759Y-112165641D01*
X136333381Y-112256626D01*
X136357323Y-112335998D01*
X136373774Y-112395031D01*
X136379925Y-112425000D01*
X136377861Y-112425701D01*
X136346010Y-112427821D01*
X136277792Y-112429842D01*
X136175956Y-112431742D01*
X136043250Y-112433500D01*
X135882420Y-112435094D01*
X135696214Y-112436503D01*
X135487381Y-112437704D01*
X135258667Y-112438676D01*
X135012820Y-112439397D01*
X134752587Y-112439845D01*
X134480717Y-112440000D01*
X132581433Y-112440000D01*
X132492085Y-112155000D01*
X132457816Y-112045757D01*
X132410617Y-111895182D01*
X132373648Y-111776209D01*
X132345929Y-111684731D01*
X132326482Y-111616639D01*
X132314328Y-111567826D01*
X132308489Y-111534184D01*
X132307986Y-111511604D01*
X132311840Y-111495980D01*
X132319074Y-111483203D01*
X132328708Y-111469166D01*
X132363865Y-111430282D01*
X132412348Y-111399107D01*
X132414205Y-111398481D01*
X132452949Y-111392634D01*
X132523902Y-111387559D01*
X132619996Y-111383561D01*
X132734161Y-111380940D01*
X132859327Y-111380000D01*
X133256049Y-111380000D01*
X133296618Y-111448758D01*
X133319491Y-111485525D01*
X133343394Y-111515613D01*
X133372402Y-111539347D01*
X133410876Y-111557543D01*
X133463179Y-111571015D01*
X133533672Y-111580580D01*
X133626716Y-111587052D01*
X133746675Y-111591247D01*
X133897910Y-111593980D01*
X134084782Y-111596065D01*
X134194182Y-111597050D01*
X134349926Y-111597931D01*
X134471398Y-111597717D01*
X134562195Y-111596289D01*
X134625913Y-111593529D01*
X134666149Y-111589317D01*
X134686499Y-111583536D01*
X134690559Y-111576065D01*
X134672643Y-111523170D01*
X134641884Y-111430000D01*
X134603425Y-111311716D01*
X134558508Y-111172270D01*
X134508374Y-111015612D01*
X134454266Y-110845694D01*
X134397425Y-110666467D01*
X134339094Y-110481881D01*
X134280514Y-110295889D01*
X134222928Y-110112440D01*
X134167577Y-109935486D01*
X134115702Y-109768978D01*
X134068547Y-109616867D01*
X134027352Y-109483104D01*
X133993361Y-109371641D01*
X133967814Y-109286428D01*
X133951954Y-109231416D01*
X133947022Y-109210557D01*
X133957006Y-109200251D01*
X133996096Y-109172339D01*
X134057196Y-109133887D01*
X134132457Y-109090000D01*
X134310000Y-108990000D01*
X134050000Y-108979183D01*
X134028664Y-108978252D01*
X133888031Y-108968251D01*
X133779547Y-108949413D01*
X133696659Y-108916651D01*
X133632812Y-108864880D01*
X133581452Y-108789015D01*
X133536025Y-108683970D01*
X133489975Y-108544660D01*
X133461401Y-108451835D01*
X133434296Y-108364268D01*
X133412820Y-108295397D01*
X133400010Y-108255000D01*
X133382081Y-108200000D01*
X135948149Y-108200000D01*
X135489075Y-108479659D01*
G37*
G36*
X142520000Y-115180000D02*
G01*
X142520000Y-114640000D01*
X142345000Y-114640111D01*
X142327396Y-114640184D01*
X142195480Y-114646161D01*
X142097753Y-114662491D01*
X142029953Y-114690250D01*
X141987821Y-114730518D01*
X141986787Y-114732158D01*
X141968653Y-114780792D01*
X141952818Y-114858774D01*
X141941362Y-114956013D01*
X141938262Y-114990578D01*
X141929489Y-115068074D01*
X141920276Y-115126920D01*
X141912172Y-115156486D01*
X141898230Y-115165701D01*
X141850655Y-115176098D01*
X141781177Y-115180000D01*
X141664714Y-115180000D01*
X141691479Y-115105000D01*
X141700117Y-115075104D01*
X141713517Y-114998992D01*
X141719234Y-114920000D01*
X141721408Y-114859446D01*
X141738202Y-114750621D01*
X141773639Y-114668238D01*
X141830304Y-114604961D01*
X141899215Y-114548160D01*
X141839505Y-114512888D01*
X141788356Y-114471608D01*
X141736967Y-114392129D01*
X141710826Y-114296303D01*
X141942125Y-114296303D01*
X141967242Y-114373298D01*
X142018267Y-114434363D01*
X142025702Y-114438520D01*
X142075627Y-114449722D01*
X142162732Y-114456733D01*
X142285000Y-114459363D01*
X142520000Y-114460000D01*
X142520000Y-114080000D01*
X142279091Y-114080000D01*
X142205793Y-114080174D01*
X142125890Y-114081710D01*
X142072378Y-114085997D01*
X142037146Y-114094408D01*
X142012087Y-114108315D01*
X141989091Y-114129090D01*
X141974541Y-114146033D01*
X141944148Y-114216256D01*
X141942125Y-114296303D01*
X141710826Y-114296303D01*
X141710787Y-114296161D01*
X141710669Y-114192897D01*
X141737464Y-114091525D01*
X141792027Y-114001238D01*
X141817003Y-113975032D01*
X141863396Y-113941642D01*
X141923315Y-113916665D01*
X142002028Y-113899057D01*
X142104806Y-113887773D01*
X142236917Y-113881769D01*
X142403631Y-113880000D01*
X142760000Y-113880000D01*
X142760000Y-115180000D01*
X142520000Y-115180000D01*
G37*
G36*
X128160000Y-115180000D02*
G01*
X127940712Y-115180000D01*
X127935356Y-114696925D01*
X127930000Y-114213851D01*
X127758684Y-114691925D01*
X127587368Y-115170000D01*
X127390694Y-115170000D01*
X127220347Y-114695054D01*
X127050000Y-114220109D01*
X127044645Y-114700054D01*
X127039289Y-115180000D01*
X126820000Y-115180000D01*
X126820000Y-113880000D01*
X127135364Y-113880000D01*
X127297682Y-114351806D01*
X127332839Y-114454430D01*
X127373913Y-114575529D01*
X127408930Y-114680142D01*
X127436126Y-114762943D01*
X127453738Y-114818607D01*
X127460000Y-114841806D01*
X127460257Y-114844952D01*
X127477035Y-114860000D01*
X127486098Y-114845817D01*
X127506910Y-114798479D01*
X127537070Y-114722726D01*
X127574648Y-114623560D01*
X127617711Y-114505985D01*
X127664329Y-114375000D01*
X127834588Y-113890000D01*
X128160000Y-113878382D01*
X128160000Y-115180000D01*
G37*
G36*
X147279823Y-109903629D02*
G01*
X147425968Y-109904083D01*
X147546077Y-109904819D01*
X147636659Y-109905826D01*
X147694223Y-109907094D01*
X147715278Y-109908610D01*
X147715768Y-109909427D01*
X147725245Y-109934951D01*
X147744179Y-109990756D01*
X147770388Y-110070041D01*
X147801689Y-110166003D01*
X147835898Y-110271842D01*
X147870834Y-110380756D01*
X147904313Y-110485944D01*
X147934152Y-110580604D01*
X147958168Y-110657936D01*
X147974179Y-110711138D01*
X147980000Y-110733408D01*
X147979995Y-110733429D01*
X147959938Y-110734577D01*
X147903389Y-110735497D01*
X147813798Y-110736185D01*
X147694617Y-110736636D01*
X147549294Y-110736845D01*
X147381281Y-110736806D01*
X147194029Y-110736515D01*
X146990986Y-110735966D01*
X146775605Y-110735156D01*
X145571209Y-110730000D01*
X145438553Y-110320000D01*
X145305896Y-109910000D01*
X146506124Y-109904842D01*
X146720075Y-109904066D01*
X146923386Y-109903610D01*
X147111132Y-109903467D01*
X147279823Y-109903629D01*
G37*
G36*
X131240000Y-115180000D02*
G01*
X130300000Y-115180000D01*
X130300000Y-114980000D01*
X131020000Y-114980000D01*
X131020000Y-114600000D01*
X130360000Y-114600000D01*
X130360000Y-114420000D01*
X131020000Y-114420000D01*
X131020000Y-114080000D01*
X130320000Y-114080000D01*
X130320000Y-113880000D01*
X131240000Y-113880000D01*
X131240000Y-115180000D01*
G37*
G36*
X132820000Y-114080000D02*
G01*
X132400000Y-114080000D01*
X132400000Y-115180000D01*
X132180000Y-115180000D01*
X132180000Y-114080000D01*
X131760000Y-114080000D01*
X131760000Y-113880000D01*
X132820000Y-113880000D01*
X132820000Y-114080000D01*
G37*
G36*
X150684913Y-108202834D02*
G01*
X150999786Y-108203228D01*
X151295085Y-108203897D01*
X151560673Y-108204841D01*
X152741346Y-108210000D01*
X152290212Y-108497656D01*
X152171517Y-108573704D01*
X152062411Y-108644320D01*
X151969036Y-108705485D01*
X151895911Y-108754216D01*
X151847556Y-108787531D01*
X151828487Y-108802448D01*
X151828360Y-108803861D01*
X151835020Y-108832724D01*
X151853018Y-108895626D01*
X151881326Y-108989304D01*
X151918918Y-109110491D01*
X151964765Y-109255922D01*
X152017839Y-109422333D01*
X152077113Y-109606458D01*
X152141557Y-109805033D01*
X152210146Y-110014791D01*
X152212269Y-110021262D01*
X152283406Y-110238026D01*
X152352619Y-110448938D01*
X152418590Y-110649980D01*
X152479999Y-110837132D01*
X152535529Y-111006375D01*
X152583860Y-111153690D01*
X152623674Y-111275056D01*
X152653652Y-111366456D01*
X152672474Y-111423870D01*
X152689093Y-111474252D01*
X152715960Y-111551355D01*
X152737320Y-111601208D01*
X152757467Y-111631126D01*
X152780694Y-111648427D01*
X152811296Y-111660427D01*
X152841201Y-111672964D01*
X152915552Y-111722781D01*
X152981300Y-111789183D01*
X153023546Y-111858280D01*
X153025758Y-111864168D01*
X153041685Y-111909706D01*
X153066221Y-111982510D01*
X153096446Y-112073851D01*
X153129443Y-112175000D01*
X153215279Y-112440000D01*
X149387127Y-112440000D01*
X149243564Y-111994222D01*
X149219422Y-111918799D01*
X149181055Y-111796869D01*
X149148195Y-111689848D01*
X149122576Y-111603511D01*
X149105933Y-111543636D01*
X149100000Y-111516000D01*
X149101101Y-111508969D01*
X149122155Y-111472476D01*
X149161535Y-111431777D01*
X149223070Y-111380000D01*
X149626535Y-111380000D01*
X150030000Y-111380001D01*
X150083446Y-111446984D01*
X150084918Y-111448827D01*
X150113970Y-111483603D01*
X150142725Y-111511620D01*
X150175660Y-111533608D01*
X150217254Y-111550295D01*
X150271984Y-111562413D01*
X150344326Y-111570691D01*
X150438759Y-111575858D01*
X150559759Y-111578645D01*
X150711804Y-111579783D01*
X150899371Y-111580000D01*
X150909767Y-111579999D01*
X151082086Y-111579866D01*
X151218648Y-111579331D01*
X151323479Y-111578164D01*
X151400604Y-111576135D01*
X151454048Y-111573013D01*
X151487838Y-111568569D01*
X151505999Y-111562572D01*
X151512556Y-111554792D01*
X151511535Y-111545000D01*
X151510873Y-111542944D01*
X151499625Y-111508784D01*
X151478135Y-111444018D01*
X151448531Y-111355037D01*
X151412937Y-111248234D01*
X151373481Y-111130000D01*
X151246589Y-110750000D01*
X150968295Y-110744249D01*
X150940486Y-110743732D01*
X150837617Y-110742822D01*
X150748479Y-110743534D01*
X150681823Y-110745732D01*
X150646399Y-110749279D01*
X150601796Y-110767545D01*
X150555729Y-110818419D01*
X150540000Y-110894503D01*
X150540000Y-110966149D01*
X150145000Y-110952231D01*
X150138521Y-110952000D01*
X150011545Y-110946403D01*
X149893735Y-110939320D01*
X149792796Y-110931356D01*
X149716435Y-110923114D01*
X149672357Y-110915198D01*
X149660884Y-110911683D01*
X149616032Y-110894571D01*
X149578050Y-110871262D01*
X149544335Y-110837161D01*
X149512284Y-110787674D01*
X149479293Y-110718208D01*
X149442758Y-110624168D01*
X149400077Y-110500962D01*
X149348645Y-110343994D01*
X149205167Y-109900000D01*
X150082584Y-109900000D01*
X150283093Y-109899826D01*
X150466369Y-109899187D01*
X150615425Y-109897991D01*
X150733276Y-109896151D01*
X150822938Y-109893576D01*
X150887426Y-109890180D01*
X150929756Y-109885872D01*
X150952942Y-109880564D01*
X150960000Y-109874167D01*
X150959314Y-109868932D01*
X150949464Y-109830662D01*
X150929742Y-109764672D01*
X150902477Y-109678579D01*
X150870000Y-109579999D01*
X150858322Y-109545059D01*
X150827507Y-109451591D01*
X150802648Y-109374325D01*
X150786046Y-109320485D01*
X150780000Y-109297298D01*
X150793501Y-109283601D01*
X150834823Y-109253019D01*
X150897302Y-109210725D01*
X150974154Y-109161465D01*
X151168307Y-109040000D01*
X150308604Y-109040000D01*
X150250955Y-109039996D01*
X150041093Y-109040043D01*
X149867055Y-109040566D01*
X149725491Y-109042073D01*
X149613051Y-109045072D01*
X149526385Y-109050068D01*
X149462143Y-109057569D01*
X149416975Y-109068082D01*
X149387531Y-109082114D01*
X149370462Y-109100172D01*
X149362417Y-109122763D01*
X149360046Y-109150394D01*
X149360000Y-109183572D01*
X149360000Y-109264876D01*
X148965000Y-109250868D01*
X148957598Y-109250603D01*
X148831106Y-109245095D01*
X148714223Y-109238305D01*
X148614544Y-109230801D01*
X148539663Y-109223149D01*
X148497176Y-109215916D01*
X148472121Y-109208410D01*
X148428301Y-109191910D01*
X148391724Y-109169865D01*
X148359655Y-109137612D01*
X148329360Y-109090487D01*
X148298105Y-109023827D01*
X148263155Y-108932968D01*
X148221776Y-108813247D01*
X148171234Y-108660000D01*
X148024258Y-108210000D01*
X149202129Y-108204841D01*
X149432462Y-108204000D01*
X149724242Y-108203296D01*
X150037003Y-108202868D01*
X150360606Y-108202714D01*
X150684913Y-108202834D01*
G37*
G36*
X158420000Y-109209700D02*
G01*
X158490793Y-109215558D01*
X158632273Y-109228646D01*
X158798057Y-109245232D01*
X158978980Y-109264302D01*
X159165882Y-109284841D01*
X159349597Y-109305835D01*
X159520964Y-109326269D01*
X159670819Y-109345128D01*
X159790000Y-109361398D01*
X159874150Y-109374090D01*
X160002187Y-109394747D01*
X160137599Y-109417858D01*
X160273691Y-109442167D01*
X160403768Y-109466417D01*
X160521133Y-109489353D01*
X160619090Y-109509718D01*
X160690945Y-109526257D01*
X160730000Y-109537714D01*
X160750821Y-109549021D01*
X160743025Y-109558395D01*
X160700000Y-109569415D01*
X160687559Y-109572184D01*
X160584755Y-109599462D01*
X160451291Y-109640657D01*
X160292334Y-109693845D01*
X160113055Y-109757098D01*
X159918619Y-109828491D01*
X159714197Y-109906099D01*
X159504955Y-109987995D01*
X159296063Y-110072254D01*
X159092689Y-110156949D01*
X158900000Y-110240155D01*
X158737152Y-110312347D01*
X158545169Y-110399094D01*
X158383589Y-110474685D01*
X158248551Y-110541310D01*
X158136197Y-110601155D01*
X158042667Y-110656409D01*
X157964102Y-110709259D01*
X157896641Y-110761894D01*
X157836426Y-110816500D01*
X157779597Y-110875266D01*
X157756203Y-110901914D01*
X157679737Y-111003123D01*
X157606913Y-111118594D01*
X157543668Y-111237473D01*
X157495937Y-111348905D01*
X157469656Y-111442036D01*
X157455042Y-111528536D01*
X157407783Y-111469268D01*
X157399546Y-111458314D01*
X157360865Y-111397754D01*
X157312114Y-111311683D01*
X157257756Y-111208935D01*
X157202259Y-111098347D01*
X157150085Y-110988754D01*
X157105702Y-110888995D01*
X157073573Y-110807903D01*
X157034373Y-110684054D01*
X156994422Y-110483167D01*
X156989697Y-110299575D01*
X157020135Y-110133807D01*
X157085674Y-109986391D01*
X157186251Y-109857857D01*
X157188526Y-109855569D01*
X157364490Y-109695391D01*
X157558346Y-109552081D01*
X157777444Y-109420744D01*
X158029133Y-109296485D01*
X158250000Y-109196559D01*
X158420000Y-109209700D01*
G37*
G36*
X150000000Y-115180000D02*
G01*
X149060000Y-115180000D01*
X149060000Y-114980000D01*
X149780000Y-114980000D01*
X149780000Y-114600000D01*
X149120000Y-114600000D01*
X149120000Y-114420990D01*
X149770000Y-114410000D01*
X149781618Y-114080000D01*
X149060000Y-114080000D01*
X149060000Y-113880000D01*
X150000000Y-113880000D01*
X150000000Y-115180000D01*
G37*
G36*
X141162056Y-114917457D02*
G01*
X141202225Y-115022752D01*
X141232978Y-115103649D01*
X141252669Y-115155836D01*
X141259655Y-115175000D01*
X141247239Y-115177237D01*
X141204535Y-115179231D01*
X141141858Y-115180000D01*
X141023716Y-115180000D01*
X140964142Y-115015000D01*
X140904569Y-114850000D01*
X140645940Y-114844444D01*
X140387310Y-114838889D01*
X140330822Y-115001159D01*
X140320467Y-115029946D01*
X140292184Y-115099973D01*
X140267138Y-115150751D01*
X140249784Y-115172850D01*
X140235622Y-115175658D01*
X140187462Y-115177935D01*
X140124174Y-115176135D01*
X140023115Y-115170000D01*
X140224154Y-114646978D01*
X140460000Y-114646978D01*
X140466291Y-114650304D01*
X140503827Y-114655290D01*
X140567664Y-114658722D01*
X140649096Y-114660000D01*
X140838191Y-114660000D01*
X140744135Y-114390960D01*
X140730086Y-114351300D01*
X140697142Y-114262557D01*
X140669115Y-114192902D01*
X140648612Y-114148611D01*
X140638240Y-114135960D01*
X140634269Y-114143652D01*
X140618631Y-114182725D01*
X140595065Y-114246309D01*
X140566655Y-114325554D01*
X140536490Y-114411611D01*
X140507656Y-114495631D01*
X140483238Y-114568765D01*
X140466324Y-114622163D01*
X140460000Y-114646978D01*
X140224154Y-114646978D01*
X140269118Y-114530000D01*
X140515122Y-113890000D01*
X140768013Y-113890000D01*
X141013661Y-114530000D01*
X141060049Y-114650930D01*
X141063523Y-114660000D01*
X141114115Y-114792079D01*
X141162056Y-114917457D01*
G37*
G36*
X145429727Y-114643037D02*
G01*
X145391707Y-114804586D01*
X145322881Y-114941959D01*
X145224064Y-115053814D01*
X145096071Y-115138806D01*
X145079716Y-115146674D01*
X144936633Y-115192539D01*
X144788992Y-115202868D01*
X144644251Y-115178793D01*
X144509870Y-115121450D01*
X144393307Y-115031972D01*
X144371007Y-115008378D01*
X144285334Y-114884516D01*
X144229298Y-114742839D01*
X144202900Y-114590789D01*
X144204586Y-114510000D01*
X144440307Y-114510000D01*
X144441408Y-114563719D01*
X144459499Y-114708104D01*
X144500903Y-114822743D01*
X144567056Y-114910690D01*
X144659400Y-114975000D01*
X144736330Y-115005179D01*
X144848401Y-115016619D01*
X144959405Y-114988330D01*
X144971980Y-114982633D01*
X145071371Y-114914793D01*
X145142525Y-114818698D01*
X145185362Y-114694492D01*
X145199805Y-114542320D01*
X145197362Y-114456155D01*
X145181480Y-114342640D01*
X145148395Y-114250800D01*
X145095288Y-114170606D01*
X145081768Y-114155152D01*
X144992776Y-114086162D01*
X144888900Y-114049162D01*
X144778633Y-114044717D01*
X144670467Y-114073395D01*
X144572898Y-114135762D01*
X144532536Y-114182163D01*
X144484024Y-114275458D01*
X144451942Y-114388515D01*
X144440307Y-114510000D01*
X144204586Y-114510000D01*
X144206135Y-114435809D01*
X144239002Y-114285341D01*
X144301498Y-114146828D01*
X144393621Y-114027713D01*
X144477790Y-113958426D01*
X144607731Y-113892617D01*
X144749491Y-113859485D01*
X144895773Y-113859642D01*
X145039277Y-113893700D01*
X145172707Y-113962274D01*
X145234506Y-114011968D01*
X145326251Y-114123424D01*
X145392088Y-114258972D01*
X145429450Y-114412600D01*
X145434398Y-114542320D01*
X145435771Y-114578300D01*
X145429727Y-114643037D01*
G37*
%TD*%
M02*
