%TF.GenerationSoftware,KiCad,Pcbnew,(6.0.11)*%
%TF.CreationDate,2023-05-27T10:47:30+02:00*%
%TF.ProjectId,dclink,64636c69-6e6b-42e6-9b69-6361645f7063,V0*%
%TF.SameCoordinates,Original*%
%TF.FileFunction,Legend,Top*%
%TF.FilePolarity,Positive*%
%FSLAX46Y46*%
G04 Gerber Fmt 4.6, Leading zero omitted, Abs format (unit mm)*
G04 Created by KiCad (PCBNEW (6.0.11)) date 2023-05-27 10:47:30*
%MOMM*%
%LPD*%
G01*
G04 APERTURE LIST*
%ADD10C,0.150000*%
%ADD11C,0.200000*%
%ADD12C,0.120000*%
%ADD13C,12.708000*%
%ADD14C,12.200000*%
%ADD15O,4.500000X4.000000*%
G04 APERTURE END LIST*
D10*
X145280952Y-109852380D02*
X145280952Y-110566666D01*
X145233333Y-110709523D01*
X145138095Y-110804761D01*
X144995238Y-110852380D01*
X144900000Y-110852380D01*
X146233333Y-110852380D02*
X145757142Y-110852380D01*
X145757142Y-109852380D01*
X147138095Y-110757142D02*
X147090476Y-110804761D01*
X146947619Y-110852380D01*
X146852380Y-110852380D01*
X146709523Y-110804761D01*
X146614285Y-110709523D01*
X146566666Y-110614285D01*
X146519047Y-110423809D01*
X146519047Y-110280952D01*
X146566666Y-110090476D01*
X146614285Y-109995238D01*
X146709523Y-109900000D01*
X146852380Y-109852380D01*
X146947619Y-109852380D01*
X147090476Y-109900000D01*
X147138095Y-109947619D01*
X147852380Y-109852380D02*
X147852380Y-110566666D01*
X147804761Y-110709523D01*
X147709523Y-110804761D01*
X147566666Y-110852380D01*
X147471428Y-110852380D01*
X148804761Y-110852380D02*
X148328571Y-110852380D01*
X148328571Y-109852380D01*
X149709523Y-110757142D02*
X149661904Y-110804761D01*
X149519047Y-110852380D01*
X149423809Y-110852380D01*
X149280952Y-110804761D01*
X149185714Y-110709523D01*
X149138095Y-110614285D01*
X149090476Y-110423809D01*
X149090476Y-110280952D01*
X149138095Y-110090476D01*
X149185714Y-109995238D01*
X149280952Y-109900000D01*
X149423809Y-109852380D01*
X149519047Y-109852380D01*
X149661904Y-109900000D01*
X149709523Y-109947619D01*
X150423809Y-109852380D02*
X150423809Y-110566666D01*
X150376190Y-110709523D01*
X150280952Y-110804761D01*
X150138095Y-110852380D01*
X150042857Y-110852380D01*
X151376190Y-110852380D02*
X150900000Y-110852380D01*
X150900000Y-109852380D01*
X152280952Y-110757142D02*
X152233333Y-110804761D01*
X152090476Y-110852380D01*
X151995238Y-110852380D01*
X151852380Y-110804761D01*
X151757142Y-110709523D01*
X151709523Y-110614285D01*
X151661904Y-110423809D01*
X151661904Y-110280952D01*
X151709523Y-110090476D01*
X151757142Y-109995238D01*
X151852380Y-109900000D01*
X151995238Y-109852380D01*
X152090476Y-109852380D01*
X152233333Y-109900000D01*
X152280952Y-109947619D01*
X152995238Y-109852380D02*
X152995238Y-110566666D01*
X152947619Y-110709523D01*
X152852380Y-110804761D01*
X152709523Y-110852380D01*
X152614285Y-110852380D01*
X153947619Y-110852380D02*
X153471428Y-110852380D01*
X153471428Y-109852380D01*
X154852380Y-110757142D02*
X154804761Y-110804761D01*
X154661904Y-110852380D01*
X154566666Y-110852380D01*
X154423809Y-110804761D01*
X154328571Y-110709523D01*
X154280952Y-110614285D01*
X154233333Y-110423809D01*
X154233333Y-110280952D01*
X154280952Y-110090476D01*
X154328571Y-109995238D01*
X154423809Y-109900000D01*
X154566666Y-109852380D01*
X154661904Y-109852380D01*
X154804761Y-109900000D01*
X154852380Y-109947619D01*
D11*
X142078571Y-124750000D02*
X141935714Y-124678571D01*
X141721428Y-124678571D01*
X141507142Y-124750000D01*
X141364285Y-124892857D01*
X141292857Y-125035714D01*
X141221428Y-125321428D01*
X141221428Y-125535714D01*
X141292857Y-125821428D01*
X141364285Y-125964285D01*
X141507142Y-126107142D01*
X141721428Y-126178571D01*
X141864285Y-126178571D01*
X142078571Y-126107142D01*
X142150000Y-126035714D01*
X142150000Y-125535714D01*
X141864285Y-125535714D01*
X143364285Y-126107142D02*
X143221428Y-126178571D01*
X142935714Y-126178571D01*
X142792857Y-126107142D01*
X142721428Y-125964285D01*
X142721428Y-125392857D01*
X142792857Y-125250000D01*
X142935714Y-125178571D01*
X143221428Y-125178571D01*
X143364285Y-125250000D01*
X143435714Y-125392857D01*
X143435714Y-125535714D01*
X142721428Y-125678571D01*
X144078571Y-125178571D02*
X144078571Y-126178571D01*
X144078571Y-125321428D02*
X144150000Y-125250000D01*
X144292857Y-125178571D01*
X144507142Y-125178571D01*
X144650000Y-125250000D01*
X144721428Y-125392857D01*
X144721428Y-126178571D01*
X146007142Y-126107142D02*
X145864285Y-126178571D01*
X145578571Y-126178571D01*
X145435714Y-126107142D01*
X145364285Y-125964285D01*
X145364285Y-125392857D01*
X145435714Y-125250000D01*
X145578571Y-125178571D01*
X145864285Y-125178571D01*
X146007142Y-125250000D01*
X146078571Y-125392857D01*
X146078571Y-125535714D01*
X145364285Y-125678571D01*
X146721428Y-126178571D02*
X146721428Y-125178571D01*
X146721428Y-125464285D02*
X146792857Y-125321428D01*
X146864285Y-125250000D01*
X147007142Y-125178571D01*
X147150000Y-125178571D01*
X148292857Y-126178571D02*
X148292857Y-125392857D01*
X148221428Y-125250000D01*
X148078571Y-125178571D01*
X147792857Y-125178571D01*
X147650000Y-125250000D01*
X148292857Y-126107142D02*
X148150000Y-126178571D01*
X147792857Y-126178571D01*
X147650000Y-126107142D01*
X147578571Y-125964285D01*
X147578571Y-125821428D01*
X147650000Y-125678571D01*
X147792857Y-125607142D01*
X148150000Y-125607142D01*
X148292857Y-125535714D01*
X149221428Y-126178571D02*
X149078571Y-126107142D01*
X149007142Y-125964285D01*
X149007142Y-124678571D01*
X150935714Y-126178571D02*
X150935714Y-124678571D01*
X151792857Y-126178571D02*
X151150000Y-125321428D01*
X151792857Y-124678571D02*
X150935714Y-125535714D01*
X153007142Y-126107142D02*
X152864285Y-126178571D01*
X152578571Y-126178571D01*
X152435714Y-126107142D01*
X152364285Y-125964285D01*
X152364285Y-125392857D01*
X152435714Y-125250000D01*
X152578571Y-125178571D01*
X152864285Y-125178571D01*
X153007142Y-125250000D01*
X153078571Y-125392857D01*
X153078571Y-125535714D01*
X152364285Y-125678571D01*
X153721428Y-125178571D02*
X153721428Y-126178571D01*
X153721428Y-125321428D02*
X153792857Y-125250000D01*
X153935714Y-125178571D01*
X154150000Y-125178571D01*
X154292857Y-125250000D01*
X154364285Y-125392857D01*
X154364285Y-126178571D01*
X155292857Y-126178571D02*
X155150000Y-126107142D01*
X155078571Y-126035714D01*
X155007142Y-125892857D01*
X155007142Y-125464285D01*
X155078571Y-125321428D01*
X155150000Y-125250000D01*
X155292857Y-125178571D01*
X155507142Y-125178571D01*
X155650000Y-125250000D01*
X155721428Y-125321428D01*
X155792857Y-125464285D01*
X155792857Y-125892857D01*
X155721428Y-126035714D01*
X155650000Y-126107142D01*
X155507142Y-126178571D01*
X155292857Y-126178571D01*
X156435714Y-126178571D02*
X156435714Y-124678571D01*
X156435714Y-125250000D02*
X156578571Y-125178571D01*
X156864285Y-125178571D01*
X157007142Y-125250000D01*
X157078571Y-125321428D01*
X157150000Y-125464285D01*
X157150000Y-125892857D01*
X157078571Y-126035714D01*
X157007142Y-126107142D01*
X156864285Y-126178571D01*
X156578571Y-126178571D01*
X156435714Y-126107142D01*
X157792857Y-126178571D02*
X157792857Y-125178571D01*
X157792857Y-124678571D02*
X157721428Y-124750000D01*
X157792857Y-124821428D01*
X157864285Y-124750000D01*
X157792857Y-124678571D01*
X157792857Y-124821428D01*
X158507142Y-126035714D02*
X158578571Y-126107142D01*
X158507142Y-126178571D01*
X158435714Y-126107142D01*
X158507142Y-126035714D01*
X158507142Y-126178571D01*
X158507142Y-125607142D02*
X158435714Y-124750000D01*
X158507142Y-124678571D01*
X158578571Y-124750000D01*
X158507142Y-125607142D01*
X158507142Y-124678571D01*
X143578571Y-98978571D02*
X143578571Y-97478571D01*
X143578571Y-98192857D02*
X144435714Y-98192857D01*
X144435714Y-98978571D02*
X144435714Y-97478571D01*
X145721428Y-98907142D02*
X145578571Y-98978571D01*
X145292857Y-98978571D01*
X145150000Y-98907142D01*
X145078571Y-98764285D01*
X145078571Y-98192857D01*
X145150000Y-98050000D01*
X145292857Y-97978571D01*
X145578571Y-97978571D01*
X145721428Y-98050000D01*
X145792857Y-98192857D01*
X145792857Y-98335714D01*
X145078571Y-98478571D01*
X146650000Y-98978571D02*
X146507142Y-98907142D01*
X146435714Y-98764285D01*
X146435714Y-97478571D01*
X147435714Y-98978571D02*
X147292857Y-98907142D01*
X147221428Y-98764285D01*
X147221428Y-97478571D01*
X148221428Y-98978571D02*
X148078571Y-98907142D01*
X148007142Y-98835714D01*
X147935714Y-98692857D01*
X147935714Y-98264285D01*
X148007142Y-98121428D01*
X148078571Y-98050000D01*
X148221428Y-97978571D01*
X148435714Y-97978571D01*
X148578571Y-98050000D01*
X148650000Y-98121428D01*
X148721428Y-98264285D01*
X148721428Y-98692857D01*
X148650000Y-98835714D01*
X148578571Y-98907142D01*
X148435714Y-98978571D01*
X148221428Y-98978571D01*
X150292857Y-97978571D02*
X150864285Y-97978571D01*
X150507142Y-97478571D02*
X150507142Y-98764285D01*
X150578571Y-98907142D01*
X150721428Y-98978571D01*
X150864285Y-98978571D01*
X151364285Y-98978571D02*
X151364285Y-97478571D01*
X152007142Y-98978571D02*
X152007142Y-98192857D01*
X151935714Y-98050000D01*
X151792857Y-97978571D01*
X151578571Y-97978571D01*
X151435714Y-98050000D01*
X151364285Y-98121428D01*
X153292857Y-98907142D02*
X153150000Y-98978571D01*
X152864285Y-98978571D01*
X152721428Y-98907142D01*
X152650000Y-98764285D01*
X152650000Y-98192857D01*
X152721428Y-98050000D01*
X152864285Y-97978571D01*
X153150000Y-97978571D01*
X153292857Y-98050000D01*
X153364285Y-98192857D01*
X153364285Y-98335714D01*
X152650000Y-98478571D01*
X154007142Y-98978571D02*
X154007142Y-97978571D01*
X154007142Y-98264285D02*
X154078571Y-98121428D01*
X154150000Y-98050000D01*
X154292857Y-97978571D01*
X154435714Y-97978571D01*
X155507142Y-98907142D02*
X155364285Y-98978571D01*
X155078571Y-98978571D01*
X154935714Y-98907142D01*
X154864285Y-98764285D01*
X154864285Y-98192857D01*
X154935714Y-98050000D01*
X155078571Y-97978571D01*
X155364285Y-97978571D01*
X155507142Y-98050000D01*
X155578571Y-98192857D01*
X155578571Y-98335714D01*
X154864285Y-98478571D01*
X156221428Y-98835714D02*
X156292857Y-98907142D01*
X156221428Y-98978571D01*
X156150000Y-98907142D01*
X156221428Y-98835714D01*
X156221428Y-98978571D01*
X156221428Y-98407142D02*
X156150000Y-97550000D01*
X156221428Y-97478571D01*
X156292857Y-97550000D01*
X156221428Y-98407142D01*
X156221428Y-97478571D01*
D12*
X146154761Y-120518095D02*
X146192857Y-120480000D01*
X146269047Y-120441904D01*
X146459523Y-120441904D01*
X146535714Y-120480000D01*
X146573809Y-120518095D01*
X146611904Y-120594285D01*
X146611904Y-120670476D01*
X146573809Y-120784761D01*
X146116666Y-121241904D01*
X146611904Y-121241904D01*
X147373809Y-121241904D02*
X146916666Y-121241904D01*
X147145238Y-121241904D02*
X147145238Y-120441904D01*
X147069047Y-120556190D01*
X146992857Y-120632380D01*
X146916666Y-120670476D01*
X147716666Y-121165714D02*
X147754761Y-121203809D01*
X147716666Y-121241904D01*
X147678571Y-121203809D01*
X147716666Y-121165714D01*
X147716666Y-121241904D01*
X148478571Y-120441904D02*
X148097619Y-120441904D01*
X148059523Y-120822857D01*
X148097619Y-120784761D01*
X148173809Y-120746666D01*
X148364285Y-120746666D01*
X148440476Y-120784761D01*
X148478571Y-120822857D01*
X148516666Y-120899047D01*
X148516666Y-121089523D01*
X148478571Y-121165714D01*
X148440476Y-121203809D01*
X148364285Y-121241904D01*
X148173809Y-121241904D01*
X148097619Y-121203809D01*
X148059523Y-121165714D01*
X149011904Y-120441904D02*
X149088095Y-120441904D01*
X149164285Y-120480000D01*
X149202380Y-120518095D01*
X149240476Y-120594285D01*
X149278571Y-120746666D01*
X149278571Y-120937142D01*
X149240476Y-121089523D01*
X149202380Y-121165714D01*
X149164285Y-121203809D01*
X149088095Y-121241904D01*
X149011904Y-121241904D01*
X148935714Y-121203809D01*
X148897619Y-121165714D01*
X148859523Y-121089523D01*
X148821428Y-120937142D01*
X148821428Y-120746666D01*
X148859523Y-120594285D01*
X148897619Y-120518095D01*
X148935714Y-120480000D01*
X149011904Y-120441904D01*
X149773809Y-120441904D02*
X149850000Y-120441904D01*
X149926190Y-120480000D01*
X149964285Y-120518095D01*
X150002380Y-120594285D01*
X150040476Y-120746666D01*
X150040476Y-120937142D01*
X150002380Y-121089523D01*
X149964285Y-121165714D01*
X149926190Y-121203809D01*
X149850000Y-121241904D01*
X149773809Y-121241904D01*
X149697619Y-121203809D01*
X149659523Y-121165714D01*
X149621428Y-121089523D01*
X149583333Y-120937142D01*
X149583333Y-120746666D01*
X149621428Y-120594285D01*
X149659523Y-120518095D01*
X149697619Y-120480000D01*
X149773809Y-120441904D01*
X150535714Y-120441904D02*
X150611904Y-120441904D01*
X150688095Y-120480000D01*
X150726190Y-120518095D01*
X150764285Y-120594285D01*
X150802380Y-120746666D01*
X150802380Y-120937142D01*
X150764285Y-121089523D01*
X150726190Y-121165714D01*
X150688095Y-121203809D01*
X150611904Y-121241904D01*
X150535714Y-121241904D01*
X150459523Y-121203809D01*
X150421428Y-121165714D01*
X150383333Y-121089523D01*
X150345238Y-120937142D01*
X150345238Y-120746666D01*
X150383333Y-120594285D01*
X150421428Y-120518095D01*
X150459523Y-120480000D01*
X150535714Y-120441904D01*
X151754761Y-121241904D02*
X151754761Y-120708571D01*
X151754761Y-120784761D02*
X151792857Y-120746666D01*
X151869047Y-120708571D01*
X151983333Y-120708571D01*
X152059523Y-120746666D01*
X152097619Y-120822857D01*
X152097619Y-121241904D01*
X152097619Y-120822857D02*
X152135714Y-120746666D01*
X152211904Y-120708571D01*
X152326190Y-120708571D01*
X152402380Y-120746666D01*
X152440476Y-120822857D01*
X152440476Y-121241904D01*
X152821428Y-121241904D02*
X152821428Y-120708571D01*
X152821428Y-120784761D02*
X152859523Y-120746666D01*
X152935714Y-120708571D01*
X153050000Y-120708571D01*
X153126190Y-120746666D01*
X153164285Y-120822857D01*
X153164285Y-121241904D01*
X153164285Y-120822857D02*
X153202380Y-120746666D01*
X153278571Y-120708571D01*
X153392857Y-120708571D01*
X153469047Y-120746666D01*
X153507142Y-120822857D01*
X153507142Y-121241904D01*
X139100000Y-121300000D02*
X139100000Y-121213580D01*
X160600000Y-121300000D02*
X160600000Y-121213580D01*
X139100000Y-121800000D02*
X160600000Y-121800000D01*
X139100000Y-121800000D02*
X160600000Y-121800000D01*
X139100000Y-121800000D02*
X140226504Y-122386421D01*
X139100000Y-121800000D02*
X140226504Y-121213579D01*
X160600000Y-121800000D02*
X159473496Y-121213579D01*
X160600000Y-121800000D02*
X159473496Y-122386421D01*
D10*
%TO.C, *%
D12*
X178600000Y-129050000D02*
X121100000Y-129050000D01*
X121100000Y-129050000D02*
X121100000Y-94550000D01*
X121100000Y-94550000D02*
X178600000Y-94550000D01*
X178600000Y-94550000D02*
X178600000Y-129050000D01*
%TD*%
%LPC*%
D13*
%TO.C, *%
X129350000Y-86000000D03*
D14*
X170350000Y-86000000D03*
%TD*%
D15*
%TO.C, *%
X123850000Y-101800000D03*
X175850000Y-101800000D03*
X123850000Y-121800000D03*
X175850000Y-121800000D03*
%TD*%
M02*
