%TF.GenerationSoftware,KiCad,Pcbnew,(6.0.11)*%
%TF.CreationDate,2023-05-27T10:47:30+02:00*%
%TF.ProjectId,dclink,64636c69-6e6b-42e6-9b69-6361645f7063,V0*%
%TF.SameCoordinates,Original*%
%TF.FileFunction,Copper,L1,Top*%
%TF.FilePolarity,Positive*%
%FSLAX46Y46*%
G04 Gerber Fmt 4.6, Leading zero omitted, Abs format (unit mm)*
G04 Created by KiCad (PCBNEW (6.0.11)) date 2023-05-27 10:47:30*
%MOMM*%
%LPD*%
G01*
G04 APERTURE LIST*
%TA.AperFunction,ComponentPad*%
%ADD10C,12.200000*%
%TD*%
%TA.AperFunction,ComponentPad*%
%ADD11O,4.500000X4.000000*%
%TD*%
%TA.AperFunction,ViaPad*%
%ADD12C,0.800000*%
%TD*%
G04 APERTURE END LIST*
D10*
%TO.P, ,1*%
%TO.N,GND*%
X129350000Y-86000000D03*
%TO.P, ,2*%
%TO.N,VDC*%
X170350000Y-86000000D03*
%TD*%
D11*
%TO.P, ,4,GND*%
%TO.N,GND*%
X123850000Y-101800000D03*
%TO.P, ,3,SUP*%
%TO.N,VDC*%
X175850000Y-101800000D03*
%TO.P, ,2,GND*%
%TO.N,GND*%
X123850000Y-121800000D03*
%TO.P, ,1,GND*%
%TO.N,VDC*%
X175850000Y-121800000D03*
%TD*%
D12*
%TO.N,GND*%
X137175000Y-116724995D03*
X137175000Y-114260710D03*
X134875000Y-125358310D03*
X130375000Y-113031390D03*
X137175000Y-106867855D03*
X130375000Y-103169854D03*
X134875000Y-117962158D03*
X130375000Y-100704470D03*
X134875000Y-122892926D03*
X134875000Y-110566006D03*
X125875000Y-110577542D03*
X128125000Y-119189280D03*
X130375000Y-105635238D03*
X123675000Y-114272246D03*
X130375000Y-125358310D03*
X128125000Y-106867855D03*
X134875000Y-100704470D03*
X137175000Y-109332140D03*
X137175000Y-111796425D03*
X130375000Y-122892926D03*
X132625000Y-121653565D03*
X134875000Y-120427542D03*
X123675000Y-116736531D03*
X128125000Y-104403570D03*
X130375000Y-127823694D03*
X130375000Y-120427542D03*
X134875000Y-127823694D03*
X137175000Y-101939285D03*
X128125000Y-101939285D03*
X132675000Y-109332140D03*
X137175000Y-104403570D03*
X128125000Y-109332140D03*
X128125000Y-114260710D03*
X128125000Y-121653565D03*
X132675000Y-119189280D03*
X130375000Y-115496774D03*
X128125000Y-116724995D03*
X132675000Y-106867855D03*
X132675000Y-101939285D03*
X134875000Y-108100622D03*
X123675000Y-109343676D03*
X132675000Y-99475000D03*
X125875000Y-108112158D03*
X132675000Y-104403570D03*
X137175000Y-99475000D03*
X134875000Y-113031390D03*
X134875000Y-115496774D03*
X123675000Y-111807961D03*
X125875000Y-113042926D03*
X125825000Y-105646774D03*
X134825000Y-105635238D03*
X132675000Y-116724995D03*
X137175000Y-126582135D03*
X130375000Y-117962158D03*
X130375000Y-110566006D03*
X125875000Y-115508310D03*
X132675000Y-114260710D03*
X128125000Y-99475000D03*
X132625000Y-124117850D03*
X128125000Y-124117850D03*
X137175000Y-121653565D03*
X132675000Y-111796425D03*
X125875000Y-117973694D03*
X132625000Y-126582135D03*
X137175000Y-119189280D03*
X134875000Y-98239086D03*
X137150000Y-124117850D03*
X134875000Y-103169854D03*
X130375000Y-108100622D03*
X123675000Y-106879391D03*
X130375000Y-98239086D03*
X128125000Y-126582135D03*
X128125000Y-111796425D03*
%TO.N,VDC*%
X162550000Y-101942865D03*
X164900000Y-105638818D03*
X176050000Y-114275826D03*
X171600000Y-106871435D03*
X164850000Y-103173434D03*
X162550000Y-126585715D03*
X162550000Y-114264290D03*
X169350000Y-110569586D03*
X171600000Y-116728575D03*
X167050000Y-109335720D03*
X169350000Y-117965738D03*
X173850000Y-115511890D03*
X169350000Y-120431122D03*
X169350000Y-122896506D03*
X173850000Y-110581122D03*
X164850000Y-110569586D03*
X162550000Y-109335720D03*
X162550000Y-99478580D03*
X171600000Y-101942865D03*
X167050000Y-101942865D03*
X171600000Y-104407150D03*
X167050000Y-111800005D03*
X176050000Y-109347256D03*
X176050000Y-106882971D03*
X167100000Y-121657145D03*
X162550000Y-106871435D03*
X162575000Y-124121430D03*
X162550000Y-116728575D03*
X171600000Y-114264290D03*
X171600000Y-99478580D03*
X167050000Y-114264290D03*
X169350000Y-105638818D03*
X164850000Y-117965738D03*
X173900000Y-105650354D03*
X171600000Y-126585715D03*
X164850000Y-98242666D03*
X167050000Y-106871435D03*
X167050000Y-119192860D03*
X167050000Y-116728575D03*
X167050000Y-104407150D03*
X164850000Y-127827274D03*
X169350000Y-108104202D03*
X164850000Y-125361890D03*
X162550000Y-104407150D03*
X164850000Y-113034970D03*
X164850000Y-100708050D03*
X162550000Y-111800005D03*
X162550000Y-121657145D03*
X164850000Y-108104202D03*
X167100000Y-124121430D03*
X171600000Y-119192860D03*
X169350000Y-98242666D03*
X169350000Y-115500354D03*
X171600000Y-111800005D03*
X164850000Y-120431122D03*
X167100000Y-126585715D03*
X169350000Y-103173434D03*
X169350000Y-113034970D03*
X171600000Y-109335720D03*
X173850000Y-117977274D03*
X167050000Y-99478580D03*
X169350000Y-100708050D03*
X173850000Y-113046506D03*
X173850000Y-108115738D03*
X164850000Y-115500354D03*
X169350000Y-125361890D03*
X176050000Y-116740111D03*
X176050000Y-111811541D03*
X169350000Y-127827274D03*
X162550000Y-119192860D03*
X164850000Y-122896506D03*
X171600000Y-121657145D03*
X171600000Y-124121430D03*
%TD*%
%TA.AperFunction,Conductor*%
%TO.N,VDC*%
G36*
X176587103Y-78756921D02*
G01*
X176600000Y-78759486D01*
X176612169Y-78757066D01*
X176624569Y-78757066D01*
X176635624Y-78756251D01*
X176845747Y-78766573D01*
X176960945Y-78772232D01*
X176973241Y-78773443D01*
X177324595Y-78825562D01*
X177336701Y-78827969D01*
X177681253Y-78914275D01*
X177693085Y-78917864D01*
X178027513Y-79037524D01*
X178038937Y-79042256D01*
X178360021Y-79194118D01*
X178370926Y-79199947D01*
X178675582Y-79382551D01*
X178685863Y-79389421D01*
X178971153Y-79601006D01*
X178980691Y-79608832D01*
X179243887Y-79847380D01*
X179252620Y-79856113D01*
X179491168Y-80119309D01*
X179498994Y-80128847D01*
X179594708Y-80257902D01*
X179710579Y-80414137D01*
X179717449Y-80424418D01*
X179900053Y-80729074D01*
X179905882Y-80739979D01*
X180057744Y-81061063D01*
X180062476Y-81072487D01*
X180182136Y-81406915D01*
X180185725Y-81418746D01*
X180272031Y-81763299D01*
X180274440Y-81775414D01*
X180326556Y-82126754D01*
X180327768Y-82139060D01*
X180343749Y-82464376D01*
X180342934Y-82475431D01*
X180342934Y-82487831D01*
X180340514Y-82500000D01*
X180343079Y-82512894D01*
X180345500Y-82537476D01*
X180345500Y-127062524D01*
X180343079Y-127087103D01*
X180340514Y-127100000D01*
X180342934Y-127112169D01*
X180342934Y-127124569D01*
X180343749Y-127135624D01*
X180327768Y-127460940D01*
X180326556Y-127473246D01*
X180274440Y-127824586D01*
X180272031Y-127836701D01*
X180185725Y-128181253D01*
X180182136Y-128193085D01*
X180062476Y-128527513D01*
X180057744Y-128538937D01*
X179905882Y-128860021D01*
X179900053Y-128870926D01*
X179717449Y-129175582D01*
X179710579Y-129185863D01*
X179498994Y-129471153D01*
X179491168Y-129480691D01*
X179322626Y-129666648D01*
X179252625Y-129743882D01*
X179243887Y-129752620D01*
X178980691Y-129991168D01*
X178971153Y-129998994D01*
X178763082Y-130153310D01*
X178685863Y-130210579D01*
X178675582Y-130217449D01*
X178370926Y-130400053D01*
X178360021Y-130405882D01*
X178038937Y-130557744D01*
X178027513Y-130562476D01*
X177693085Y-130682136D01*
X177681254Y-130685725D01*
X177336701Y-130772031D01*
X177324595Y-130774438D01*
X176973241Y-130826557D01*
X176960945Y-130827768D01*
X176845747Y-130833427D01*
X176635624Y-130843749D01*
X176624569Y-130842934D01*
X176612169Y-130842934D01*
X176600000Y-130840514D01*
X176587103Y-130843079D01*
X176562524Y-130845500D01*
X160734482Y-130845500D01*
X160666361Y-130825498D01*
X160619868Y-130771842D01*
X160608482Y-130719528D01*
X160608447Y-130557744D01*
X160599979Y-91973981D01*
X160606511Y-91933911D01*
X160695532Y-91668308D01*
X160696459Y-91665543D01*
X160786527Y-91282597D01*
X160840877Y-90892975D01*
X160841011Y-90890084D01*
X160858341Y-90515225D01*
X160858341Y-90515224D01*
X160858911Y-90502888D01*
X160859486Y-90500000D01*
X160856921Y-90487103D01*
X160854500Y-90462524D01*
X160854500Y-82537476D01*
X160856921Y-82512894D01*
X160859486Y-82500000D01*
X160857066Y-82487831D01*
X160857066Y-82475431D01*
X160856251Y-82464376D01*
X160872232Y-82139060D01*
X160873444Y-82126754D01*
X160925560Y-81775414D01*
X160927969Y-81763299D01*
X161014275Y-81418746D01*
X161017864Y-81406915D01*
X161137524Y-81072487D01*
X161142256Y-81061063D01*
X161294118Y-80739979D01*
X161299947Y-80729074D01*
X161482551Y-80424418D01*
X161489421Y-80414137D01*
X161605292Y-80257902D01*
X161701006Y-80128847D01*
X161708832Y-80119309D01*
X161947380Y-79856113D01*
X161956113Y-79847380D01*
X162219309Y-79608832D01*
X162228847Y-79601006D01*
X162514137Y-79389421D01*
X162524418Y-79382551D01*
X162829074Y-79199947D01*
X162839979Y-79194118D01*
X163161063Y-79042256D01*
X163172487Y-79037524D01*
X163506915Y-78917864D01*
X163518747Y-78914275D01*
X163863299Y-78827969D01*
X163875405Y-78825562D01*
X164226759Y-78773443D01*
X164239055Y-78772232D01*
X164354253Y-78766573D01*
X164564376Y-78756251D01*
X164575431Y-78757066D01*
X164587831Y-78757066D01*
X164600000Y-78759486D01*
X164612897Y-78756921D01*
X164637476Y-78754500D01*
X176562524Y-78754500D01*
X176587103Y-78756921D01*
G37*
%TD.AperFunction*%
%TD*%
%TA.AperFunction,Conductor*%
%TO.N,GND*%
G36*
X135087103Y-78756921D02*
G01*
X135100000Y-78759486D01*
X135112169Y-78757066D01*
X135124569Y-78757066D01*
X135135624Y-78756251D01*
X135345747Y-78766573D01*
X135460945Y-78772232D01*
X135473241Y-78773443D01*
X135824595Y-78825562D01*
X135836701Y-78827969D01*
X136181253Y-78914275D01*
X136193085Y-78917864D01*
X136527513Y-79037524D01*
X136538937Y-79042256D01*
X136860021Y-79194118D01*
X136870926Y-79199947D01*
X137175582Y-79382551D01*
X137185863Y-79389421D01*
X137471153Y-79601006D01*
X137480691Y-79608832D01*
X137743887Y-79847380D01*
X137752620Y-79856113D01*
X137991168Y-80119309D01*
X137998994Y-80128847D01*
X138094708Y-80257902D01*
X138210579Y-80414137D01*
X138217449Y-80424418D01*
X138400053Y-80729074D01*
X138405882Y-80739979D01*
X138557744Y-81061063D01*
X138562476Y-81072487D01*
X138682136Y-81406915D01*
X138685725Y-81418746D01*
X138772031Y-81763299D01*
X138774440Y-81775414D01*
X138826556Y-82126754D01*
X138827768Y-82139060D01*
X138843749Y-82464376D01*
X138842934Y-82475431D01*
X138842934Y-82487831D01*
X138840514Y-82500000D01*
X138843079Y-82512894D01*
X138845500Y-82537476D01*
X138845500Y-90462524D01*
X138843079Y-90487103D01*
X138840514Y-90500000D01*
X138841089Y-90502888D01*
X138841569Y-90513278D01*
X138841569Y-90513279D01*
X138858989Y-90890084D01*
X138859123Y-90892975D01*
X138913473Y-91282597D01*
X139003541Y-91665543D01*
X139004468Y-91668308D01*
X139124504Y-92026447D01*
X139131036Y-92066589D01*
X139100302Y-130719600D01*
X139080246Y-130787705D01*
X139026553Y-130834155D01*
X138974302Y-130845500D01*
X123137476Y-130845500D01*
X123112897Y-130843079D01*
X123100000Y-130840514D01*
X123087831Y-130842934D01*
X123075431Y-130842934D01*
X123064376Y-130843749D01*
X122854253Y-130833427D01*
X122739055Y-130827768D01*
X122726759Y-130826557D01*
X122375405Y-130774438D01*
X122363299Y-130772031D01*
X122018746Y-130685725D01*
X122006915Y-130682136D01*
X121672487Y-130562476D01*
X121661063Y-130557744D01*
X121339979Y-130405882D01*
X121329074Y-130400053D01*
X121024418Y-130217449D01*
X121014137Y-130210579D01*
X120936918Y-130153310D01*
X120728847Y-129998994D01*
X120719309Y-129991168D01*
X120456113Y-129752620D01*
X120447375Y-129743882D01*
X120377374Y-129666648D01*
X120208832Y-129480691D01*
X120201006Y-129471153D01*
X119989421Y-129185863D01*
X119982551Y-129175582D01*
X119799947Y-128870926D01*
X119794118Y-128860021D01*
X119642256Y-128538937D01*
X119637524Y-128527513D01*
X119517864Y-128193085D01*
X119514275Y-128181253D01*
X119427969Y-127836701D01*
X119425560Y-127824586D01*
X119373444Y-127473246D01*
X119372232Y-127460940D01*
X119356251Y-127135624D01*
X119357066Y-127124569D01*
X119357066Y-127112169D01*
X119359486Y-127100000D01*
X119356921Y-127087103D01*
X119354500Y-127062524D01*
X119354500Y-82537476D01*
X119356921Y-82512894D01*
X119359486Y-82500000D01*
X119357066Y-82487831D01*
X119357066Y-82475431D01*
X119356251Y-82464376D01*
X119372232Y-82139060D01*
X119373444Y-82126754D01*
X119425560Y-81775414D01*
X119427969Y-81763299D01*
X119514275Y-81418746D01*
X119517864Y-81406915D01*
X119637524Y-81072487D01*
X119642256Y-81061063D01*
X119794118Y-80739979D01*
X119799947Y-80729074D01*
X119982551Y-80424418D01*
X119989421Y-80414137D01*
X120105292Y-80257902D01*
X120201006Y-80128847D01*
X120208832Y-80119309D01*
X120447380Y-79856113D01*
X120456113Y-79847380D01*
X120719309Y-79608832D01*
X120728847Y-79601006D01*
X121014137Y-79389421D01*
X121024418Y-79382551D01*
X121329074Y-79199947D01*
X121339979Y-79194118D01*
X121661063Y-79042256D01*
X121672487Y-79037524D01*
X122006915Y-78917864D01*
X122018747Y-78914275D01*
X122363299Y-78827969D01*
X122375405Y-78825562D01*
X122726759Y-78773443D01*
X122739055Y-78772232D01*
X122854253Y-78766573D01*
X123064376Y-78756251D01*
X123075431Y-78757066D01*
X123087831Y-78757066D01*
X123100000Y-78759486D01*
X123112897Y-78756921D01*
X123137476Y-78754500D01*
X135062524Y-78754500D01*
X135087103Y-78756921D01*
G37*
%TD.AperFunction*%
%TD*%
M02*
