%TF.GenerationSoftware,KiCad,Pcbnew,(6.0.11)*%
%TF.CreationDate,2023-05-27T10:47:36+02:00*%
%TF.ProjectId,dclink,64636c69-6e6b-42e6-9b69-6361645f7063,V0*%
%TF.SameCoordinates,Original*%
%TF.FileFunction,Drillmap*%
%TF.FilePolarity,Positive*%
%FSLAX45Y45*%
G04 Gerber Fmt 4.5, Leading zero omitted, Abs format (unit mm)*
G04 Created by KiCad (PCBNEW (6.0.11)) date 2023-05-27 10:47:36*
%MOMM*%
%LPD*%
G01*
G04 APERTURE LIST*
%ADD10C,0.050000*%
%ADD11C,0.200000*%
G04 APERTURE END LIST*
D10*
X13510000Y-7850000D02*
X12310000Y-7850000D01*
X12310000Y-13110000D02*
X17660000Y-13110000D01*
X16060000Y-8250000D02*
X16060000Y-9050000D01*
X13910000Y-9050000D02*
X13910000Y-8250000D01*
X16460000Y-7850000D02*
G75*
G03*
X16060000Y-8250000I0J-400000D01*
G01*
X15660000Y-9450000D02*
X14310000Y-9450000D01*
X18060000Y-8250000D02*
G75*
G03*
X17660000Y-7850000I-400000J0D01*
G01*
X15660000Y-9450000D02*
G75*
G03*
X16060000Y-9050000I0J400000D01*
G01*
X17660000Y-13110000D02*
G75*
G03*
X18060000Y-12710000I0J400000D01*
G01*
X12310000Y-7850000D02*
G75*
G03*
X11910000Y-8250000I0J-400000D01*
G01*
X13910000Y-9050000D02*
G75*
G03*
X14310000Y-9450000I400000J0D01*
G01*
X18060000Y-12710000D02*
X18060000Y-8250000D01*
X11910000Y-8250000D02*
X11910000Y-12710000D01*
X11910000Y-12710000D02*
G75*
G03*
X12310000Y-13110000I400000J0D01*
G01*
X17660000Y-7850000D02*
X16460000Y-7850000D01*
X13910000Y-8250000D02*
G75*
G03*
X13510000Y-7850000I-400000J0D01*
G01*
D11*
X12165119Y-13422976D02*
X12165119Y-13222976D01*
X12212738Y-13222976D01*
X12241309Y-13232500D01*
X12260357Y-13251548D01*
X12269881Y-13270595D01*
X12279405Y-13308690D01*
X12279405Y-13337262D01*
X12269881Y-13375357D01*
X12260357Y-13394405D01*
X12241309Y-13413452D01*
X12212738Y-13422976D01*
X12165119Y-13422976D01*
X12365119Y-13422976D02*
X12365119Y-13289643D01*
X12365119Y-13327738D02*
X12374643Y-13308690D01*
X12384167Y-13299167D01*
X12403214Y-13289643D01*
X12422262Y-13289643D01*
X12488928Y-13422976D02*
X12488928Y-13289643D01*
X12488928Y-13222976D02*
X12479405Y-13232500D01*
X12488928Y-13242024D01*
X12498452Y-13232500D01*
X12488928Y-13222976D01*
X12488928Y-13242024D01*
X12612738Y-13422976D02*
X12593690Y-13413452D01*
X12584167Y-13394405D01*
X12584167Y-13222976D01*
X12717500Y-13422976D02*
X12698452Y-13413452D01*
X12688928Y-13394405D01*
X12688928Y-13222976D01*
X12946071Y-13422976D02*
X12946071Y-13222976D01*
X13012738Y-13365833D01*
X13079405Y-13222976D01*
X13079405Y-13422976D01*
X13260357Y-13422976D02*
X13260357Y-13318214D01*
X13250833Y-13299167D01*
X13231786Y-13289643D01*
X13193690Y-13289643D01*
X13174643Y-13299167D01*
X13260357Y-13413452D02*
X13241309Y-13422976D01*
X13193690Y-13422976D01*
X13174643Y-13413452D01*
X13165119Y-13394405D01*
X13165119Y-13375357D01*
X13174643Y-13356309D01*
X13193690Y-13346786D01*
X13241309Y-13346786D01*
X13260357Y-13337262D01*
X13355595Y-13289643D02*
X13355595Y-13489643D01*
X13355595Y-13299167D02*
X13374643Y-13289643D01*
X13412738Y-13289643D01*
X13431786Y-13299167D01*
X13441309Y-13308690D01*
X13450833Y-13327738D01*
X13450833Y-13384881D01*
X13441309Y-13403928D01*
X13431786Y-13413452D01*
X13412738Y-13422976D01*
X13374643Y-13422976D01*
X13355595Y-13413452D01*
X13536548Y-13403928D02*
X13546071Y-13413452D01*
X13536548Y-13422976D01*
X13527024Y-13413452D01*
X13536548Y-13403928D01*
X13536548Y-13422976D01*
X13536548Y-13299167D02*
X13546071Y-13308690D01*
X13536548Y-13318214D01*
X13527024Y-13308690D01*
X13536548Y-13299167D01*
X13536548Y-13318214D01*
M02*
