%TF.GenerationSoftware,KiCad,Pcbnew,(6.0.11)*%
%TF.CreationDate,2023-05-27T10:47:36+02:00*%
%TF.ProjectId,dclink,64636c69-6e6b-42e6-9b69-6361645f7063,V0*%
%TF.SameCoordinates,Original*%
%TF.FileFunction,Drillmap*%
%TF.FilePolarity,Positive*%
%FSLAX45Y45*%
G04 Gerber Fmt 4.5, Leading zero omitted, Abs format (unit mm)*
G04 Created by KiCad (PCBNEW (6.0.11)) date 2023-05-27 10:47:36*
%MOMM*%
%LPD*%
G01*
G04 APERTURE LIST*
%ADD10C,0.050000*%
%ADD11C,0.200000*%
%ADD12C,0.040000*%
%ADD13C,0.180000*%
%ADD14C,0.620000*%
G04 APERTURE END LIST*
D10*
X13510000Y-7850000D02*
X12310000Y-7850000D01*
X12310000Y-13110000D02*
X17660000Y-13110000D01*
X16060000Y-8250000D02*
X16060000Y-9050000D01*
X13910000Y-9050000D02*
X13910000Y-8250000D01*
X16460000Y-7850000D02*
G75*
G03*
X16060000Y-8250000I0J-400000D01*
G01*
X15660000Y-9450000D02*
X14310000Y-9450000D01*
X18060000Y-8250000D02*
G75*
G03*
X17660000Y-7850000I-400000J0D01*
G01*
X15660000Y-9450000D02*
G75*
G03*
X16060000Y-9050000I0J400000D01*
G01*
X17660000Y-13110000D02*
G75*
G03*
X18060000Y-12710000I0J400000D01*
G01*
X12310000Y-7850000D02*
G75*
G03*
X11910000Y-8250000I0J-400000D01*
G01*
X13910000Y-9050000D02*
G75*
G03*
X14310000Y-9450000I400000J0D01*
G01*
X18060000Y-12710000D02*
X18060000Y-8250000D01*
X11910000Y-8250000D02*
X11910000Y-12710000D01*
X11910000Y-12710000D02*
G75*
G03*
X12310000Y-13110000I400000J0D01*
G01*
X17660000Y-7850000D02*
X16460000Y-7850000D01*
X13910000Y-8250000D02*
G75*
G03*
X13510000Y-7850000I-400000J0D01*
G01*
D11*
D12*
X12347500Y-10667939D02*
X12387500Y-10707939D01*
X12387500Y-10667939D02*
X12347500Y-10707939D01*
X12347500Y-10914368D02*
X12387500Y-10954368D01*
X12387500Y-10914368D02*
X12347500Y-10954368D01*
X12347500Y-11160796D02*
X12387500Y-11200796D01*
X12387500Y-11160796D02*
X12347500Y-11200796D01*
X12347500Y-11407225D02*
X12387500Y-11447225D01*
X12387500Y-11407225D02*
X12347500Y-11447225D01*
X12347500Y-11653653D02*
X12387500Y-11693653D01*
X12387500Y-11653653D02*
X12347500Y-11693653D01*
X12562500Y-10544677D02*
X12602500Y-10584677D01*
X12602500Y-10544677D02*
X12562500Y-10584677D01*
X12567500Y-10791216D02*
X12607500Y-10831216D01*
X12607500Y-10791216D02*
X12567500Y-10831216D01*
X12567500Y-11037754D02*
X12607500Y-11077754D01*
X12607500Y-11037754D02*
X12567500Y-11077754D01*
X12567500Y-11284293D02*
X12607500Y-11324293D01*
X12607500Y-11284293D02*
X12567500Y-11324293D01*
X12567500Y-11530831D02*
X12607500Y-11570831D01*
X12607500Y-11530831D02*
X12567500Y-11570831D01*
X12567500Y-11777369D02*
X12607500Y-11817369D01*
X12607500Y-11777369D02*
X12567500Y-11817369D01*
X12792500Y-9927500D02*
X12832500Y-9967500D01*
X12832500Y-9927500D02*
X12792500Y-9967500D01*
X12792500Y-10173929D02*
X12832500Y-10213929D01*
X12832500Y-10173929D02*
X12792500Y-10213929D01*
X12792500Y-10420357D02*
X12832500Y-10460357D01*
X12832500Y-10420357D02*
X12792500Y-10460357D01*
X12792500Y-10666786D02*
X12832500Y-10706786D01*
X12832500Y-10666786D02*
X12792500Y-10706786D01*
X12792500Y-10913214D02*
X12832500Y-10953214D01*
X12832500Y-10913214D02*
X12792500Y-10953214D01*
X12792500Y-11159643D02*
X12832500Y-11199642D01*
X12832500Y-11159643D02*
X12792500Y-11199642D01*
X12792500Y-11406071D02*
X12832500Y-11446071D01*
X12832500Y-11406071D02*
X12792500Y-11446071D01*
X12792500Y-11652499D02*
X12832500Y-11692499D01*
X12832500Y-11652499D02*
X12792500Y-11692499D01*
X12792500Y-11898928D02*
X12832500Y-11938928D01*
X12832500Y-11898928D02*
X12792500Y-11938928D01*
X12792500Y-12145356D02*
X12832500Y-12185356D01*
X12832500Y-12145356D02*
X12792500Y-12185356D01*
X12792500Y-12391785D02*
X12832500Y-12431785D01*
X12832500Y-12391785D02*
X12792500Y-12431785D01*
X12792500Y-12638213D02*
X12832500Y-12678213D01*
X12832500Y-12638213D02*
X12792500Y-12678213D01*
X13017500Y-9803909D02*
X13057500Y-9843909D01*
X13057500Y-9803909D02*
X13017500Y-9843909D01*
X13017500Y-10050447D02*
X13057500Y-10090447D01*
X13057500Y-10050447D02*
X13017500Y-10090447D01*
X13017500Y-10296985D02*
X13057500Y-10336985D01*
X13057500Y-10296985D02*
X13017500Y-10336985D01*
X13017500Y-10543524D02*
X13057500Y-10583524D01*
X13057500Y-10543524D02*
X13017500Y-10583524D01*
X13017500Y-10790062D02*
X13057500Y-10830062D01*
X13057500Y-10790062D02*
X13017500Y-10830062D01*
X13017500Y-11036601D02*
X13057500Y-11076601D01*
X13057500Y-11036601D02*
X13017500Y-11076601D01*
X13017500Y-11283139D02*
X13057500Y-11323139D01*
X13057500Y-11283139D02*
X13017500Y-11323139D01*
X13017500Y-11529677D02*
X13057500Y-11569677D01*
X13057500Y-11529677D02*
X13017500Y-11569677D01*
X13017500Y-11776216D02*
X13057500Y-11816216D01*
X13057500Y-11776216D02*
X13017500Y-11816216D01*
X13017500Y-12022754D02*
X13057500Y-12062754D01*
X13057500Y-12022754D02*
X13017500Y-12062754D01*
X13017500Y-12269293D02*
X13057500Y-12309293D01*
X13057500Y-12269293D02*
X13017500Y-12309293D01*
X13017500Y-12515831D02*
X13057500Y-12555831D01*
X13057500Y-12515831D02*
X13017500Y-12555831D01*
X13017500Y-12762369D02*
X13057500Y-12802369D01*
X13057500Y-12762369D02*
X13017500Y-12802369D01*
X13242500Y-12145356D02*
X13282500Y-12185356D01*
X13282500Y-12145356D02*
X13242500Y-12185356D01*
X13242500Y-12391785D02*
X13282500Y-12431785D01*
X13282500Y-12391785D02*
X13242500Y-12431785D01*
X13242500Y-12638213D02*
X13282500Y-12678213D01*
X13282500Y-12638213D02*
X13242500Y-12678213D01*
X13247500Y-9927500D02*
X13287500Y-9967500D01*
X13287500Y-9927500D02*
X13247500Y-9967500D01*
X13247500Y-10173929D02*
X13287500Y-10213929D01*
X13287500Y-10173929D02*
X13247500Y-10213929D01*
X13247500Y-10420357D02*
X13287500Y-10460357D01*
X13287500Y-10420357D02*
X13247500Y-10460357D01*
X13247500Y-10666786D02*
X13287500Y-10706786D01*
X13287500Y-10666786D02*
X13247500Y-10706786D01*
X13247500Y-10913214D02*
X13287500Y-10953214D01*
X13287500Y-10913214D02*
X13247500Y-10953214D01*
X13247500Y-11159643D02*
X13287500Y-11199642D01*
X13287500Y-11159643D02*
X13247500Y-11199642D01*
X13247500Y-11406071D02*
X13287500Y-11446071D01*
X13287500Y-11406071D02*
X13247500Y-11446071D01*
X13247500Y-11652499D02*
X13287500Y-11692499D01*
X13287500Y-11652499D02*
X13247500Y-11692499D01*
X13247500Y-11898928D02*
X13287500Y-11938928D01*
X13287500Y-11898928D02*
X13247500Y-11938928D01*
X13462500Y-10543524D02*
X13502500Y-10583524D01*
X13502500Y-10543524D02*
X13462500Y-10583524D01*
X13467500Y-9803909D02*
X13507500Y-9843909D01*
X13507500Y-9803909D02*
X13467500Y-9843909D01*
X13467500Y-10050447D02*
X13507500Y-10090447D01*
X13507500Y-10050447D02*
X13467500Y-10090447D01*
X13467500Y-10296985D02*
X13507500Y-10336985D01*
X13507500Y-10296985D02*
X13467500Y-10336985D01*
X13467500Y-10790062D02*
X13507500Y-10830062D01*
X13507500Y-10790062D02*
X13467500Y-10830062D01*
X13467500Y-11036601D02*
X13507500Y-11076601D01*
X13507500Y-11036601D02*
X13467500Y-11076601D01*
X13467500Y-11283139D02*
X13507500Y-11323139D01*
X13507500Y-11283139D02*
X13467500Y-11323139D01*
X13467500Y-11529677D02*
X13507500Y-11569677D01*
X13507500Y-11529677D02*
X13467500Y-11569677D01*
X13467500Y-11776216D02*
X13507500Y-11816216D01*
X13507500Y-11776216D02*
X13467500Y-11816216D01*
X13467500Y-12022754D02*
X13507500Y-12062754D01*
X13507500Y-12022754D02*
X13467500Y-12062754D01*
X13467500Y-12269293D02*
X13507500Y-12309293D01*
X13507500Y-12269293D02*
X13467500Y-12309293D01*
X13467500Y-12515831D02*
X13507500Y-12555831D01*
X13507500Y-12515831D02*
X13467500Y-12555831D01*
X13467500Y-12762369D02*
X13507500Y-12802369D01*
X13507500Y-12762369D02*
X13467500Y-12802369D01*
X13695000Y-12391785D02*
X13735000Y-12431785D01*
X13735000Y-12391785D02*
X13695000Y-12431785D01*
X13697500Y-9927500D02*
X13737500Y-9967500D01*
X13737500Y-9927500D02*
X13697500Y-9967500D01*
X13697500Y-10173929D02*
X13737500Y-10213929D01*
X13737500Y-10173929D02*
X13697500Y-10213929D01*
X13697500Y-10420357D02*
X13737500Y-10460357D01*
X13737500Y-10420357D02*
X13697500Y-10460357D01*
X13697500Y-10666786D02*
X13737500Y-10706786D01*
X13737500Y-10666786D02*
X13697500Y-10706786D01*
X13697500Y-10913214D02*
X13737500Y-10953214D01*
X13737500Y-10913214D02*
X13697500Y-10953214D01*
X13697500Y-11159643D02*
X13737500Y-11199642D01*
X13737500Y-11159643D02*
X13697500Y-11199642D01*
X13697500Y-11406071D02*
X13737500Y-11446071D01*
X13737500Y-11406071D02*
X13697500Y-11446071D01*
X13697500Y-11652499D02*
X13737500Y-11692499D01*
X13737500Y-11652499D02*
X13697500Y-11692499D01*
X13697500Y-11898928D02*
X13737500Y-11938928D01*
X13737500Y-11898928D02*
X13697500Y-11938928D01*
X13697500Y-12145356D02*
X13737500Y-12185356D01*
X13737500Y-12145356D02*
X13697500Y-12185356D01*
X13697500Y-12638213D02*
X13737500Y-12678213D01*
X13737500Y-12638213D02*
X13697500Y-12678213D01*
X16235000Y-9927858D02*
X16275000Y-9967858D01*
X16275000Y-9927858D02*
X16235000Y-9967858D01*
X16235000Y-10174287D02*
X16275000Y-10214287D01*
X16275000Y-10174287D02*
X16235000Y-10214287D01*
X16235000Y-10420715D02*
X16275000Y-10460715D01*
X16275000Y-10420715D02*
X16235000Y-10460715D01*
X16235000Y-10667144D02*
X16275000Y-10707144D01*
X16275000Y-10667144D02*
X16235000Y-10707144D01*
X16235000Y-10913572D02*
X16275000Y-10953572D01*
X16275000Y-10913572D02*
X16235000Y-10953572D01*
X16235000Y-11160001D02*
X16275000Y-11200000D01*
X16275000Y-11160001D02*
X16235000Y-11200000D01*
X16235000Y-11406429D02*
X16275000Y-11446429D01*
X16275000Y-11406429D02*
X16235000Y-11446429D01*
X16235000Y-11652857D02*
X16275000Y-11692857D01*
X16275000Y-11652857D02*
X16235000Y-11692857D01*
X16235000Y-11899286D02*
X16275000Y-11939286D01*
X16275000Y-11899286D02*
X16235000Y-11939286D01*
X16235000Y-12145714D02*
X16275000Y-12185714D01*
X16275000Y-12145714D02*
X16235000Y-12185714D01*
X16235000Y-12638571D02*
X16275000Y-12678571D01*
X16275000Y-12638571D02*
X16235000Y-12678571D01*
X16237500Y-12392143D02*
X16277500Y-12432143D01*
X16277500Y-12392143D02*
X16237500Y-12432143D01*
X16465000Y-9804267D02*
X16505000Y-9844267D01*
X16505000Y-9804267D02*
X16465000Y-9844267D01*
X16465000Y-10050805D02*
X16505000Y-10090805D01*
X16505000Y-10050805D02*
X16465000Y-10090805D01*
X16465000Y-10297343D02*
X16505000Y-10337343D01*
X16505000Y-10297343D02*
X16465000Y-10337343D01*
X16465000Y-10790420D02*
X16505000Y-10830420D01*
X16505000Y-10790420D02*
X16465000Y-10830420D01*
X16465000Y-11036959D02*
X16505000Y-11076959D01*
X16505000Y-11036959D02*
X16465000Y-11076959D01*
X16465000Y-11283497D02*
X16505000Y-11323497D01*
X16505000Y-11283497D02*
X16465000Y-11323497D01*
X16465000Y-11530035D02*
X16505000Y-11570035D01*
X16505000Y-11530035D02*
X16465000Y-11570035D01*
X16465000Y-11776574D02*
X16505000Y-11816574D01*
X16505000Y-11776574D02*
X16465000Y-11816574D01*
X16465000Y-12023112D02*
X16505000Y-12063112D01*
X16505000Y-12023112D02*
X16465000Y-12063112D01*
X16465000Y-12269651D02*
X16505000Y-12309651D01*
X16505000Y-12269651D02*
X16465000Y-12309651D01*
X16465000Y-12516189D02*
X16505000Y-12556189D01*
X16505000Y-12516189D02*
X16465000Y-12556189D01*
X16465000Y-12762727D02*
X16505000Y-12802727D01*
X16505000Y-12762727D02*
X16465000Y-12802727D01*
X16470000Y-10543882D02*
X16510000Y-10583882D01*
X16510000Y-10543882D02*
X16470000Y-10583882D01*
X16685000Y-9927858D02*
X16725000Y-9967858D01*
X16725000Y-9927858D02*
X16685000Y-9967858D01*
X16685000Y-10174287D02*
X16725000Y-10214287D01*
X16725000Y-10174287D02*
X16685000Y-10214287D01*
X16685000Y-10420715D02*
X16725000Y-10460715D01*
X16725000Y-10420715D02*
X16685000Y-10460715D01*
X16685000Y-10667144D02*
X16725000Y-10707144D01*
X16725000Y-10667144D02*
X16685000Y-10707144D01*
X16685000Y-10913572D02*
X16725000Y-10953572D01*
X16725000Y-10913572D02*
X16685000Y-10953572D01*
X16685000Y-11160001D02*
X16725000Y-11200000D01*
X16725000Y-11160001D02*
X16685000Y-11200000D01*
X16685000Y-11406429D02*
X16725000Y-11446429D01*
X16725000Y-11406429D02*
X16685000Y-11446429D01*
X16685000Y-11652857D02*
X16725000Y-11692857D01*
X16725000Y-11652857D02*
X16685000Y-11692857D01*
X16685000Y-11899286D02*
X16725000Y-11939286D01*
X16725000Y-11899286D02*
X16685000Y-11939286D01*
X16690000Y-12145714D02*
X16730000Y-12185714D01*
X16730000Y-12145714D02*
X16690000Y-12185714D01*
X16690000Y-12392143D02*
X16730000Y-12432143D01*
X16730000Y-12392143D02*
X16690000Y-12432143D01*
X16690000Y-12638571D02*
X16730000Y-12678571D01*
X16730000Y-12638571D02*
X16690000Y-12678571D01*
X16915000Y-9804267D02*
X16955000Y-9844267D01*
X16955000Y-9804267D02*
X16915000Y-9844267D01*
X16915000Y-10050805D02*
X16955000Y-10090805D01*
X16955000Y-10050805D02*
X16915000Y-10090805D01*
X16915000Y-10297343D02*
X16955000Y-10337343D01*
X16955000Y-10297343D02*
X16915000Y-10337343D01*
X16915000Y-10543882D02*
X16955000Y-10583882D01*
X16955000Y-10543882D02*
X16915000Y-10583882D01*
X16915000Y-10790420D02*
X16955000Y-10830420D01*
X16955000Y-10790420D02*
X16915000Y-10830420D01*
X16915000Y-11036959D02*
X16955000Y-11076959D01*
X16955000Y-11036959D02*
X16915000Y-11076959D01*
X16915000Y-11283497D02*
X16955000Y-11323497D01*
X16955000Y-11283497D02*
X16915000Y-11323497D01*
X16915000Y-11530035D02*
X16955000Y-11570035D01*
X16955000Y-11530035D02*
X16915000Y-11570035D01*
X16915000Y-11776574D02*
X16955000Y-11816574D01*
X16955000Y-11776574D02*
X16915000Y-11816574D01*
X16915000Y-12023112D02*
X16955000Y-12063112D01*
X16955000Y-12023112D02*
X16915000Y-12063112D01*
X16915000Y-12269651D02*
X16955000Y-12309651D01*
X16955000Y-12269651D02*
X16915000Y-12309651D01*
X16915000Y-12516189D02*
X16955000Y-12556189D01*
X16955000Y-12516189D02*
X16915000Y-12556189D01*
X16915000Y-12762727D02*
X16955000Y-12802727D01*
X16955000Y-12762727D02*
X16915000Y-12802727D01*
X17140000Y-9927858D02*
X17180000Y-9967858D01*
X17180000Y-9927858D02*
X17140000Y-9967858D01*
X17140000Y-10174287D02*
X17180000Y-10214287D01*
X17180000Y-10174287D02*
X17140000Y-10214287D01*
X17140000Y-10420715D02*
X17180000Y-10460715D01*
X17180000Y-10420715D02*
X17140000Y-10460715D01*
X17140000Y-10667144D02*
X17180000Y-10707144D01*
X17180000Y-10667144D02*
X17140000Y-10707144D01*
X17140000Y-10913572D02*
X17180000Y-10953572D01*
X17180000Y-10913572D02*
X17140000Y-10953572D01*
X17140000Y-11160001D02*
X17180000Y-11200000D01*
X17180000Y-11160001D02*
X17140000Y-11200000D01*
X17140000Y-11406429D02*
X17180000Y-11446429D01*
X17180000Y-11406429D02*
X17140000Y-11446429D01*
X17140000Y-11652857D02*
X17180000Y-11692857D01*
X17180000Y-11652857D02*
X17140000Y-11692857D01*
X17140000Y-11899286D02*
X17180000Y-11939286D01*
X17180000Y-11899286D02*
X17140000Y-11939286D01*
X17140000Y-12145714D02*
X17180000Y-12185714D01*
X17180000Y-12145714D02*
X17140000Y-12185714D01*
X17140000Y-12392143D02*
X17180000Y-12432143D01*
X17180000Y-12392143D02*
X17140000Y-12432143D01*
X17140000Y-12638571D02*
X17180000Y-12678571D01*
X17180000Y-12638571D02*
X17140000Y-12678571D01*
X17365000Y-10791574D02*
X17405000Y-10831574D01*
X17405000Y-10791574D02*
X17365000Y-10831574D01*
X17365000Y-11038112D02*
X17405000Y-11078112D01*
X17405000Y-11038112D02*
X17365000Y-11078112D01*
X17365000Y-11284651D02*
X17405000Y-11324651D01*
X17405000Y-11284651D02*
X17365000Y-11324651D01*
X17365000Y-11531189D02*
X17405000Y-11571189D01*
X17405000Y-11531189D02*
X17365000Y-11571189D01*
X17365000Y-11777727D02*
X17405000Y-11817727D01*
X17405000Y-11777727D02*
X17365000Y-11817727D01*
X17370000Y-10545035D02*
X17410000Y-10585035D01*
X17410000Y-10545035D02*
X17370000Y-10585035D01*
X17585000Y-10668297D02*
X17625000Y-10708297D01*
X17625000Y-10668297D02*
X17585000Y-10708297D01*
X17585000Y-10914726D02*
X17625000Y-10954726D01*
X17625000Y-10914726D02*
X17585000Y-10954726D01*
X17585000Y-11161154D02*
X17625000Y-11201154D01*
X17625000Y-11161154D02*
X17585000Y-11201154D01*
X17585000Y-11407583D02*
X17625000Y-11447583D01*
X17625000Y-11407583D02*
X17585000Y-11447583D01*
X17585000Y-11654011D02*
X17625000Y-11694011D01*
X17625000Y-11654011D02*
X17585000Y-11694011D01*
D13*
X12475000Y-10180000D02*
G75*
G03*
X12475000Y-10180000I-90000J0D01*
G01*
D11*
X12410000Y-10090000D02*
X12360000Y-10090000D01*
X12410000Y-10270000D02*
X12360000Y-10270000D01*
X12360000Y-10090000D02*
G75*
G03*
X12360000Y-10270000I0J-90000D01*
G01*
X12410000Y-10270000D02*
G75*
G03*
X12410000Y-10090000I0J90000D01*
G01*
D13*
X12475000Y-12180000D02*
G75*
G03*
X12475000Y-12180000I-90000J0D01*
G01*
D11*
X12410000Y-12090000D02*
X12360000Y-12090000D01*
X12410000Y-12270000D02*
X12360000Y-12270000D01*
X12360000Y-12090000D02*
G75*
G03*
X12360000Y-12270000I0J-90000D01*
G01*
X12410000Y-12270000D02*
G75*
G03*
X12410000Y-12090000I0J90000D01*
G01*
D13*
X17675000Y-10180000D02*
G75*
G03*
X17675000Y-10180000I-90000J0D01*
G01*
D11*
X17610000Y-10090000D02*
X17560000Y-10090000D01*
X17610000Y-10270000D02*
X17560000Y-10270000D01*
X17560000Y-10090000D02*
G75*
G03*
X17560000Y-10270000I0J-90000D01*
G01*
X17610000Y-10270000D02*
G75*
G03*
X17610000Y-10090000I0J90000D01*
G01*
D13*
X17675000Y-12180000D02*
G75*
G03*
X17675000Y-12180000I-90000J0D01*
G01*
D11*
X17610000Y-12090000D02*
X17560000Y-12090000D01*
X17610000Y-12270000D02*
X17560000Y-12270000D01*
X17560000Y-12090000D02*
G75*
G03*
X17560000Y-12270000I0J-90000D01*
G01*
X17610000Y-12270000D02*
G75*
G03*
X17610000Y-12090000I0J90000D01*
G01*
D14*
X12935000Y-8290000D02*
X12935000Y-8910000D01*
X12625000Y-8600000D02*
X13245000Y-8600000D01*
X17035000Y-8290000D02*
X17035000Y-8910000D01*
X16725000Y-8600000D02*
X17345000Y-8600000D01*
D11*
X12165119Y-13422976D02*
X12165119Y-13222976D01*
X12212738Y-13222976D01*
X12241309Y-13232500D01*
X12260357Y-13251548D01*
X12269881Y-13270595D01*
X12279405Y-13308690D01*
X12279405Y-13337262D01*
X12269881Y-13375357D01*
X12260357Y-13394405D01*
X12241309Y-13413452D01*
X12212738Y-13422976D01*
X12165119Y-13422976D01*
X12365119Y-13422976D02*
X12365119Y-13289643D01*
X12365119Y-13327738D02*
X12374643Y-13308690D01*
X12384167Y-13299167D01*
X12403214Y-13289643D01*
X12422262Y-13289643D01*
X12488928Y-13422976D02*
X12488928Y-13289643D01*
X12488928Y-13222976D02*
X12479405Y-13232500D01*
X12488928Y-13242024D01*
X12498452Y-13232500D01*
X12488928Y-13222976D01*
X12488928Y-13242024D01*
X12612738Y-13422976D02*
X12593690Y-13413452D01*
X12584167Y-13394405D01*
X12584167Y-13222976D01*
X12717500Y-13422976D02*
X12698452Y-13413452D01*
X12688928Y-13394405D01*
X12688928Y-13222976D01*
X12946071Y-13422976D02*
X12946071Y-13222976D01*
X13012738Y-13365833D01*
X13079405Y-13222976D01*
X13079405Y-13422976D01*
X13260357Y-13422976D02*
X13260357Y-13318214D01*
X13250833Y-13299167D01*
X13231786Y-13289643D01*
X13193690Y-13289643D01*
X13174643Y-13299167D01*
X13260357Y-13413452D02*
X13241309Y-13422976D01*
X13193690Y-13422976D01*
X13174643Y-13413452D01*
X13165119Y-13394405D01*
X13165119Y-13375357D01*
X13174643Y-13356309D01*
X13193690Y-13346786D01*
X13241309Y-13346786D01*
X13260357Y-13337262D01*
X13355595Y-13289643D02*
X13355595Y-13489643D01*
X13355595Y-13299167D02*
X13374643Y-13289643D01*
X13412738Y-13289643D01*
X13431786Y-13299167D01*
X13441309Y-13308690D01*
X13450833Y-13327738D01*
X13450833Y-13384881D01*
X13441309Y-13403928D01*
X13431786Y-13413452D01*
X13412738Y-13422976D01*
X13374643Y-13422976D01*
X13355595Y-13413452D01*
X13536548Y-13403928D02*
X13546071Y-13413452D01*
X13536548Y-13422976D01*
X13527024Y-13413452D01*
X13536548Y-13403928D01*
X13536548Y-13422976D01*
X13536548Y-13299167D02*
X13546071Y-13308690D01*
X13536548Y-13318214D01*
X13527024Y-13308690D01*
X13536548Y-13299167D01*
X13536548Y-13318214D01*
D12*
X11867500Y-13732500D02*
X11907500Y-13772500D01*
X11907500Y-13732500D02*
X11867500Y-13772500D01*
D11*
X12203214Y-13642976D02*
X12222262Y-13642976D01*
X12241309Y-13652500D01*
X12250833Y-13662024D01*
X12260357Y-13681071D01*
X12269881Y-13719167D01*
X12269881Y-13766786D01*
X12260357Y-13804881D01*
X12250833Y-13823928D01*
X12241309Y-13833452D01*
X12222262Y-13842976D01*
X12203214Y-13842976D01*
X12184167Y-13833452D01*
X12174643Y-13823928D01*
X12165119Y-13804881D01*
X12155595Y-13766786D01*
X12155595Y-13719167D01*
X12165119Y-13681071D01*
X12174643Y-13662024D01*
X12184167Y-13652500D01*
X12203214Y-13642976D01*
X12355595Y-13823928D02*
X12365119Y-13833452D01*
X12355595Y-13842976D01*
X12346071Y-13833452D01*
X12355595Y-13823928D01*
X12355595Y-13842976D01*
X12536548Y-13709643D02*
X12536548Y-13842976D01*
X12488928Y-13633452D02*
X12441309Y-13776309D01*
X12565119Y-13776309D01*
X12679405Y-13642976D02*
X12698452Y-13642976D01*
X12717500Y-13652500D01*
X12727024Y-13662024D01*
X12736548Y-13681071D01*
X12746071Y-13719167D01*
X12746071Y-13766786D01*
X12736548Y-13804881D01*
X12727024Y-13823928D01*
X12717500Y-13833452D01*
X12698452Y-13842976D01*
X12679405Y-13842976D01*
X12660357Y-13833452D01*
X12650833Y-13823928D01*
X12641309Y-13804881D01*
X12631786Y-13766786D01*
X12631786Y-13719167D01*
X12641309Y-13681071D01*
X12650833Y-13662024D01*
X12660357Y-13652500D01*
X12679405Y-13642976D01*
X12869881Y-13642976D02*
X12888928Y-13642976D01*
X12907976Y-13652500D01*
X12917500Y-13662024D01*
X12927024Y-13681071D01*
X12936548Y-13719167D01*
X12936548Y-13766786D01*
X12927024Y-13804881D01*
X12917500Y-13823928D01*
X12907976Y-13833452D01*
X12888928Y-13842976D01*
X12869881Y-13842976D01*
X12850833Y-13833452D01*
X12841309Y-13823928D01*
X12831786Y-13804881D01*
X12822262Y-13766786D01*
X12822262Y-13719167D01*
X12831786Y-13681071D01*
X12841309Y-13662024D01*
X12850833Y-13652500D01*
X12869881Y-13642976D01*
X13022262Y-13842976D02*
X13022262Y-13709643D01*
X13022262Y-13728690D02*
X13031786Y-13719167D01*
X13050833Y-13709643D01*
X13079405Y-13709643D01*
X13098452Y-13719167D01*
X13107976Y-13738214D01*
X13107976Y-13842976D01*
X13107976Y-13738214D02*
X13117500Y-13719167D01*
X13136548Y-13709643D01*
X13165119Y-13709643D01*
X13184167Y-13719167D01*
X13193690Y-13738214D01*
X13193690Y-13842976D01*
X13288928Y-13842976D02*
X13288928Y-13709643D01*
X13288928Y-13728690D02*
X13298452Y-13719167D01*
X13317500Y-13709643D01*
X13346071Y-13709643D01*
X13365119Y-13719167D01*
X13374643Y-13738214D01*
X13374643Y-13842976D01*
X13374643Y-13738214D02*
X13384167Y-13719167D01*
X13403214Y-13709643D01*
X13431786Y-13709643D01*
X13450833Y-13719167D01*
X13460357Y-13738214D01*
X13460357Y-13842976D01*
X13850833Y-13633452D02*
X13679405Y-13890595D01*
X14107976Y-13642976D02*
X14127024Y-13642976D01*
X14146071Y-13652500D01*
X14155595Y-13662024D01*
X14165119Y-13681071D01*
X14174643Y-13719167D01*
X14174643Y-13766786D01*
X14165119Y-13804881D01*
X14155595Y-13823928D01*
X14146071Y-13833452D01*
X14127024Y-13842976D01*
X14107976Y-13842976D01*
X14088928Y-13833452D01*
X14079405Y-13823928D01*
X14069881Y-13804881D01*
X14060357Y-13766786D01*
X14060357Y-13719167D01*
X14069881Y-13681071D01*
X14079405Y-13662024D01*
X14088928Y-13652500D01*
X14107976Y-13642976D01*
X14260357Y-13823928D02*
X14269881Y-13833452D01*
X14260357Y-13842976D01*
X14250833Y-13833452D01*
X14260357Y-13823928D01*
X14260357Y-13842976D01*
X14393690Y-13642976D02*
X14412738Y-13642976D01*
X14431786Y-13652500D01*
X14441309Y-13662024D01*
X14450833Y-13681071D01*
X14460357Y-13719167D01*
X14460357Y-13766786D01*
X14450833Y-13804881D01*
X14441309Y-13823928D01*
X14431786Y-13833452D01*
X14412738Y-13842976D01*
X14393690Y-13842976D01*
X14374643Y-13833452D01*
X14365119Y-13823928D01*
X14355595Y-13804881D01*
X14346071Y-13766786D01*
X14346071Y-13719167D01*
X14355595Y-13681071D01*
X14365119Y-13662024D01*
X14374643Y-13652500D01*
X14393690Y-13642976D01*
X14650833Y-13842976D02*
X14536548Y-13842976D01*
X14593690Y-13842976D02*
X14593690Y-13642976D01*
X14574643Y-13671548D01*
X14555595Y-13690595D01*
X14536548Y-13700119D01*
X14831786Y-13642976D02*
X14736548Y-13642976D01*
X14727024Y-13738214D01*
X14736548Y-13728690D01*
X14755595Y-13719167D01*
X14803214Y-13719167D01*
X14822262Y-13728690D01*
X14831786Y-13738214D01*
X14841309Y-13757262D01*
X14841309Y-13804881D01*
X14831786Y-13823928D01*
X14822262Y-13833452D01*
X14803214Y-13842976D01*
X14755595Y-13842976D01*
X14736548Y-13833452D01*
X14727024Y-13823928D01*
X14907976Y-13642976D02*
X15041309Y-13642976D01*
X14955595Y-13842976D01*
X15107976Y-13642976D02*
X15107976Y-13681071D01*
X15184167Y-13642976D02*
X15184167Y-13681071D01*
X15479405Y-13919167D02*
X15469881Y-13909643D01*
X15450833Y-13881071D01*
X15441309Y-13862024D01*
X15431786Y-13833452D01*
X15422262Y-13785833D01*
X15422262Y-13747738D01*
X15431786Y-13700119D01*
X15441309Y-13671548D01*
X15450833Y-13652500D01*
X15469881Y-13623928D01*
X15479405Y-13614405D01*
X15660357Y-13842976D02*
X15546071Y-13842976D01*
X15603214Y-13842976D02*
X15603214Y-13642976D01*
X15584167Y-13671548D01*
X15565119Y-13690595D01*
X15546071Y-13700119D01*
X15831786Y-13709643D02*
X15831786Y-13842976D01*
X15784167Y-13633452D02*
X15736548Y-13776309D01*
X15860357Y-13776309D01*
X16022262Y-13642976D02*
X15984167Y-13642976D01*
X15965119Y-13652500D01*
X15955595Y-13662024D01*
X15936548Y-13690595D01*
X15927024Y-13728690D01*
X15927024Y-13804881D01*
X15936548Y-13823928D01*
X15946071Y-13833452D01*
X15965119Y-13842976D01*
X16003214Y-13842976D01*
X16022262Y-13833452D01*
X16031786Y-13823928D01*
X16041309Y-13804881D01*
X16041309Y-13757262D01*
X16031786Y-13738214D01*
X16022262Y-13728690D01*
X16003214Y-13719167D01*
X15965119Y-13719167D01*
X15946071Y-13728690D01*
X15936548Y-13738214D01*
X15927024Y-13757262D01*
X16279405Y-13842976D02*
X16279405Y-13642976D01*
X16365119Y-13842976D02*
X16365119Y-13738214D01*
X16355595Y-13719167D01*
X16336548Y-13709643D01*
X16307976Y-13709643D01*
X16288928Y-13719167D01*
X16279405Y-13728690D01*
X16488928Y-13842976D02*
X16469881Y-13833452D01*
X16460357Y-13823928D01*
X16450833Y-13804881D01*
X16450833Y-13747738D01*
X16460357Y-13728690D01*
X16469881Y-13719167D01*
X16488928Y-13709643D01*
X16517500Y-13709643D01*
X16536548Y-13719167D01*
X16546071Y-13728690D01*
X16555595Y-13747738D01*
X16555595Y-13804881D01*
X16546071Y-13823928D01*
X16536548Y-13833452D01*
X16517500Y-13842976D01*
X16488928Y-13842976D01*
X16669881Y-13842976D02*
X16650833Y-13833452D01*
X16641309Y-13814405D01*
X16641309Y-13642976D01*
X16822262Y-13833452D02*
X16803214Y-13842976D01*
X16765119Y-13842976D01*
X16746071Y-13833452D01*
X16736548Y-13814405D01*
X16736548Y-13738214D01*
X16746071Y-13719167D01*
X16765119Y-13709643D01*
X16803214Y-13709643D01*
X16822262Y-13719167D01*
X16831786Y-13738214D01*
X16831786Y-13757262D01*
X16736548Y-13776309D01*
X16907976Y-13833452D02*
X16927024Y-13842976D01*
X16965119Y-13842976D01*
X16984167Y-13833452D01*
X16993690Y-13814405D01*
X16993690Y-13804881D01*
X16984167Y-13785833D01*
X16965119Y-13776309D01*
X16936548Y-13776309D01*
X16917500Y-13766786D01*
X16907976Y-13747738D01*
X16907976Y-13738214D01*
X16917500Y-13719167D01*
X16936548Y-13709643D01*
X16965119Y-13709643D01*
X16984167Y-13719167D01*
X17060357Y-13919167D02*
X17069881Y-13909643D01*
X17088929Y-13881071D01*
X17098452Y-13862024D01*
X17107976Y-13833452D01*
X17117500Y-13785833D01*
X17117500Y-13747738D01*
X17107976Y-13700119D01*
X17098452Y-13671548D01*
X17088929Y-13652500D01*
X17069881Y-13623928D01*
X17060357Y-13614405D01*
D13*
X11907500Y-14016500D02*
G75*
G03*
X11907500Y-14016500I-90000J0D01*
G01*
D11*
X12269881Y-14106976D02*
X12155595Y-14106976D01*
X12212738Y-14106976D02*
X12212738Y-13906976D01*
X12193690Y-13935548D01*
X12174643Y-13954595D01*
X12155595Y-13964119D01*
X12355595Y-14087928D02*
X12365119Y-14097452D01*
X12355595Y-14106976D01*
X12346071Y-14097452D01*
X12355595Y-14087928D01*
X12355595Y-14106976D01*
X12479405Y-13992690D02*
X12460357Y-13983167D01*
X12450833Y-13973643D01*
X12441309Y-13954595D01*
X12441309Y-13945071D01*
X12450833Y-13926024D01*
X12460357Y-13916500D01*
X12479405Y-13906976D01*
X12517500Y-13906976D01*
X12536548Y-13916500D01*
X12546071Y-13926024D01*
X12555595Y-13945071D01*
X12555595Y-13954595D01*
X12546071Y-13973643D01*
X12536548Y-13983167D01*
X12517500Y-13992690D01*
X12479405Y-13992690D01*
X12460357Y-14002214D01*
X12450833Y-14011738D01*
X12441309Y-14030786D01*
X12441309Y-14068881D01*
X12450833Y-14087928D01*
X12460357Y-14097452D01*
X12479405Y-14106976D01*
X12517500Y-14106976D01*
X12536548Y-14097452D01*
X12546071Y-14087928D01*
X12555595Y-14068881D01*
X12555595Y-14030786D01*
X12546071Y-14011738D01*
X12536548Y-14002214D01*
X12517500Y-13992690D01*
X12679405Y-13906976D02*
X12698452Y-13906976D01*
X12717500Y-13916500D01*
X12727024Y-13926024D01*
X12736548Y-13945071D01*
X12746071Y-13983167D01*
X12746071Y-14030786D01*
X12736548Y-14068881D01*
X12727024Y-14087928D01*
X12717500Y-14097452D01*
X12698452Y-14106976D01*
X12679405Y-14106976D01*
X12660357Y-14097452D01*
X12650833Y-14087928D01*
X12641309Y-14068881D01*
X12631786Y-14030786D01*
X12631786Y-13983167D01*
X12641309Y-13945071D01*
X12650833Y-13926024D01*
X12660357Y-13916500D01*
X12679405Y-13906976D01*
X12869881Y-13906976D02*
X12888928Y-13906976D01*
X12907976Y-13916500D01*
X12917500Y-13926024D01*
X12927024Y-13945071D01*
X12936548Y-13983167D01*
X12936548Y-14030786D01*
X12927024Y-14068881D01*
X12917500Y-14087928D01*
X12907976Y-14097452D01*
X12888928Y-14106976D01*
X12869881Y-14106976D01*
X12850833Y-14097452D01*
X12841309Y-14087928D01*
X12831786Y-14068881D01*
X12822262Y-14030786D01*
X12822262Y-13983167D01*
X12831786Y-13945071D01*
X12841309Y-13926024D01*
X12850833Y-13916500D01*
X12869881Y-13906976D01*
X13022262Y-14106976D02*
X13022262Y-13973643D01*
X13022262Y-13992690D02*
X13031786Y-13983167D01*
X13050833Y-13973643D01*
X13079405Y-13973643D01*
X13098452Y-13983167D01*
X13107976Y-14002214D01*
X13107976Y-14106976D01*
X13107976Y-14002214D02*
X13117500Y-13983167D01*
X13136548Y-13973643D01*
X13165119Y-13973643D01*
X13184167Y-13983167D01*
X13193690Y-14002214D01*
X13193690Y-14106976D01*
X13288928Y-14106976D02*
X13288928Y-13973643D01*
X13288928Y-13992690D02*
X13298452Y-13983167D01*
X13317500Y-13973643D01*
X13346071Y-13973643D01*
X13365119Y-13983167D01*
X13374643Y-14002214D01*
X13374643Y-14106976D01*
X13374643Y-14002214D02*
X13384167Y-13983167D01*
X13403214Y-13973643D01*
X13431786Y-13973643D01*
X13450833Y-13983167D01*
X13460357Y-14002214D01*
X13460357Y-14106976D01*
X13850833Y-13897452D02*
X13679405Y-14154595D01*
X14107976Y-13906976D02*
X14127024Y-13906976D01*
X14146071Y-13916500D01*
X14155595Y-13926024D01*
X14165119Y-13945071D01*
X14174643Y-13983167D01*
X14174643Y-14030786D01*
X14165119Y-14068881D01*
X14155595Y-14087928D01*
X14146071Y-14097452D01*
X14127024Y-14106976D01*
X14107976Y-14106976D01*
X14088928Y-14097452D01*
X14079405Y-14087928D01*
X14069881Y-14068881D01*
X14060357Y-14030786D01*
X14060357Y-13983167D01*
X14069881Y-13945071D01*
X14079405Y-13926024D01*
X14088928Y-13916500D01*
X14107976Y-13906976D01*
X14260357Y-14087928D02*
X14269881Y-14097452D01*
X14260357Y-14106976D01*
X14250833Y-14097452D01*
X14260357Y-14087928D01*
X14260357Y-14106976D01*
X14393690Y-13906976D02*
X14412738Y-13906976D01*
X14431786Y-13916500D01*
X14441309Y-13926024D01*
X14450833Y-13945071D01*
X14460357Y-13983167D01*
X14460357Y-14030786D01*
X14450833Y-14068881D01*
X14441309Y-14087928D01*
X14431786Y-14097452D01*
X14412738Y-14106976D01*
X14393690Y-14106976D01*
X14374643Y-14097452D01*
X14365119Y-14087928D01*
X14355595Y-14068881D01*
X14346071Y-14030786D01*
X14346071Y-13983167D01*
X14355595Y-13945071D01*
X14365119Y-13926024D01*
X14374643Y-13916500D01*
X14393690Y-13906976D01*
X14527024Y-13906976D02*
X14660357Y-13906976D01*
X14574643Y-14106976D01*
X14774643Y-13906976D02*
X14793690Y-13906976D01*
X14812738Y-13916500D01*
X14822262Y-13926024D01*
X14831786Y-13945071D01*
X14841309Y-13983167D01*
X14841309Y-14030786D01*
X14831786Y-14068881D01*
X14822262Y-14087928D01*
X14812738Y-14097452D01*
X14793690Y-14106976D01*
X14774643Y-14106976D01*
X14755595Y-14097452D01*
X14746071Y-14087928D01*
X14736548Y-14068881D01*
X14727024Y-14030786D01*
X14727024Y-13983167D01*
X14736548Y-13945071D01*
X14746071Y-13926024D01*
X14755595Y-13916500D01*
X14774643Y-13906976D01*
X14936548Y-14106976D02*
X14974643Y-14106976D01*
X14993690Y-14097452D01*
X15003214Y-14087928D01*
X15022262Y-14059357D01*
X15031786Y-14021262D01*
X15031786Y-13945071D01*
X15022262Y-13926024D01*
X15012738Y-13916500D01*
X14993690Y-13906976D01*
X14955595Y-13906976D01*
X14936548Y-13916500D01*
X14927024Y-13926024D01*
X14917500Y-13945071D01*
X14917500Y-13992690D01*
X14927024Y-14011738D01*
X14936548Y-14021262D01*
X14955595Y-14030786D01*
X14993690Y-14030786D01*
X15012738Y-14021262D01*
X15022262Y-14011738D01*
X15031786Y-13992690D01*
X15107976Y-13906976D02*
X15107976Y-13945071D01*
X15184167Y-13906976D02*
X15184167Y-13945071D01*
X15479405Y-14183167D02*
X15469881Y-14173643D01*
X15450833Y-14145071D01*
X15441309Y-14126024D01*
X15431786Y-14097452D01*
X15422262Y-14049833D01*
X15422262Y-14011738D01*
X15431786Y-13964119D01*
X15441309Y-13935548D01*
X15450833Y-13916500D01*
X15469881Y-13887928D01*
X15479405Y-13878405D01*
X15593690Y-13906976D02*
X15612738Y-13906976D01*
X15631786Y-13916500D01*
X15641309Y-13926024D01*
X15650833Y-13945071D01*
X15660357Y-13983167D01*
X15660357Y-14030786D01*
X15650833Y-14068881D01*
X15641309Y-14087928D01*
X15631786Y-14097452D01*
X15612738Y-14106976D01*
X15593690Y-14106976D01*
X15574643Y-14097452D01*
X15565119Y-14087928D01*
X15555595Y-14068881D01*
X15546071Y-14030786D01*
X15546071Y-13983167D01*
X15555595Y-13945071D01*
X15565119Y-13926024D01*
X15574643Y-13916500D01*
X15593690Y-13906976D01*
X15898452Y-14106976D02*
X15898452Y-13906976D01*
X15984167Y-14106976D02*
X15984167Y-14002214D01*
X15974643Y-13983167D01*
X15955595Y-13973643D01*
X15927024Y-13973643D01*
X15907976Y-13983167D01*
X15898452Y-13992690D01*
X16107976Y-14106976D02*
X16088928Y-14097452D01*
X16079405Y-14087928D01*
X16069881Y-14068881D01*
X16069881Y-14011738D01*
X16079405Y-13992690D01*
X16088928Y-13983167D01*
X16107976Y-13973643D01*
X16136548Y-13973643D01*
X16155595Y-13983167D01*
X16165119Y-13992690D01*
X16174643Y-14011738D01*
X16174643Y-14068881D01*
X16165119Y-14087928D01*
X16155595Y-14097452D01*
X16136548Y-14106976D01*
X16107976Y-14106976D01*
X16288928Y-14106976D02*
X16269881Y-14097452D01*
X16260357Y-14078405D01*
X16260357Y-13906976D01*
X16441309Y-14097452D02*
X16422262Y-14106976D01*
X16384167Y-14106976D01*
X16365119Y-14097452D01*
X16355595Y-14078405D01*
X16355595Y-14002214D01*
X16365119Y-13983167D01*
X16384167Y-13973643D01*
X16422262Y-13973643D01*
X16441309Y-13983167D01*
X16450833Y-14002214D01*
X16450833Y-14021262D01*
X16355595Y-14040309D01*
X16527024Y-14097452D02*
X16546071Y-14106976D01*
X16584167Y-14106976D01*
X16603214Y-14097452D01*
X16612738Y-14078405D01*
X16612738Y-14068881D01*
X16603214Y-14049833D01*
X16584167Y-14040309D01*
X16555595Y-14040309D01*
X16536548Y-14030786D01*
X16527024Y-14011738D01*
X16527024Y-14002214D01*
X16536548Y-13983167D01*
X16555595Y-13973643D01*
X16584167Y-13973643D01*
X16603214Y-13983167D01*
X16850833Y-14030786D02*
X17003214Y-14030786D01*
X16927024Y-14106976D02*
X16927024Y-13954595D01*
X17336548Y-13973643D02*
X17336548Y-14106976D01*
X17288929Y-13897452D02*
X17241310Y-14040309D01*
X17365119Y-14040309D01*
X17584167Y-14097452D02*
X17603214Y-14106976D01*
X17641310Y-14106976D01*
X17660357Y-14097452D01*
X17669881Y-14078405D01*
X17669881Y-14068881D01*
X17660357Y-14049833D01*
X17641310Y-14040309D01*
X17612738Y-14040309D01*
X17593690Y-14030786D01*
X17584167Y-14011738D01*
X17584167Y-14002214D01*
X17593690Y-13983167D01*
X17612738Y-13973643D01*
X17641310Y-13973643D01*
X17660357Y-13983167D01*
X17784167Y-14106976D02*
X17765119Y-14097452D01*
X17755595Y-14078405D01*
X17755595Y-13906976D01*
X17888929Y-14106976D02*
X17869881Y-14097452D01*
X17860357Y-14087928D01*
X17850833Y-14068881D01*
X17850833Y-14011738D01*
X17860357Y-13992690D01*
X17869881Y-13983167D01*
X17888929Y-13973643D01*
X17917500Y-13973643D01*
X17936548Y-13983167D01*
X17946071Y-13992690D01*
X17955595Y-14011738D01*
X17955595Y-14068881D01*
X17946071Y-14087928D01*
X17936548Y-14097452D01*
X17917500Y-14106976D01*
X17888929Y-14106976D01*
X18012738Y-13973643D02*
X18088929Y-13973643D01*
X18041310Y-13906976D02*
X18041310Y-14078405D01*
X18050833Y-14097452D01*
X18069881Y-14106976D01*
X18088929Y-14106976D01*
X18146071Y-14097452D02*
X18165119Y-14106976D01*
X18203214Y-14106976D01*
X18222262Y-14097452D01*
X18231786Y-14078405D01*
X18231786Y-14068881D01*
X18222262Y-14049833D01*
X18203214Y-14040309D01*
X18174643Y-14040309D01*
X18155595Y-14030786D01*
X18146071Y-14011738D01*
X18146071Y-14002214D01*
X18155595Y-13983167D01*
X18174643Y-13973643D01*
X18203214Y-13973643D01*
X18222262Y-13983167D01*
X18298452Y-14183167D02*
X18307976Y-14173643D01*
X18327024Y-14145071D01*
X18336548Y-14126024D01*
X18346071Y-14097452D01*
X18355595Y-14049833D01*
X18355595Y-14011738D01*
X18346071Y-13964119D01*
X18336548Y-13935548D01*
X18327024Y-13916500D01*
X18307976Y-13887928D01*
X18298452Y-13878405D01*
X11807500Y-14216500D02*
X11807500Y-14416500D01*
X11707500Y-14316500D02*
X11907500Y-14316500D01*
X12250833Y-14206976D02*
X12212738Y-14206976D01*
X12193690Y-14216500D01*
X12184167Y-14226024D01*
X12165119Y-14254595D01*
X12155595Y-14292690D01*
X12155595Y-14368881D01*
X12165119Y-14387928D01*
X12174643Y-14397452D01*
X12193690Y-14406976D01*
X12231786Y-14406976D01*
X12250833Y-14397452D01*
X12260357Y-14387928D01*
X12269881Y-14368881D01*
X12269881Y-14321262D01*
X12260357Y-14302214D01*
X12250833Y-14292690D01*
X12231786Y-14283167D01*
X12193690Y-14283167D01*
X12174643Y-14292690D01*
X12165119Y-14302214D01*
X12155595Y-14321262D01*
X12355595Y-14387928D02*
X12365119Y-14397452D01*
X12355595Y-14406976D01*
X12346071Y-14397452D01*
X12355595Y-14387928D01*
X12355595Y-14406976D01*
X12441309Y-14226024D02*
X12450833Y-14216500D01*
X12469881Y-14206976D01*
X12517500Y-14206976D01*
X12536548Y-14216500D01*
X12546071Y-14226024D01*
X12555595Y-14245071D01*
X12555595Y-14264119D01*
X12546071Y-14292690D01*
X12431786Y-14406976D01*
X12555595Y-14406976D01*
X12679405Y-14206976D02*
X12698452Y-14206976D01*
X12717500Y-14216500D01*
X12727024Y-14226024D01*
X12736548Y-14245071D01*
X12746071Y-14283167D01*
X12746071Y-14330786D01*
X12736548Y-14368881D01*
X12727024Y-14387928D01*
X12717500Y-14397452D01*
X12698452Y-14406976D01*
X12679405Y-14406976D01*
X12660357Y-14397452D01*
X12650833Y-14387928D01*
X12641309Y-14368881D01*
X12631786Y-14330786D01*
X12631786Y-14283167D01*
X12641309Y-14245071D01*
X12650833Y-14226024D01*
X12660357Y-14216500D01*
X12679405Y-14206976D01*
X12869881Y-14206976D02*
X12888928Y-14206976D01*
X12907976Y-14216500D01*
X12917500Y-14226024D01*
X12927024Y-14245071D01*
X12936548Y-14283167D01*
X12936548Y-14330786D01*
X12927024Y-14368881D01*
X12917500Y-14387928D01*
X12907976Y-14397452D01*
X12888928Y-14406976D01*
X12869881Y-14406976D01*
X12850833Y-14397452D01*
X12841309Y-14387928D01*
X12831786Y-14368881D01*
X12822262Y-14330786D01*
X12822262Y-14283167D01*
X12831786Y-14245071D01*
X12841309Y-14226024D01*
X12850833Y-14216500D01*
X12869881Y-14206976D01*
X13022262Y-14406976D02*
X13022262Y-14273643D01*
X13022262Y-14292690D02*
X13031786Y-14283167D01*
X13050833Y-14273643D01*
X13079405Y-14273643D01*
X13098452Y-14283167D01*
X13107976Y-14302214D01*
X13107976Y-14406976D01*
X13107976Y-14302214D02*
X13117500Y-14283167D01*
X13136548Y-14273643D01*
X13165119Y-14273643D01*
X13184167Y-14283167D01*
X13193690Y-14302214D01*
X13193690Y-14406976D01*
X13288928Y-14406976D02*
X13288928Y-14273643D01*
X13288928Y-14292690D02*
X13298452Y-14283167D01*
X13317500Y-14273643D01*
X13346071Y-14273643D01*
X13365119Y-14283167D01*
X13374643Y-14302214D01*
X13374643Y-14406976D01*
X13374643Y-14302214D02*
X13384167Y-14283167D01*
X13403214Y-14273643D01*
X13431786Y-14273643D01*
X13450833Y-14283167D01*
X13460357Y-14302214D01*
X13460357Y-14406976D01*
X13850833Y-14197452D02*
X13679405Y-14454595D01*
X14107976Y-14206976D02*
X14127024Y-14206976D01*
X14146071Y-14216500D01*
X14155595Y-14226024D01*
X14165119Y-14245071D01*
X14174643Y-14283167D01*
X14174643Y-14330786D01*
X14165119Y-14368881D01*
X14155595Y-14387928D01*
X14146071Y-14397452D01*
X14127024Y-14406976D01*
X14107976Y-14406976D01*
X14088928Y-14397452D01*
X14079405Y-14387928D01*
X14069881Y-14368881D01*
X14060357Y-14330786D01*
X14060357Y-14283167D01*
X14069881Y-14245071D01*
X14079405Y-14226024D01*
X14088928Y-14216500D01*
X14107976Y-14206976D01*
X14260357Y-14387928D02*
X14269881Y-14397452D01*
X14260357Y-14406976D01*
X14250833Y-14397452D01*
X14260357Y-14387928D01*
X14260357Y-14406976D01*
X14346071Y-14226024D02*
X14355595Y-14216500D01*
X14374643Y-14206976D01*
X14422262Y-14206976D01*
X14441309Y-14216500D01*
X14450833Y-14226024D01*
X14460357Y-14245071D01*
X14460357Y-14264119D01*
X14450833Y-14292690D01*
X14336548Y-14406976D01*
X14460357Y-14406976D01*
X14631786Y-14273643D02*
X14631786Y-14406976D01*
X14584167Y-14197452D02*
X14536548Y-14340309D01*
X14660357Y-14340309D01*
X14822262Y-14273643D02*
X14822262Y-14406976D01*
X14774643Y-14197452D02*
X14727024Y-14340309D01*
X14850833Y-14340309D01*
X15031786Y-14406976D02*
X14917500Y-14406976D01*
X14974643Y-14406976D02*
X14974643Y-14206976D01*
X14955595Y-14235548D01*
X14936548Y-14254595D01*
X14917500Y-14264119D01*
X15107976Y-14206976D02*
X15107976Y-14245071D01*
X15184167Y-14206976D02*
X15184167Y-14245071D01*
X15479405Y-14483167D02*
X15469881Y-14473643D01*
X15450833Y-14445071D01*
X15441309Y-14426024D01*
X15431786Y-14397452D01*
X15422262Y-14349833D01*
X15422262Y-14311738D01*
X15431786Y-14264119D01*
X15441309Y-14235548D01*
X15450833Y-14216500D01*
X15469881Y-14187928D01*
X15479405Y-14178405D01*
X15546071Y-14226024D02*
X15555595Y-14216500D01*
X15574643Y-14206976D01*
X15622262Y-14206976D01*
X15641309Y-14216500D01*
X15650833Y-14226024D01*
X15660357Y-14245071D01*
X15660357Y-14264119D01*
X15650833Y-14292690D01*
X15536548Y-14406976D01*
X15660357Y-14406976D01*
X15898452Y-14406976D02*
X15898452Y-14206976D01*
X15984167Y-14406976D02*
X15984167Y-14302214D01*
X15974643Y-14283167D01*
X15955595Y-14273643D01*
X15927024Y-14273643D01*
X15907976Y-14283167D01*
X15898452Y-14292690D01*
X16107976Y-14406976D02*
X16088928Y-14397452D01*
X16079405Y-14387928D01*
X16069881Y-14368881D01*
X16069881Y-14311738D01*
X16079405Y-14292690D01*
X16088928Y-14283167D01*
X16107976Y-14273643D01*
X16136548Y-14273643D01*
X16155595Y-14283167D01*
X16165119Y-14292690D01*
X16174643Y-14311738D01*
X16174643Y-14368881D01*
X16165119Y-14387928D01*
X16155595Y-14397452D01*
X16136548Y-14406976D01*
X16107976Y-14406976D01*
X16288928Y-14406976D02*
X16269881Y-14397452D01*
X16260357Y-14378405D01*
X16260357Y-14206976D01*
X16441309Y-14397452D02*
X16422262Y-14406976D01*
X16384167Y-14406976D01*
X16365119Y-14397452D01*
X16355595Y-14378405D01*
X16355595Y-14302214D01*
X16365119Y-14283167D01*
X16384167Y-14273643D01*
X16422262Y-14273643D01*
X16441309Y-14283167D01*
X16450833Y-14302214D01*
X16450833Y-14321262D01*
X16355595Y-14340309D01*
X16527024Y-14397452D02*
X16546071Y-14406976D01*
X16584167Y-14406976D01*
X16603214Y-14397452D01*
X16612738Y-14378405D01*
X16612738Y-14368881D01*
X16603214Y-14349833D01*
X16584167Y-14340309D01*
X16555595Y-14340309D01*
X16536548Y-14330786D01*
X16527024Y-14311738D01*
X16527024Y-14302214D01*
X16536548Y-14283167D01*
X16555595Y-14273643D01*
X16584167Y-14273643D01*
X16603214Y-14283167D01*
X16679405Y-14483167D02*
X16688928Y-14473643D01*
X16707976Y-14445071D01*
X16717500Y-14426024D01*
X16727024Y-14397452D01*
X16736548Y-14349833D01*
X16736548Y-14311738D01*
X16727024Y-14264119D01*
X16717500Y-14235548D01*
X16707976Y-14216500D01*
X16688928Y-14187928D01*
X16679405Y-14178405D01*
M02*
